SplineFontDB: 3.2
FontName: CEFFontsMathematique-Regular
FullName: CEF Fonts Mathematique Regular
FamilyName: CEF Fonts Mathematique
Weight: Book
Copyright: Partyboss (), All rights reserved.
Version: Alpha 0.01
ItalicAngle: 0
UnderlinePosition: -292
UnderlineWidth: 150
Ascent: 1638
Descent: 410
InvalidEm: 0
sfntRevision: 0x00010000
LayerCount: 2
Layer: 0 1 "+gMxmbwAA" 1
Layer: 1 1 "+Uk1mbwAA" 0
XUID: [1021 121 -1911808854 17103]
StyleMap: 0x0040
FSType: 8
OS2Version: 4
OS2_WeightWidthSlopeOnly: 1
OS2_UseTypoMetrics: 0
CreationTime: 1722841293
ModificationTime: 1730991695
PfmFamily: 81
TTFWeight: 400
TTFWidth: 5
LineGap: 0
VLineGap: 0
Panose: 0 0 5 0 0 0 0 0 0 0
OS2TypoAscent: 1620
OS2TypoAOffset: 0
OS2TypoDescent: -435
OS2TypoDOffset: 0
OS2TypoLinegap: 100
OS2WinAscent: 5000
OS2WinAOffset: 0
OS2WinDescent: 5000
OS2WinDOffset: 0
HheadAscent: 1723
HheadAOffset: 0
HheadDescent: -428
HheadDOffset: 0
OS2SubXSize: 1434
OS2SubYSize: 1331
OS2SubXOff: 0
OS2SubYOff: 307
OS2SupXSize: 1434
OS2SupYSize: 1331
OS2SupXOff: 0
OS2SupYOff: 922
OS2StrikeYSize: 102
OS2StrikeYPos: 530
OS2CapHeight: 1434
OS2XHeight: 958
OS2Vendor: 'PBCF'
OS2CodePages: 0000009f.00000000
OS2UnicodeRanges: 800002c7.020000ee.02000000.00000000
MarkAttachClasses: 1
DEI: 91125
ShortTable: maxp 16
  1
  0
  2270
  250
  7
  160
  3
  1
  0
  0
  0
  0
  0
  0
  3
  1
EndShort

StartChar: .notdef
Encoding: 1114112 -1 0
Width: 1435
GlyphClass: 1
Flags: W
LayerCount: 2
Fore
SplineSet
180 0 m 5,0,-1
 180 1434 l 5,1,-1
 1255 1434 l 5,2,-1
 1255 0 l 5,3,-1
 180 0 l 5,0,-1
360 180 m 5,4,-1
 1075 180 l 5,5,-1
 1075 1254 l 5,6,-1
 360 1254 l 5,7,-1
 360 180 l 5,4,-1
EndSplineSet
EndChar

StartChar: exclam
Encoding: 33 33 2
Width: 346
GlyphClass: 1
Flags: W
LayerCount: 2
Fore
SplineSet
181 1488 m 1,0,1
 221 1478 221 1478 221 1436 c 2,2,-1
 221 344 l 2,3,4
 221 292 221 292 173 292 c 1,5,6
 133 302 133 302 133 344 c 2,7,-1
 133 1436 l 2,8,9
 133 1488 133 1488 181 1488 c 1,0,1
169 96 m 2,10,-1
 181 96 l 2,11,12
 233 96 233 96 233 44 c 2,13,-1
 233 20 l 2,14,15
 233 -36 233 -36 177 -36 c 2,16,-1
 165 -36 l 2,17,18
 113 -36 113 -36 113 16 c 2,19,-1
 113 20 l 2,20,21
 113 96 113 96 169 96 c 2,10,-1
EndSplineSet
EndChar

StartChar: quotedbl
Encoding: 34 34 3
Width: 656
GlyphClass: 1
Flags: W
LayerCount: 2
Fore
SplineSet
168 1504 m 1,0,1
 208 1494 208 1494 208 1452 c 2,2,-1
 208 1072 l 2,3,4
 208 1020 208 1020 160 1020 c 1,5,6
 120 1030 120 1030 120 1072 c 2,7,-1
 120 1452 l 2,8,9
 120 1504 120 1504 168 1504 c 1,0,1
496 1504 m 1,10,11
 536 1494 536 1494 536 1452 c 2,12,-1
 536 1072 l 2,13,14
 536 1020 536 1020 488 1020 c 1,15,16
 448 1030 448 1030 448 1072 c 2,17,-1
 448 1452 l 2,18,19
 448 1504 448 1504 496 1504 c 1,10,11
EndSplineSet
EndChar

StartChar: numbersign
Encoding: 35 35 4
Width: 1336
GlyphClass: 1
Flags: W
LayerCount: 2
Fore
SplineSet
413 1269 m 1,0,1
 453 1258 453 1258 453 1217 c 2,2,-1
 453 953 l 1,3,-1
 881 953 l 1,4,-1
 881 1217 l 2,5,6
 881 1269 881 1269 929 1269 c 1,7,8
 969 1258 969 1258 969 1217 c 2,9,-1
 969 953 l 1,10,-1
 989 953 l 2,11,12
 1067 953 1067 953 1205 957 c 1,13,14
 1245 945 1245 945 1245 909 c 0,15,16
 1245 869 1245 869 1161 869 c 1,17,18
 1133 865 1133 865 1021 865 c 2,19,-1
 969 865 l 1,20,-1
 969 525 l 1,21,-1
 1193 525 l 2,22,23
 1245 525 1245 525 1245 477 c 1,24,25
 1234 437 1234 437 1193 437 c 2,26,-1
 969 437 l 1,27,-1
 969 33 l 2,28,29
 969 -19 969 -19 921 -19 c 1,30,31
 881 -8 881 -8 881 33 c 2,32,-1
 881 437 l 1,33,-1
 453 437 l 1,34,-1
 453 181 l 2,35,36
 453 126 453 126 457 37 c 1,37,38
 445 -3 445 -3 409 -3 c 0,39,40
 365 -3 365 -3 365 113 c 2,41,-1
 365 437 l 1,42,-1
 137 437 l 2,43,44
 85 437 85 437 85 489 c 1,45,46
 94 533 94 533 133 533 c 1,47,48
 148 525 148 525 165 525 c 2,49,-1
 365 525 l 1,50,-1
 365 865 l 1,51,-1
 145 865 l 2,52,53
 93 865 93 865 93 913 c 1,54,55
 104 953 104 953 145 953 c 2,56,-1
 365 953 l 1,57,-1
 365 1217 l 2,58,59
 365 1269 365 1269 413 1269 c 1,0,1
453 865 m 1,60,-1
 453 525 l 1,61,-1
 881 525 l 1,62,-1
 881 865 l 1,63,-1
 453 865 l 1,60,-1
EndSplineSet
EndChar

StartChar: dollar
Encoding: 36 36 5
Width: 1086
GlyphClass: 1
Flags: W
LayerCount: 2
Fore
SplineSet
549 1836 m 1,0,1
 589 1826 589 1826 589 1784 c 2,2,-1
 589 1488 l 1,3,-1
 637 1488 l 2,4,5
 696 1488 696 1488 853 1400 c 1,6,7
 977 1348 977 1348 977 1296 c 1,8,9
 965 1256 965 1256 929 1256 c 0,10,11
 917 1256 917 1256 853 1304 c 1,12,-1
 741 1356 l 1,13,14
 725 1376 725 1376 621 1400 c 1,15,-1
 589 1400 l 1,16,-1
 589 856 l 1,17,18
 618 834 618 834 677 824 c 1,19,-1
 781 776 l 2,20,21
 832 756 832 756 913 696 c 0,22,23
 1009 620 1009 620 1009 380 c 2,24,-1
 1009 336 l 2,25,26
 1009 236 1009 236 937 144 c 1,27,28
 937 129 937 129 865 52 c 1,29,30
 856 52 856 52 825 28 c 1,31,32
 734 -16 734 -16 685 -28 c 1,33,-1
 657 -32 l 1,34,-1
 589 -32 l 1,35,-1
 589 -360 l 2,36,37
 589 -412 589 -412 541 -412 c 1,38,39
 501 -402 501 -402 501 -360 c 2,40,-1
 501 -32 l 1,41,-1
 429 -32 l 1,42,43
 311 0 311 0 213 60 c 0,44,45
 82 143 82 143 77 196 c 1,46,47
 88 236 88 236 129 236 c 0,48,49
 151 236 151 236 185 192 c 1,50,51
 192 192 192 192 217 164 c 1,52,53
 330 90 330 90 437 56 c 1,54,-1
 501 56 l 1,55,-1
 501 788 l 2,56,57
 501 793 501 793 389 836 c 1,58,59
 261 895 261 895 225 944 c 1,60,61
 166 1012 166 1012 165 1052 c 2,62,-1
 165 1236 l 1,63,64
 172 1296 172 1296 213 1368 c 1,65,66
 319 1487 319 1487 369 1488 c 2,67,-1
 501 1488 l 1,68,-1
 501 1784 l 2,69,70
 501 1836 501 1836 549 1836 c 1,0,1
253 1228 m 1,71,-1
 253 1068 l 2,72,73
 253 1032 253 1032 333 964 c 1,74,75
 443 904 443 904 493 892 c 0,76,77
 493 888 493 888 501 888 c 1,78,-1
 501 1400 l 1,79,-1
 393 1400 l 2,80,81
 366 1400 366 1400 329 1360 c 1,82,83
 285 1327 285 1327 285 1304 c 1,84,85
 272 1304 272 1304 253 1228 c 1,71,-1
589 756 m 1,86,-1
 589 56 l 1,87,-1
 637 56 l 2,88,89
 681 58 681 58 777 104 c 1,90,91
 851 151 851 151 869 204 c 1,92,93
 910 257 910 257 921 320 c 1,94,-1
 921 380 l 2,95,96
 921 531 921 531 873 608 c 1,97,98
 838 647 838 647 745 696 c 0,99,100
 738 696 738 696 641 744 c 1,101,102
 628 744 628 744 589 756 c 1,86,-1
EndSplineSet
EndChar

StartChar: percent
Encoding: 37 37 6
Width: 1496
GlyphClass: 1
Flags: W
LayerCount: 2
Fore
SplineSet
313 1427 m 1,0,1
 328 1419 328 1419 345 1419 c 2,2,-1
 393 1419 l 2,3,4
 565 1419 565 1419 645 1335 c 1,5,6
 725 1239 725 1239 725 1199 c 2,7,-1
 725 1151 l 2,8,9
 725 1111 725 1111 681 991 c 1,10,11
 637 925 637 925 557 883 c 0,12,13
 517 859 517 859 489 859 c 2,14,-1
 405 859 l 2,15,16
 322 859 322 859 185 943 c 1,17,18
 113 1009 113 1009 113 1051 c 2,19,-1
 113 1163 l 2,20,21
 113 1195 113 1195 181 1335 c 1,22,23
 186 1335 186 1335 233 1391 c 1,24,25
 297 1427 297 1427 313 1427 c 1,0,1
1280 1420 m 1,26,27
 1324 1411 1324 1411 1324 1372 c 0,28,29
 1324 1359 1324 1359 1276 1312 c 1,30,31
 1276 1305 1276 1305 1160 1172 c 1,32,33
 1130 1119 1130 1119 1044 1008 c 1,34,35
 924 864 924 864 860 780 c 1,36,37
 786 708 786 708 668 556 c 1,38,39
 646 538 646 538 576 444 c 1,40,-1
 432 284 l 1,41,42
 424 284 424 284 260 104 c 0,43,44
 226 67 226 67 156 8 c 1,45,46
 131 -27 131 -27 88 -48 c 0,47,48
 84 -48 84 -48 76 -52 c 1,49,50
 44 -52 44 -52 32 -8 c 1,51,52
 32 20 32 20 148 116 c 1,53,54
 215 188 215 188 224 188 c 1,55,56
 224 204 224 204 272 244 c 1,57,58
 272 251 272 251 308 284 c 0,59,60
 423 408 423 408 428 408 c 1,61,62
 428 417 428 417 452 436 c 1,63,64
 452 449 452 449 480 468 c 1,65,-1
 592 604 l 1,66,67
 616 624 616 624 748 792 c 1,68,69
 842 886 842 886 1060 1172 c 1,70,71
 1100 1240 1100 1240 1208 1364 c 1,72,73
 1245 1420 1245 1420 1280 1420 c 1,26,27
201 1155 m 1,74,-1
 201 1067 l 2,75,76
 201 1008 201 1008 389 947 c 1,77,-1
 485 947 l 1,78,79
 578 984 578 984 613 1051 c 0,80,81
 613 1059 613 1059 637 1151 c 1,82,-1
 637 1191 l 1,83,84
 590 1278 590 1278 561 1287 c 1,85,86
 506 1331 506 1331 369 1331 c 2,87,-1
 341 1331 l 2,88,89
 332 1331 332 1331 325 1335 c 1,90,91
 271 1319 271 1319 225 1227 c 1,92,93
 225 1217 225 1217 201 1155 c 1,74,-1
1077 620 m 2,94,-1
 1149 620 l 1,95,96
 1224 606 1224 606 1249 596 c 1,97,98
 1280 572 1280 572 1321 528 c 1,99,100
 1389 475 1389 475 1389 432 c 2,101,-1
 1389 428 l 2,102,103
 1389 222 1389 222 1365 168 c 0,104,105
 1327 68 1327 68 1285 40 c 1,106,107
 1234 -15 1234 -15 1169 -28 c 0,108,109
 1162 -32 1162 -32 1149 -32 c 2,110,-1
 1037 -32 l 1,111,112
 865 -14 865 -14 853 24 c 1,113,114
 820 38 820 38 789 96 c 0,115,116
 745 176 745 176 745 200 c 2,117,-1
 745 284 l 1,118,119
 761 370 761 370 797 436 c 1,120,121
 852 514 852 514 885 532 c 0,122,123
 1026 620 1026 620 1077 620 c 2,94,-1
833 260 m 1,124,-1
 833 220 l 1,125,126
 851 155 851 155 901 96 c 1,127,128
 947 60 947 60 1045 60 c 1,129,130
 1045 56 1045 56 1061 56 c 2,131,-1
 1137 56 l 2,132,133
 1212 56 1212 56 1273 180 c 1,134,135
 1301 214 1301 214 1301 400 c 2,136,-1
 1301 420 l 2,137,138
 1301 432 1301 432 1221 504 c 1,139,140
 1221 520 1221 520 1129 532 c 1,141,-1
 1093 532 l 1,142,143
 1011 521 1011 521 917 444 c 0,144,145
 917 440 917 440 869 384 c 1,146,147
 845 336 845 336 833 260 c 1,124,-1
EndSplineSet
EndChar

StartChar: ampersand
Encoding: 38 38 7
Width: 1470
GlyphClass: 1
Flags: W
LayerCount: 2
Fore
SplineSet
465 1480 m 1,0,1
 610 1480 610 1480 697 1440 c 1,2,3
 736 1440 736 1440 829 1384 c 1,4,5
 873 1328 873 1328 873 1296 c 2,6,-1
 873 1292 l 2,7,8
 873 1240 873 1240 825 1240 c 0,9,10
 795 1240 795 1240 781 1296 c 1,11,12
 781 1328 781 1328 613 1376 c 0,13,14
 574 1388 574 1388 477 1392 c 0,15,16
 455 1392 455 1392 357 1340 c 1,17,18
 283 1310 283 1310 245 1252 c 1,19,20
 221 1202 221 1202 213 1140 c 1,21,-1
 213 1062 l 1,22,23
 222 922 222 922 297 868 c 1,24,25
 401 820 401 820 605 820 c 2,26,-1
 1301 820 l 2,27,28
 1353 820 1353 820 1353 772 c 1,29,30
 1342 732 1342 732 1301 732 c 2,31,-1
 1061 732 l 1,32,-1
 1061 536 l 1,33,34
 1075 116 1075 116 1113 116 c 1,35,36
 1131 68 1131 68 1281 68 c 0,37,38
 1419 68 1419 68 1419 24 c 2,39,-1
 1419 16 l 1,40,41
 1408 -24 1408 -24 1367 -24 c 2,42,-1
 1239 -24 l 2,43,44
 1056 -24 1056 -24 1013 116 c 1,45,46
 1003 116 1003 116 993 208 c 1,47,-1
 993 240 l 1,48,-1
 985 240 l 1,49,50
 949 158 949 158 877 84 c 1,51,52
 724 -32 724 -32 613 -32 c 2,53,-1
 445 -32 l 1,54,55
 273 -13 273 -13 273 8 c 1,56,57
 216 33 216 33 153 108 c 0,58,59
 82 195 82 195 77 340 c 1,60,-1
 77 440 l 2,61,62
 77 562 77 562 129 652 c 0,63,64
 175 736 175 736 273 776 c 1,65,-1
 277 776 l 1,66,-1
 277 780 l 1,67,68
 260 780 260 780 193 840 c 1,69,70
 163 861 163 861 144 934 c 128,-1,71
 125 1007 125 1007 125 1054 c 2,72,-1
 125 1156 l 1,73,74
 145 1283 145 1283 217 1360 c 1,75,76
 250 1378 250 1378 293 1408 c 1,77,78
 396 1462 396 1462 465 1480 c 1,0,1
165 416 m 2,79,-1
 165 356 l 2,80,81
 165 224 165 224 257 124 c 1,82,83
 323 64 323 64 409 64 c 1,84,85
 409 56 409 56 457 56 c 2,86,-1
 629 56 l 1,87,88
 706 68 706 68 825 156 c 1,89,90
 875 212 875 212 889 252 c 1,91,92
 920 276 920 276 953 448 c 1,93,94
 963 448 963 448 973 660 c 1,95,-1
 973 732 l 1,96,-1
 465 732 l 2,97,98
 375 732 375 732 273 680 c 1,99,100
 208 632 208 632 193 576 c 1,101,102
 165 544 165 544 165 416 c 2,79,-1
EndSplineSet
EndChar

StartChar: quotesingle
Encoding: 39 39 8
Width: 328
GlyphClass: 1
Flags: W
LayerCount: 2
Fore
SplineSet
168 1504 m 1,0,1
 208 1494 208 1494 208 1452 c 2,2,-1
 208 1072 l 2,3,4
 208 1020 208 1020 160 1020 c 1,5,6
 120 1030 120 1030 120 1072 c 2,7,-1
 120 1452 l 2,8,9
 120 1504 120 1504 168 1504 c 1,0,1
EndSplineSet
EndChar

StartChar: parenleft
Encoding: 40 40 9
Width: 501
GlyphClass: 1
Flags: W
IsExtendedShape: 1
GlyphVariantsVertical: parenleft parenleft.s1 parenleft.s2 parenleft.s3 parenleft.s4 parenleft.s5 parenleft.s6 parenleft.s7
GlyphCompositionVertical: 3  parenleft.btm%0,0,0,2885 parenleft.ext%1,0,0,950 parenleft.top%0,0,0,2890
LayerCount: 2
Fore
SplineSet
442 1324 m 0,0,1
 486 1315 486 1315 486 1276 c 0,2,3
 486 1258 486 1258 446 1228 c 1,4,5
 353 1081 353 1081 326 1052 c 1,6,7
 308 984 308 984 266 924 c 1,8,9
 206 758 206 758 206 700 c 1,10,11
 188 700 188 700 178 416 c 1,12,-1
 178 300 l 2,13,14
 178 203 178 203 214 56 c 1,15,16
 291 -142 291 -142 382 -240 c 1,17,18
 382 -247 382 -247 434 -304 c 0,19,20
 494 -374 494 -374 494 -384 c 2,21,-1
 494 -392 l 1,22,23
 485 -436 485 -436 446 -436 c 1,24,25
 409 -429 409 -429 342 -332 c 1,26,27
 331 -332 331 -332 290 -268 c 1,28,29
 209 -179 209 -179 126 48 c 1,30,31
 90 195 90 195 90 292 c 2,32,-1
 90 416 l 2,33,34
 90 586 90 586 122 744 c 1,35,36
 122 795 122 795 210 1004 c 1,37,38
 216 1006 216 1006 270 1128 c 1,39,40
 283 1128 283 1128 322 1204 c 0,41,42
 327 1205 327 1205 398 1308 c 1,43,44
 430 1324 430 1324 442 1324 c 0,0,1
EndSplineSet
EndChar

StartChar: parenleft.s1
Encoding: 1114113 -1 10
Width: 549
GlyphClass: 1
Flags: W
IsExtendedShape: 1
LayerCount: 2
Fore
SplineSet
442 1684 m 0,0,1
 486 1675 486 1675 486 1636 c 0,2,3
 486 1618 486 1618 446 1588 c 1,4,5
 353 1441 353 1441 326 1412 c 1,6,7
 308 1344 308 1344 266 1284 c 1,8,9
 206 1118 206 1118 206 1060 c 1,10,11
 188 1060 188 1060 178 716 c 1,12,-1
 178 450 l 2,13,14
 178 163 178 163 214 16 c 1,15,16
 291 -182 291 -182 382 -280 c 1,17,18
 382 -287 382 -287 434 -344 c 0,19,20
 494 -414 494 -414 494 -424 c 2,21,-1
 494 -432 l 1,22,23
 485 -476 485 -476 446 -476 c 1,24,25
 409 -469 409 -469 342 -372 c 1,26,27
 331 -372 331 -372 290 -308 c 1,28,29
 209 -219 209 -219 126 8 c 1,30,31
 90 155 90 155 90 442 c 2,32,-1
 90 716 l 2,33,34
 90 946 90 946 122 1104 c 1,35,36
 122 1155 122 1155 210 1364 c 1,37,38
 216 1366 216 1366 270 1488 c 1,39,40
 283 1488 283 1488 322 1564 c 0,41,42
 327 1565 327 1565 398 1668 c 1,43,44
 430 1684 430 1684 442 1684 c 0,0,1
EndSplineSet
EndChar

StartChar: parenleft.s2
Encoding: 1114114 -1 11
Width: 521
GlyphClass: 1
Flags: W
IsExtendedShape: 1
LayerCount: 2
Fore
SplineSet
436 2008 m 0,0,1
 476 1998 476 1998 476 1956 c 0,2,3
 476 1946 476 1946 432 1872 c 1,4,-1
 336 1660 l 1,5,6
 268 1479 268 1479 228 1244 c 1,7,8
 200 1142 200 1142 178 868 c 1,9,10
 180 797 180 797 180 752 c 2,11,-1
 180 500 l 2,12,13
 180 119 180 119 216 -116 c 1,14,15
 218 -189 218 -189 316 -452 c 1,16,17
 373 -591 373 -591 456 -704 c 0,18,19
 468 -726 468 -726 468 -740 c 0,20,21
 459 -784 459 -784 420 -784 c 0,22,23
 390 -784 390 -784 328 -668 c 1,24,25
 287 -624 287 -624 240 -496 c 0,26,27
 128 -210 128 -210 128 -104 c 1,28,29
 113 -68 113 -68 100 196 c 0,30,31
 92 281 92 281 92 512 c 2,32,-1
 92 732 l 2,33,34
 92 792 92 792 90 872 c 1,35,36
 119 1207 119 1207 148 1296 c 1,37,38
 208 1599 208 1599 276 1744 c 0,39,40
 359 1927 359 1927 400 1996 c 1,41,42
 427 2008 427 2008 436 2008 c 0,0,1
EndSplineSet
EndChar

StartChar: parenleft.s3
Encoding: 1114115 -1 12
Width: 621
GlyphClass: 1
Flags: W
IsExtendedShape: 1
LayerCount: 2
Fore
SplineSet
522 2307 m 0,0,1
 562 2296 562 2296 562 2255 c 0,2,3
 562 2245 562 2245 518 2171 c 1,4,-1
 418 1930 l 2,5,6
 302 1650 302 1650 222 1271 c 1,7,8
 194 1169 194 1169 172 895 c 1,9,10
 174 824 174 824 174 779 c 2,11,-1
 174 527 l 2,12,13
 174 146 174 146 227 -254 c 1,14,15
 229 -327 229 -327 386 -729 c 0,16,17
 443 -868 443 -868 536 -995 c 0,18,19
 548 -1017 548 -1017 548 -1031 c 0,20,21
 539 -1075 539 -1075 500 -1075 c 0,22,23
 470 -1075 470 -1075 398 -945 c 1,24,25
 357 -901 357 -901 310 -773 c 1,26,27
 139 -348 139 -348 139 -242 c 1,28,29
 107 -41 107 -41 94 223 c 0,30,31
 86 308 86 308 86 539 c 2,32,-1
 86 759 l 2,33,34
 86 819 86 819 84 899 c 1,35,36
 113 1234 113 1234 142 1323 c 1,37,38
 242 1770 242 1770 358 2014 c 1,39,40
 445 2226 445 2226 486 2295 c 1,41,42
 513 2307 513 2307 522 2307 c 0,0,1
EndSplineSet
EndChar

StartChar: parenleft.s4
Encoding: 1114116 -1 13
Width: 627
GlyphClass: 1
Flags: W
IsExtendedShape: 1
LayerCount: 2
Fore
SplineSet
522 2597 m 0,0,1
 562 2586 562 2586 562 2545 c 0,2,3
 562 2535 562 2535 518 2461 c 1,4,-1
 418 2220 l 2,5,6
 302 1940 302 1940 222 1561 c 1,7,8
 194 1459 194 1459 172 1185 c 1,9,10
 174 1114 174 1114 174 969 c 2,11,-1
 174 427 l 2,12,13
 174 -54 174 -54 227 -454 c 1,14,15
 245 -642 245 -642 402 -1044 c 0,16,17
 459 -1183 459 -1183 552 -1310 c 0,18,19
 564 -1332 564 -1332 564 -1346 c 0,20,21
 555 -1390 555 -1390 516 -1390 c 0,22,23
 486 -1390 486 -1390 414 -1260 c 1,24,25
 373 -1216 373 -1216 326 -1088 c 1,26,27
 155 -663 155 -663 139 -442 c 1,28,29
 107 -241 107 -241 94 23 c 0,30,31
 86 208 86 208 86 439 c 2,32,-1
 86 949 l 2,33,34
 86 1109 86 1109 84 1189 c 1,35,36
 113 1524 113 1524 142 1613 c 1,37,38
 242 2060 242 2060 358 2304 c 1,39,40
 445 2516 445 2516 486 2585 c 1,41,42
 513 2597 513 2597 522 2597 c 0,0,1
EndSplineSet
EndChar

StartChar: parenleft.s5
Encoding: 1114117 -1 14
Width: 641
GlyphClass: 1
Flags: W
IsExtendedShape: 1
LayerCount: 2
Fore
SplineSet
522 2897 m 0,0,1
 562 2886 562 2886 562 2845 c 0,2,3
 562 2835 562 2835 518 2761 c 1,4,-1
 418 2520 l 2,5,6
 302 2240 302 2240 222 1861 c 1,7,8
 194 1759 194 1759 172 1365 c 1,9,10
 174 1264 174 1264 174 1049 c 2,11,-1
 174 427 l 2,12,13
 174 -254 174 -254 227 -654 c 1,14,15
 245 -842 245 -842 433 -1344 c 1,16,17
 490 -1483 490 -1483 583 -1610 c 0,18,19
 595 -1632 595 -1632 595 -1646 c 0,20,21
 586 -1690 586 -1690 547 -1690 c 0,22,23
 517 -1690 517 -1690 445 -1560 c 1,24,25
 404 -1516 404 -1516 357 -1388 c 0,26,27
 155 -863 155 -863 139 -642 c 1,28,29
 107 -441 107 -441 94 -177 c 0,30,31
 86 8 86 8 86 439 c 2,32,-1
 86 1029 l 2,33,34
 86 1259 86 1259 84 1369 c 1,35,36
 113 1824 113 1824 142 1913 c 1,37,38
 242 2360 242 2360 358 2604 c 1,39,40
 445 2816 445 2816 486 2885 c 1,41,42
 513 2897 513 2897 522 2897 c 0,0,1
EndSplineSet
EndChar

StartChar: parenleft.s6
Encoding: 1114118 -1 15
Width: 663
GlyphClass: 1
Flags: W
IsExtendedShape: 1
LayerCount: 2
Fore
SplineSet
522 3197 m 0,0,1
 562 3186 562 3186 562 3145 c 0,2,3
 562 3135 562 3135 518 3061 c 1,4,-1
 418 2820 l 2,5,6
 302 2540 302 2540 222 2161 c 1,7,8
 194 2059 194 2059 172 1665 c 1,9,10
 174 1564 174 1564 174 1349 c 2,11,-1
 174 127 l 2,12,13
 174 -554 174 -554 227 -954 c 1,14,15
 245 -1142 245 -1142 433 -1644 c 1,16,17
 490 -1783 490 -1783 583 -1910 c 0,18,19
 595 -1932 595 -1932 595 -1946 c 0,20,21
 586 -1990 586 -1990 547 -1990 c 0,22,23
 517 -1990 517 -1990 445 -1860 c 1,24,25
 404 -1816 404 -1816 357 -1688 c 0,26,27
 155 -1163 155 -1163 139 -942 c 1,28,29
 107 -741 107 -741 94 -477 c 0,30,31
 86 -292 86 -292 86 139 c 2,32,-1
 86 1329 l 2,33,34
 86 1559 86 1559 84 1669 c 1,35,36
 113 2124 113 2124 142 2213 c 1,37,38
 242 2660 242 2660 358 2904 c 1,39,40
 445 3116 445 3116 486 3185 c 1,41,42
 513 3197 513 3197 522 3197 c 0,0,1
EndSplineSet
EndChar

StartChar: parenleft.s7
Encoding: 1114119 -1 16
Width: 681
GlyphClass: 1
Flags: W
IsExtendedShape: 1
LayerCount: 2
Fore
SplineSet
522 3497 m 0,0,1
 562 3486 562 3486 562 3445 c 0,2,3
 562 3435 562 3435 518 3361 c 1,4,-1
 418 3120 l 2,5,6
 302 2840 302 2840 222 2461 c 1,7,8
 194 2359 194 2359 172 1965 c 1,9,10
 174 1864 174 1864 174 1649 c 2,11,-1
 174 -173 l 2,12,13
 174 -854 174 -854 227 -1254 c 1,14,15
 245 -1442 245 -1442 433 -1944 c 1,16,17
 490 -2083 490 -2083 583 -2210 c 0,18,19
 595 -2232 595 -2232 595 -2246 c 0,20,21
 586 -2290 586 -2290 547 -2290 c 0,22,23
 517 -2290 517 -2290 445 -2160 c 1,24,25
 404 -2116 404 -2116 357 -1988 c 0,26,27
 155 -1463 155 -1463 139 -1242 c 1,28,29
 107 -1041 107 -1041 94 -777 c 0,30,31
 86 -592 86 -592 86 -161 c 2,32,-1
 86 1629 l 2,33,34
 86 1859 86 1859 84 1969 c 1,35,36
 113 2424 113 2424 142 2513 c 1,37,38
 242 2960 242 2960 358 3204 c 1,39,40
 445 3416 445 3416 486 3485 c 1,41,42
 513 3497 513 3497 522 3497 c 0,0,1
EndSplineSet
EndChar

StartChar: parenleft.btm
Encoding: 1114120 -1 17
Width: 627
GlyphClass: 1
Flags: W
LayerCount: 2
Fore
SplineSet
184 2887 m 1,0,-1
 184 1880 l 2,1,2
 184 1807 184 1807 220 1372 c 1,3,4
 260 1109 260 1109 300 928 c 1,5,6
 327 753 327 753 396 532 c 1,7,8
 455 314 455 314 512 180 c 1,9,10
 522 144 522 144 564 44 c 1,11,12
 552 0 552 0 520 0 c 0,13,14
 469 0 469 0 424 168 c 1,15,16
 344 348 344 348 248 744 c 1,17,18
 216 846 216 846 136 1336 c 1,19,20
 96 1775 96 1775 96 1868 c 2,21,-1
 96 2887 l 1,22,-1
 184 2887 l 1,0,-1
EndSplineSet
EndChar

StartChar: parenleft.ext
Encoding: 1114121 -1 18
Width: 627
GlyphClass: 1
Flags: W
LayerCount: 2
Fore
SplineSet
184 0 m 1,0,-1
 184 958 l 1,1,-1
 96 958 l 1,2,-1
 96 0 l 1,3,-1
 184 0 l 1,0,-1
EndSplineSet
EndChar

StartChar: parenleft.top
Encoding: 1114122 -1 19
Width: 627
GlyphClass: 1
Flags: W
LayerCount: 2
Fore
SplineSet
184 0 m 1,0,-1
 184 1010 l 2,1,2
 184 1083 184 1083 220 1518 c 1,3,4
 260 1781 260 1781 300 1962 c 1,5,6
 327 2137 327 2137 396 2358 c 1,7,8
 455 2576 455 2576 512 2710 c 1,9,10
 522 2746 522 2746 564 2846 c 1,11,12
 552 2890 552 2890 520 2890 c 0,13,14
 469 2890 469 2890 424 2722 c 1,15,16
 344 2542 344 2542 248 2146 c 1,17,18
 216 2044 216 2044 136 1554 c 1,19,20
 96 1115 96 1115 96 1022 c 2,21,-1
 96 0 l 1,22,-1
 184 0 l 1,0,-1
EndSplineSet
EndChar

StartChar: parenright
Encoding: 41 41 20
Width: 501
GlyphClass: 1
Flags: W
IsExtendedShape: 1
GlyphVariantsVertical: parenright parenright.s1 parenright.s2 parenright.s3 parenright.s4 parenright.s5 parenright.s6 parenright.s7
GlyphCompositionVertical: 3  parenright.btm%0,0,0,2885 parenright.ext%1,0,0,950 parenright.top%0,0,0,2890
LayerCount: 2
Fore
SplineSet
59 1324 m 0,0,1
 15 1315 15 1315 15 1276 c 0,2,3
 15 1258 15 1258 55 1228 c 1,4,5
 148 1081 148 1081 175 1052 c 1,6,7
 193 984 193 984 235 924 c 1,8,9
 295 758 295 758 295 700 c 1,10,11
 313 700 313 700 323 416 c 1,12,-1
 323 300 l 2,13,14
 323 203 323 203 287 56 c 1,15,16
 210 -142 210 -142 119 -240 c 1,17,18
 119 -247 119 -247 67 -304 c 0,19,20
 7 -374 7 -374 7 -384 c 2,21,-1
 7 -392 l 1,22,23
 16 -436 16 -436 55 -436 c 1,24,25
 92 -429 92 -429 159 -332 c 1,26,27
 170 -332 170 -332 211 -268 c 1,28,29
 292 -179 292 -179 375 48 c 1,30,31
 411 195 411 195 411 292 c 2,32,-1
 411 416 l 2,33,34
 411 586 411 586 379 744 c 1,35,36
 379 795 379 795 291 1004 c 1,37,38
 285 1006 285 1006 231 1128 c 1,39,40
 218 1128 218 1128 179 1204 c 0,41,42
 174 1205 174 1205 103 1308 c 1,43,44
 71 1324 71 1324 59 1324 c 0,0,1
EndSplineSet
EndChar

StartChar: parenright.s1
Encoding: 1114123 -1 21
Width: 501
GlyphClass: 1
Flags: W
IsExtendedShape: 1
LayerCount: 2
Fore
SplineSet
59 1684 m 0,0,1
 15 1675 15 1675 15 1636 c 0,2,3
 15 1618 15 1618 55 1588 c 1,4,5
 148 1441 148 1441 175 1412 c 1,6,7
 193 1344 193 1344 235 1284 c 1,8,9
 295 1118 295 1118 295 1060 c 1,10,11
 313 1060 313 1060 323 716 c 1,12,-1
 323 450 l 2,13,14
 323 163 323 163 287 16 c 1,15,16
 210 -182 210 -182 119 -280 c 1,17,18
 119 -287 119 -287 67 -344 c 0,19,20
 7 -414 7 -414 7 -424 c 2,21,-1
 7 -432 l 1,22,23
 16 -476 16 -476 55 -476 c 1,24,25
 92 -469 92 -469 159 -372 c 1,26,27
 170 -372 170 -372 211 -308 c 1,28,29
 292 -219 292 -219 375 8 c 1,30,31
 411 155 411 155 411 442 c 2,32,-1
 411 716 l 2,33,34
 411 946 411 946 379 1104 c 1,35,36
 379 1155 379 1155 291 1364 c 1,37,38
 285 1366 285 1366 231 1488 c 1,39,40
 218 1488 218 1488 179 1564 c 0,41,42
 174 1565 174 1565 103 1668 c 1,43,44
 71 1684 71 1684 59 1684 c 0,0,1
EndSplineSet
EndChar

StartChar: parenright.s2
Encoding: 1114124 -1 22
Width: 501
GlyphClass: 1
Flags: W
IsExtendedShape: 1
LayerCount: 2
Fore
SplineSet
65 2008 m 0,0,1
 25 1998 25 1998 25 1956 c 0,2,3
 25 1946 25 1946 69 1872 c 1,4,-1
 165 1660 l 1,5,6
 233 1479 233 1479 273 1244 c 1,7,8
 301 1142 301 1142 323 868 c 1,9,10
 321 797 321 797 321 752 c 2,11,-1
 321 500 l 2,12,13
 321 119 321 119 285 -116 c 1,14,15
 283 -189 283 -189 185 -452 c 1,16,17
 128 -591 128 -591 45 -704 c 0,18,19
 33 -726 33 -726 33 -740 c 0,20,21
 42 -784 42 -784 81 -784 c 0,22,23
 111 -784 111 -784 173 -668 c 1,24,25
 214 -624 214 -624 261 -496 c 0,26,27
 373 -210 373 -210 373 -104 c 1,28,29
 388 -68 388 -68 401 196 c 0,30,31
 409 281 409 281 409 512 c 2,32,-1
 409 732 l 2,33,34
 409 792 409 792 411 872 c 1,35,36
 382 1207 382 1207 353 1296 c 1,37,38
 293 1599 293 1599 225 1744 c 0,39,40
 142 1927 142 1927 101 1996 c 1,41,42
 74 2008 74 2008 65 2008 c 0,0,1
EndSplineSet
EndChar

StartChar: parenright.s3
Encoding: 1114125 -1 23
Width: 639
GlyphClass: 1
Flags: W
IsExtendedShape: 1
LayerCount: 2
Fore
SplineSet
117 2307 m 0,0,1
 77 2296 77 2296 77 2255 c 0,2,3
 77 2245 77 2245 121 2171 c 1,4,-1
 221 1930 l 2,5,6
 337 1650 337 1650 417 1271 c 1,7,8
 445 1169 445 1169 467 895 c 1,9,10
 465 824 465 824 465 779 c 2,11,-1
 465 527 l 2,12,13
 465 146 465 146 412 -254 c 1,14,15
 410 -327 410 -327 253 -729 c 0,16,17
 196 -868 196 -868 103 -995 c 0,18,19
 91 -1017 91 -1017 91 -1031 c 0,20,21
 100 -1075 100 -1075 139 -1075 c 0,22,23
 169 -1075 169 -1075 241 -945 c 1,24,25
 282 -901 282 -901 329 -773 c 1,26,27
 500 -348 500 -348 500 -242 c 1,28,29
 532 -41 532 -41 545 223 c 0,30,31
 553 308 553 308 553 539 c 2,32,-1
 553 759 l 2,33,34
 553 819 553 819 555 899 c 1,35,36
 526 1234 526 1234 497 1323 c 1,37,38
 397 1770 397 1770 281 2014 c 1,39,40
 194 2226 194 2226 153 2295 c 1,41,42
 126 2307 126 2307 117 2307 c 0,0,1
EndSplineSet
EndChar

StartChar: parenright.s4
Encoding: 1114126 -1 24
Width: 645
GlyphClass: 1
Flags: W
IsExtendedShape: 1
LayerCount: 2
Fore
SplineSet
123 2597 m 0,0,1
 83 2586 83 2586 83 2545 c 0,2,3
 83 2535 83 2535 127 2461 c 1,4,-1
 227 2220 l 2,5,6
 343 1940 343 1940 423 1561 c 1,7,8
 451 1459 451 1459 473 1185 c 1,9,10
 471 1114 471 1114 471 969 c 2,11,-1
 471 427 l 2,12,13
 471 -54 471 -54 418 -454 c 1,14,15
 400 -642 400 -642 243 -1044 c 0,16,17
 186 -1183 186 -1183 93 -1310 c 0,18,19
 81 -1332 81 -1332 81 -1346 c 0,20,21
 90 -1390 90 -1390 129 -1390 c 0,22,23
 159 -1390 159 -1390 231 -1260 c 1,24,25
 272 -1216 272 -1216 319 -1088 c 1,26,27
 490 -663 490 -663 506 -442 c 1,28,29
 538 -241 538 -241 551 23 c 0,30,31
 559 208 559 208 559 439 c 2,32,-1
 559 949 l 2,33,34
 559 1109 559 1109 561 1189 c 1,35,36
 532 1524 532 1524 503 1613 c 1,37,38
 403 2060 403 2060 287 2304 c 1,39,40
 200 2516 200 2516 159 2585 c 1,41,42
 132 2597 132 2597 123 2597 c 0,0,1
EndSplineSet
EndChar

StartChar: parenright.s5
Encoding: 1114127 -1 25
Width: 639
GlyphClass: 1
Flags: W
IsExtendedShape: 1
LayerCount: 2
Fore
SplineSet
117 2897 m 0,0,1
 77 2886 77 2886 77 2845 c 0,2,3
 77 2835 77 2835 121 2761 c 1,4,-1
 221 2520 l 2,5,6
 337 2240 337 2240 417 1861 c 1,7,8
 445 1759 445 1759 467 1365 c 1,9,10
 465 1264 465 1264 465 1049 c 2,11,-1
 465 427 l 2,12,13
 465 -254 465 -254 412 -654 c 1,14,15
 394 -842 394 -842 206 -1344 c 1,16,17
 149 -1483 149 -1483 56 -1610 c 0,18,19
 44 -1632 44 -1632 44 -1646 c 0,20,21
 53 -1690 53 -1690 92 -1690 c 0,22,23
 122 -1690 122 -1690 194 -1560 c 1,24,25
 235 -1516 235 -1516 282 -1388 c 0,26,27
 484 -863 484 -863 500 -642 c 1,28,29
 532 -441 532 -441 545 -177 c 0,30,31
 553 8 553 8 553 439 c 2,32,-1
 553 1029 l 2,33,34
 553 1259 553 1259 555 1369 c 1,35,36
 526 1824 526 1824 497 1913 c 1,37,38
 397 2360 397 2360 281 2604 c 1,39,40
 194 2816 194 2816 153 2885 c 1,41,42
 126 2897 126 2897 117 2897 c 0,0,1
EndSplineSet
EndChar

StartChar: parenright.s6
Encoding: 1114128 -1 26
Width: 639
GlyphClass: 1
Flags: W
IsExtendedShape: 1
LayerCount: 2
Fore
SplineSet
117 3197 m 0,0,1
 77 3186 77 3186 77 3145 c 0,2,3
 77 3135 77 3135 121 3061 c 1,4,-1
 221 2820 l 2,5,6
 337 2540 337 2540 417 2161 c 1,7,8
 445 2059 445 2059 467 1665 c 1,9,10
 465 1564 465 1564 465 1349 c 2,11,-1
 465 127 l 2,12,13
 465 -554 465 -554 412 -954 c 1,14,15
 394 -1142 394 -1142 206 -1644 c 1,16,17
 149 -1783 149 -1783 56 -1910 c 0,18,19
 44 -1932 44 -1932 44 -1946 c 0,20,21
 53 -1990 53 -1990 92 -1990 c 0,22,23
 122 -1990 122 -1990 194 -1860 c 1,24,25
 235 -1816 235 -1816 282 -1688 c 0,26,27
 484 -1163 484 -1163 500 -942 c 1,28,29
 532 -741 532 -741 545 -477 c 0,30,31
 553 -292 553 -292 553 139 c 2,32,-1
 553 1329 l 2,33,34
 553 1559 553 1559 555 1669 c 1,35,36
 526 2124 526 2124 497 2213 c 1,37,38
 397 2660 397 2660 281 2904 c 1,39,40
 194 3116 194 3116 153 3185 c 1,41,42
 126 3197 126 3197 117 3197 c 0,0,1
EndSplineSet
EndChar

StartChar: parenright.s7
Encoding: 1114129 -1 27
Width: 645
GlyphClass: 1
Flags: W
IsExtendedShape: 1
LayerCount: 2
Fore
SplineSet
123 3497 m 0,0,1
 83 3486 83 3486 83 3445 c 0,2,3
 83 3435 83 3435 127 3361 c 1,4,-1
 227 3120 l 2,5,6
 343 2840 343 2840 423 2461 c 1,7,8
 451 2359 451 2359 473 1965 c 1,9,10
 471 1864 471 1864 471 1649 c 2,11,-1
 471 -173 l 2,12,13
 471 -854 471 -854 418 -1254 c 1,14,15
 400 -1442 400 -1442 212 -1944 c 1,16,17
 155 -2083 155 -2083 62 -2210 c 0,18,19
 50 -2232 50 -2232 50 -2246 c 0,20,21
 59 -2290 59 -2290 98 -2290 c 0,22,23
 128 -2290 128 -2290 200 -2160 c 1,24,25
 241 -2116 241 -2116 288 -1988 c 0,26,27
 490 -1463 490 -1463 506 -1242 c 1,28,29
 538 -1041 538 -1041 551 -777 c 0,30,31
 559 -592 559 -592 559 -161 c 2,32,-1
 559 1629 l 2,33,34
 559 1859 559 1859 561 1969 c 1,35,36
 532 2424 532 2424 503 2513 c 1,37,38
 403 2960 403 2960 287 3204 c 1,39,40
 200 3416 200 3416 159 3485 c 1,41,42
 132 3497 132 3497 123 3497 c 0,0,1
EndSplineSet
EndChar

StartChar: parenright.btm
Encoding: 1114130 -1 28
Width: 627
GlyphClass: 1
Flags: W
LayerCount: 2
Fore
SplineSet
455 2887 m 1,0,-1
 455 1880 l 2,1,2
 455 1807 455 1807 419 1372 c 1,3,4
 379 1109 379 1109 339 928 c 1,5,6
 312 753 312 753 243 532 c 1,7,8
 184 314 184 314 127 180 c 0,9,10
 116 144 116 144 75 44 c 1,11,12
 87 0 87 0 119 0 c 0,13,14
 170 0 170 0 215 168 c 1,15,16
 295 348 295 348 391 744 c 1,17,18
 423 846 423 846 503 1336 c 1,19,20
 543 1775 543 1775 543 1868 c 2,21,-1
 543 2887 l 1,22,-1
 455 2887 l 1,0,-1
EndSplineSet
EndChar

StartChar: parenright.ext
Encoding: 1114131 -1 29
Width: 627
GlyphClass: 1
Flags: W
LayerCount: 2
Fore
SplineSet
443 0 m 1,0,-1
 443 958 l 1,1,-1
 531 958 l 1,2,-1
 531 0 l 1,3,-1
 443 0 l 1,0,-1
EndSplineSet
EndChar

StartChar: parenright.top
Encoding: 1114132 -1 30
Width: 627
GlyphClass: 1
Flags: W
LayerCount: 2
Fore
SplineSet
443 0 m 1,0,-1
 443 1010 l 2,1,2
 443 1083 443 1083 407 1518 c 1,3,4
 367 1781 367 1781 327 1962 c 1,5,6
 300 2137 300 2137 231 2358 c 1,7,8
 172 2576 172 2576 115 2710 c 0,9,10
 104 2746 104 2746 63 2846 c 1,11,12
 75 2890 75 2890 107 2890 c 0,13,14
 158 2890 158 2890 203 2722 c 1,15,16
 283 2542 283 2542 379 2146 c 1,17,18
 411 2044 411 2044 491 1554 c 1,19,20
 531 1115 531 1115 531 1022 c 2,21,-1
 531 0 l 1,22,-1
 443 0 l 1,0,-1
EndSplineSet
EndChar

StartChar: asterisk
Encoding: 42 42 31
Width: 893
GlyphClass: 1
Flags: W
LayerCount: 2
Fore
SplineSet
468 1519 m 1,0,1
 508 1508 508 1508 508 1467 c 2,2,-1
 508 1167 l 1,3,4
 617 1201 617 1201 692 1243 c 0,5,6
 733 1263 733 1263 764 1263 c 1,7,8
 808 1254 808 1254 808 1215 c 0,9,10
 808 1183 808 1183 740 1167 c 1,11,12
 588 1095 588 1095 556 1095 c 1,13,14
 656 1018 656 1018 664 999 c 1,15,16
 680 999 680 999 760 903 c 1,17,-1
 764 883 l 1,18,19
 754 843 754 843 712 843 c 0,20,21
 691 843 691 843 652 887 c 0,22,23
 609 935 609 935 600 935 c 1,24,25
 587 960 587 960 532 995 c 1,26,27
 469 1047 469 1047 456 1047 c 1,28,-1
 448 1051 l 1,29,30
 448 1044 448 1044 348 963 c 1,31,32
 341 945 341 945 232 859 c 1,33,34
 205 847 205 847 196 847 c 0,35,36
 152 856 152 856 152 895 c 0,37,38
 152 917 152 917 220 959 c 1,39,40
 243 992 243 992 280 1011 c 1,41,42
 280 1018 280 1018 376 1103 c 1,43,-1
 376 1107 l 1,44,-1
 244 1147 l 1,45,46
 188 1175 188 1175 140 1187 c 1,47,48
 96 1213 96 1213 96 1243 c 1,49,50
 111 1283 111 1283 140 1283 c 1,51,52
 221 1257 221 1257 316 1215 c 1,53,54
 348 1215 348 1215 420 1183 c 1,55,-1
 420 1467 l 2,56,57
 420 1519 420 1519 468 1519 c 1,0,1
EndSplineSet
EndChar

StartChar: plus
Encoding: 43 43 32
Width: 1014
GlyphClass: 1
Flags: W
LayerCount: 2
Fore
SplineSet
528 902 m 1,0,1
 568 886 568 886 568 862 c 0,2,3
 572 685 572 685 572 586 c 2,4,-1
 572 510 l 1,5,-1
 836 510 l 2,6,7
 960 510 960 510 960 450 c 1,8,9
 950 410 950 410 908 410 c 0,10,11
 904 410 904 410 852 422 c 1,12,-1
 572 422 l 1,13,-1
 572 110 l 1,14,-1
 580 62 l 1,15,16
 571 18 571 18 532 18 c 1,17,18
 484 37 484 37 484 82 c 2,19,-1
 484 422 l 1,20,-1
 124 422 l 2,21,22
 71 422 71 422 64 474 c 1,23,24
 70 500 70 500 100 514 c 1,25,-1
 140 510 l 1,26,-1
 484 510 l 1,27,-1
 484 586 l 2,28,29
 484 685 484 685 480 862 c 1,30,31
 492 902 492 902 528 902 c 1,0,1
EndSplineSet
EndChar

StartChar: comma
Encoding: 44 44 33
Width: 403
GlyphClass: 1
Flags: W
LayerCount: 2
Fore
SplineSet
196 88 m 0,0,1
 244 88 244 88 272 -16 c 1,2,-1
 272 -40 l 2,3,4
 272 -70 272 -70 240 -152 c 1,5,6
 240 -180 240 -180 140 -316 c 1,7,-1
 108 -328 l 1,8,9
 76 -328 76 -328 64 -284 c 0,10,11
 64 -272 64 -272 152 -140 c 1,12,13
 184 -53 184 -53 184 -20 c 1,14,15
 148 26 148 26 148 48 c 1,16,17
 160 88 160 88 196 88 c 0,0,1
EndSplineSet
EndChar

StartChar: hyphenminus
Encoding: 45 45 34
AltUni2: 0000ad.ffffffff.0 0000ad.ffffffff.0
Width: 672
GlyphClass: 1
Flags: W
LayerCount: 2
Fore
SplineSet
102 524 m 2,0,-1
 570 524 l 2,1,2
 622 524 622 524 622 476 c 1,3,4
 612 436 612 436 570 436 c 2,5,-1
 102 436 l 2,6,7
 50 436 50 436 50 484 c 1,8,9
 60 524 60 524 102 524 c 2,0,-1
EndSplineSet
EndChar

StartChar: period
Encoding: 46 46 35
Width: 368
GlyphClass: 1
Flags: W
LayerCount: 2
Fore
SplineSet
172 116 m 2,0,-1
 188 116 l 2,1,2
 248 116 248 116 248 60 c 2,3,-1
 248 48 l 1,4,5
 235 -20 235 -20 192 -20 c 2,6,-1
 176 -20 l 2,7,8
 120 -20 120 -20 120 36 c 2,9,-1
 120 64 l 2,10,11
 120 116 120 116 172 116 c 2,0,-1
EndSplineSet
EndChar

StartChar: slash
Encoding: 47 47 36
Width: 781
GlyphClass: 1
Flags: W
LayerCount: 2
Fore
SplineSet
707 1700 m 1,0,1
 755 1688 755 1688 755 1640 c 1,2,3
 699 1503 699 1503 643 1300 c 1,4,-1
 535 974 l 2,5,6
 535 962 535 962 435 646 c 1,7,8
 423 583 423 583 312 253 c 0,9,10
 312 245 312 245 252 45 c 1,11,12
 252 8 252 8 204 -119 c 1,13,14
 176 -225 176 -225 164 -255 c 0,15,16
 112 -418 112 -418 100 -439 c 1,17,18
 76 -455 76 -455 60 -455 c 1,19,20
 20 -444 20 -444 20 -403 c 1,21,22
 56 -287 56 -287 88 -207 c 1,23,24
 108 -144 108 -144 120 -83 c 1,25,26
 134 -83 134 -83 176 97 c 1,27,-1
 288 465 l 2,28,29
 288 477 288 477 367 722 c 0,30,31
 459 1003 459 1003 459 1022 c 1,32,33
 475 1044 475 1044 623 1532 c 1,34,35
 659 1628 659 1628 659 1660 c 1,36,37
 671 1700 671 1700 707 1700 c 1,0,1
EndSplineSet
EndChar

StartChar: zero
Encoding: 48 48 37
Width: 1208
GlyphClass: 1
Flags: W
TopAccentHorizontal: 604
LayerCount: 2
Fore
SplineSet
574 1484 m 2,0,-1
 646 1484 l 2,1,2
 693 1484 693 1484 838 1420 c 1,3,4
 914 1353 914 1353 938 1308 c 1,5,6
 1012 1201 1012 1201 1098 944 c 0,7,8
 1118 875 1118 875 1118 824 c 2,9,-1
 1118 604 l 2,10,11
 1118 410 1118 410 1022 188 c 1,12,13
 977 118 977 118 910 52 c 1,14,15
 802 -32 802 -32 718 -32 c 2,16,-1
 710 -32 l 2,17,18
 463 -32 463 -32 354 64 c 1,19,20
 195 155 195 155 130 320 c 1,21,22
 90 439 90 439 90 452 c 2,23,-1
 90 724 l 2,24,25
 90 916 90 916 122 1032 c 1,26,27
 122 1066 122 1066 194 1240 c 1,28,29
 251 1330 251 1330 290 1368 c 0,30,31
 402 1484 402 1484 574 1484 c 2,0,-1
178 724 m 2,32,-1
 178 460 l 1,33,34
 214 319 214 319 274 248 c 1,35,36
 316 190 316 190 398 140 c 1,37,38
 503 68 503 68 574 68 c 1,39,40
 640 56 640 56 710 56 c 0,41,42
 761 56 761 56 826 100 c 0,43,44
 929 174 929 174 978 316 c 0,45,46
 1030 478 1030 478 1030 612 c 2,47,-1
 1030 808 l 2,48,49
 1030 944 1030 944 874 1248 c 1,50,51
 791 1360 791 1360 746 1360 c 1,52,53
 667 1396 667 1396 638 1396 c 2,54,-1
 618 1396 l 2,55,56
 466 1396 466 1396 398 1344 c 0,57,58
 342 1305 342 1305 290 1224 c 0,59,60
 270 1199 270 1199 250 1140 c 1,61,62
 178 984 178 984 178 724 c 2,32,-1
EndSplineSet
EndChar

StartChar: one
Encoding: 49 49 38
Width: 1035
GlyphClass: 1
Flags: W
TopAccentHorizontal: 518
LayerCount: 2
Fore
SplineSet
572 1500 m 1,0,1
 616 1492 616 1492 616 1456 c 2,2,-1
 616 88 l 1,3,-1
 964 88 l 2,4,5
 1016 88 1016 88 1016 40 c 1,6,7
 1006 0 1006 0 964 0 c 2,8,-1
 72 0 l 2,9,10
 20 0 20 0 20 48 c 1,11,12
 30 88 30 88 72 88 c 2,13,-1
 528 88 l 1,14,-1
 528 1368 l 1,15,16
 521 1358 521 1358 440 1308 c 1,17,-1
 284 1172 l 1,18,19
 194 1088 194 1088 128 1048 c 1,20,21
 128 1039 128 1039 100 1036 c 1,22,23
 56 1045 56 1045 56 1084 c 1,24,25
 67 1124 67 1124 132 1156 c 1,26,-1
 376 1372 l 1,27,28
 439 1411 439 1411 500 1460 c 0,29,30
 547 1500 547 1500 572 1500 c 1,0,1
EndSplineSet
EndChar

StartChar: two
Encoding: 50 50 39
Width: 1048
GlyphClass: 1
Flags: W
TopAccentHorizontal: 524
LayerCount: 2
Fore
SplineSet
544 1496 m 2,0,-1
 640 1496 l 2,1,2
 740 1496 740 1496 860 1396 c 1,3,4
 936 1294 936 1294 936 1168 c 1,5,6
 944 1153 944 1153 944 1136 c 2,7,-1
 944 1052 l 1,8,9
 925 939 925 939 884 884 c 1,10,11
 853 821 853 821 808 772 c 1,12,13
 800 744 800 744 720 640 c 1,14,-1
 672 572 l 1,15,16
 652 556 652 556 628 512 c 1,17,18
 594 484 594 484 560 432 c 1,19,20
 477 345 477 345 392 236 c 1,21,22
 359 211 359 211 240 88 c 1,23,-1
 936 88 l 2,24,25
 988 88 988 88 988 40 c 1,26,27
 978 0 978 0 936 0 c 2,28,-1
 112 0 l 2,29,30
 60 0 60 0 60 48 c 0,31,32
 60 78 60 78 116 92 c 1,33,34
 116 97 116 97 224 196 c 1,35,36
 224 204 224 204 292 264 c 1,37,38
 292 272 292 272 340 308 c 1,39,40
 340 324 340 324 392 372 c 1,41,42
 392 389 392 389 436 424 c 1,43,44
 544 552 544 552 544 556 c 1,45,46
 549 556 549 556 596 624 c 1,47,48
 602 625 602 625 684 740 c 1,49,50
 748 840 748 840 788 888 c 1,51,52
 856 1010 856 1010 856 1076 c 2,53,-1
 856 1124 l 1,54,55
 833 1308 833 1308 808 1308 c 1,56,57
 808 1347 808 1347 672 1404 c 1,58,59
 646 1408 646 1408 620 1408 c 2,60,-1
 540 1408 l 2,61,62
 365 1408 365 1408 268 1292 c 0,63,64
 188 1191 188 1191 188 1120 c 1,65,66
 181 1120 181 1120 180 1068 c 1,67,-1
 184 1040 l 1,68,69
 172 1000 172 1000 136 1000 c 1,70,71
 92 1007 92 1007 92 1052 c 2,72,-1
 92 1072 l 2,73,74
 92 1174 92 1174 156 1292 c 1,75,76
 221 1383 221 1383 276 1420 c 0,77,78
 376 1480 376 1480 408 1480 c 1,79,80
 463 1496 463 1496 544 1496 c 2,0,-1
EndSplineSet
EndChar

StartChar: three
Encoding: 51 51 40
Width: 1047
GlyphClass: 1
Flags: W
TopAccentHorizontal: 496
LayerCount: 2
Fore
SplineSet
446 1492 m 2,0,-1
 522 1492 l 2,1,2
 668 1492 668 1492 766 1404 c 1,3,4
 880 1277 880 1277 894 1176 c 1,5,-1
 894 1112 l 2,6,7
 894 1065 894 1065 810 964 c 1,8,9
 802 964 802 964 750 904 c 1,10,11
 631 845 631 845 614 840 c 1,12,-1
 614 836 l 1,13,14
 718 790 718 790 718 784 c 1,15,16
 868 705 868 705 934 516 c 1,17,18
 962 423 962 423 962 376 c 2,19,-1
 962 348 l 2,20,21
 962 232 962 232 918 188 c 1,22,23
 839 61 839 61 702 8 c 1,24,25
 684 -11 684 -11 578 -32 c 0,26,27
 540 -36 540 -36 494 -36 c 2,28,-1
 454 -36 l 2,29,30
 337 -36 337 -36 234 12 c 1,31,32
 138 64 138 64 82 128 c 1,33,34
 30 225 30 225 30 252 c 1,35,36
 39 296 39 296 78 296 c 0,37,38
 116 296 116 296 138 204 c 1,39,40
 183 139 183 139 278 88 c 1,41,42
 369 52 369 52 438 52 c 2,43,-1
 482 52 l 2,44,45
 642 52 642 52 746 132 c 1,46,47
 809 175 809 175 842 232 c 1,48,49
 874 266 874 266 874 324 c 2,50,-1
 874 364 l 2,51,52
 874 474 874 474 790 612 c 1,53,54
 782 612 782 612 758 648 c 1,55,-1
 730 668 l 1,56,57
 654 728 654 728 630 728 c 1,58,59
 582 768 582 768 482 768 c 1,60,61
 338 776 338 776 338 796 c 1,62,63
 330 810 330 810 330 832 c 0,64,65
 330 871 330 871 470 884 c 1,66,67
 618 925 618 925 690 976 c 1,68,69
 703 976 703 976 722 1004 c 1,70,71
 798 1076 798 1076 806 1124 c 1,72,-1
 806 1164 l 2,73,74
 806 1224 806 1224 694 1352 c 1,75,76
 617 1396 617 1396 598 1396 c 0,77,78
 548 1404 548 1404 514 1404 c 2,79,-1
 446 1404 l 1,80,81
 355 1394 355 1394 334 1384 c 0,82,83
 248 1348 248 1348 218 1288 c 1,84,85
 179 1151 179 1151 162 1132 c 1,86,87
 145 1120 145 1120 130 1120 c 0,88,89
 90 1130 90 1130 90 1172 c 1,90,91
 138 1353 138 1353 182 1392 c 0,92,93
 286 1488 286 1488 422 1488 c 1,94,95
 422 1492 422 1492 446 1492 c 2,0,-1
EndSplineSet
EndChar

StartChar: four
Encoding: 52 52 41
Width: 1030
GlyphClass: 1
Flags: W
TopAccentHorizontal: 515
LayerCount: 2
Fore
SplineSet
758 1496 m 0,0,1
 783 1496 783 1496 802 1460 c 1,2,-1
 798 1420 l 1,3,-1
 798 548 l 1,4,-1
 852 548 l 2,5,6
 1008 548 1008 548 1008 524 c 1,7,8
 1020 507 1020 507 1020 492 c 1,9,10
 1004 452 1004 452 980 452 c 0,11,12
 906 460 906 460 848 460 c 2,13,-1
 798 460 l 1,14,-1
 798 24 l 2,15,16
 798 -29 798 -29 746 -36 c 1,17,18
 720 -30 720 -30 706 0 c 1,19,-1
 710 48 l 1,20,-1
 710 460 l 1,21,-1
 598 460 l 2,22,23
 453 460 453 460 70 472 c 1,24,-1
 62 472 l 2,25,26
 10 472 10 472 10 520 c 0,27,28
 10 542 10 542 54 592 c 0,29,30
 54 598 54 598 118 676 c 0,31,32
 118 682 118 682 170 736 c 1,33,34
 208 794 208 794 270 872 c 2,35,-1
 486 1160 l 1,36,37
 536 1234 536 1234 562 1264 c 1,38,39
 562 1271 562 1271 650 1388 c 1,40,41
 721 1496 721 1496 758 1496 c 0,0,1
706 1320 m 1,42,43
 706 1315 706 1315 630 1212 c 0,44,45
 491 1017 491 1017 450 972 c 1,46,47
 386 872 386 872 298 764 c 1,48,49
 225 663 225 663 202 644 c 1,50,51
 162 585 162 585 146 568 c 1,52,-1
 142 560 l 1,53,-1
 146 560 l 1,54,55
 390 548 390 548 590 548 c 2,56,-1
 710 548 l 1,57,-1
 710 1320 l 1,58,-1
 706 1320 l 1,42,43
EndSplineSet
EndChar

StartChar: five
Encoding: 53 53 42
Width: 1075
GlyphClass: 1
Flags: W
TopAccentHorizontal: 499
LayerCount: 2
Fore
SplineSet
677 1440 m 2,0,-1
 861 1440 l 2,1,2
 913 1440 913 1440 913 1392 c 1,3,4
 902 1352 902 1352 861 1352 c 2,5,-1
 629 1352 l 2,6,7
 478 1352 478 1352 229 1348 c 1,8,-1
 229 924 l 1,9,-1
 233 924 l 1,10,11
 334 980 334 980 401 980 c 1,12,13
 409 990 409 990 453 992 c 2,14,-1
 545 992 l 1,15,16
 629 987 629 987 709 944 c 1,17,18
 780 898 780 898 849 840 c 1,19,20
 943 743 943 743 969 644 c 2,21,-1
 985 576 l 1,22,-1
 985 448 l 2,23,24
 985 307 985 307 909 204 c 1,25,26
 869 119 869 119 757 24 c 1,27,28
 650 -40 650 -40 533 -40 c 2,29,-1
 465 -40 l 2,30,31
 358 -40 358 -40 301 -16 c 1,32,33
 116 44 116 44 85 120 c 1,34,35
 35 169 35 169 13 272 c 1,36,-1
 13 276 l 1,37,38
 22 320 22 320 61 320 c 0,39,40
 94 320 94 320 125 212 c 1,41,42
 192 119 192 119 217 116 c 1,43,44
 260 89 260 89 329 72 c 1,45,46
 358 48 358 48 473 48 c 2,47,-1
 497 48 l 2,48,49
 720 48 720 48 793 196 c 1,50,51
 819 208 819 208 837 256 c 1,52,53
 875 290 875 290 897 412 c 1,54,-1
 897 556 l 1,55,56
 871 690 871 690 817 744 c 0,57,58
 706 852 706 852 645 876 c 0,59,60
 578 904 578 904 533 904 c 2,61,-1
 469 904 l 1,62,63
 325 885 325 885 257 836 c 1,64,65
 229 836 229 836 205 804 c 0,66,67
 202 804 202 804 181 800 c 1,68,69
 141 810 141 810 141 852 c 2,70,-1
 141 1324 l 2,71,72
 141 1356 141 1356 133 1396 c 1,73,74
 133 1420 133 1420 173 1436 c 1,75,76
 493 1440 493 1440 677 1440 c 2,0,-1
EndSplineSet
EndChar

StartChar: six
Encoding: 54 54 43
Width: 1200
GlyphClass: 1
Flags: W
TopAccentHorizontal: 600
LayerCount: 2
Fore
SplineSet
904 1484 m 1,0,1
 948 1475 948 1475 948 1436 c 0,2,3
 948 1398 948 1398 816 1368 c 1,4,5
 609 1301 609 1301 504 1220 c 1,6,7
 372 1133 372 1133 296 1020 c 1,8,9
 238 944 238 944 216 868 c 0,10,11
 188 780 188 780 188 736 c 1,12,13
 176 692 176 692 168 608 c 1,14,-1
 168 432 l 2,15,16
 168 379 168 379 200 284 c 1,17,18
 265 135 265 135 372 96 c 0,19,20
 512 44 512 44 580 44 c 2,21,-1
 704 44 l 2,22,23
 772 44 772 44 876 96 c 0,24,25
 957 138 957 138 984 212 c 1,26,27
 1032 315 1032 315 1032 380 c 2,28,-1
 1032 504 l 1,29,30
 1022 632 1022 632 932 784 c 1,31,32
 891 828 891 828 864 848 c 1,33,34
 864 865 864 865 768 896 c 1,35,-1
 744 900 l 1,36,-1
 652 900 l 2,37,38
 574 900 574 900 452 852 c 1,39,40
 367 811 367 811 300 764 c 0,41,42
 293 760 293 760 284 760 c 0,43,44
 240 769 240 769 240 808 c 0,45,46
 240 855 240 855 416 928 c 1,47,48
 416 939 416 939 536 972 c 1,49,50
 617 988 617 988 632 988 c 2,51,-1
 740 988 l 2,52,53
 891 988 891 988 1024 808 c 1,54,55
 1120 611 1120 611 1120 516 c 2,56,-1
 1120 360 l 1,57,58
 1099 202 1099 202 1004 76 c 1,59,60
 908 -4 908 -4 772 -36 c 1,61,-1
 724 -44 l 1,62,-1
 560 -44 l 1,63,64
 398 -21 398 -21 296 36 c 0,65,66
 163 109 163 109 104 296 c 1,67,68
 80 388 80 388 80 400 c 2,69,-1
 80 632 l 1,70,71
 115 906 115 906 188 1020 c 1,72,73
 267 1135 267 1135 280 1144 c 0,74,75
 343 1215 343 1215 424 1272 c 2,76,-1
 516 1336 l 1,77,78
 697 1428 697 1428 788 1448 c 1,79,80
 879 1484 879 1484 904 1484 c 1,0,1
EndSplineSet
EndChar

StartChar: seven
Encoding: 55 55 44
Width: 984
GlyphClass: 1
Flags: W
TopAccentHorizontal: 488
LayerCount: 2
Fore
SplineSet
66 1440 m 2,0,-1
 918 1440 l 1,1,2
 962 1432 962 1432 962 1396 c 0,3,4
 962 1356 962 1356 822 932 c 1,5,6
 801 902 801 902 766 772 c 1,7,8
 756 764 756 764 742 704 c 1,9,10
 718 675 718 675 718 632 c 1,11,12
 711 631 711 631 646 448 c 0,13,14
 606 335 606 335 554 208 c 1,15,-1
 494 48 l 1,16,17
 469 -48 469 -48 426 -48 c 0,18,19
 394 -48 394 -48 382 -4 c 1,20,21
 414 92 414 92 466 216 c 1,22,23
 466 235 466 235 534 396 c 0,24,25
 534 405 534 405 626 644 c 1,26,27
 642 700 642 700 686 812 c 1,28,29
 714 901 714 901 742 972 c 0,30,31
 802 1150 802 1150 862 1352 c 1,32,-1
 66 1352 l 2,33,34
 14 1352 14 1352 14 1400 c 1,35,36
 24 1440 24 1440 66 1440 c 2,0,-1
EndSplineSet
EndChar

StartChar: eight
Encoding: 56 56 45
Width: 1160
GlyphClass: 1
Flags: W
TopAccentHorizontal: 580
LayerCount: 2
Fore
SplineSet
570 1484 m 2,0,-1
 594 1484 l 2,1,2
 630 1484 630 1484 758 1444 c 1,3,4
 850 1404 850 1404 874 1360 c 1,5,6
 901 1360 901 1360 942 1224 c 0,7,8
 946 1210 946 1210 946 1180 c 2,9,-1
 946 1056 l 2,10,11
 946 994 946 994 890 900 c 1,12,-1
 810 840 l 1,13,14
 885 807 885 807 958 732 c 1,15,16
 1070 581 1070 581 1070 432 c 2,17,-1
 1070 368 l 2,18,19
 1070 311 1070 311 1014 208 c 0,20,21
 976 138 976 138 906 76 c 0,22,23
 885 53 885 53 826 28 c 1,24,25
 786 -8 786 -8 610 -28 c 0,26,27
 610 -32 610 -32 570 -32 c 2,28,-1
 486 -32 l 2,29,30
 404 -32 404 -32 294 44 c 1,31,32
 142 124 142 124 106 232 c 1,33,-1
 90 324 l 1,34,-1
 90 516 l 2,35,36
 90 553 90 553 158 676 c 1,37,-1
 222 748 l 1,38,39
 276 792 276 792 342 816 c 0,40,41
 342 820 342 820 274 860 c 1,42,43
 210 913 210 913 174 996 c 1,44,45
 158 1020 158 1020 158 1068 c 2,46,-1
 158 1168 l 1,47,48
 171 1261 171 1261 262 1364 c 0,49,50
 363 1480 363 1480 482 1480 c 1,51,52
 500 1484 500 1484 570 1484 c 2,0,-1
246 1152 m 1,53,-1
 246 1076 l 2,54,55
 246 1029 246 1029 298 960 c 1,56,57
 336 918 336 918 374 908 c 1,58,59
 374 893 374 893 458 876 c 0,60,61
 472 872 472 872 502 872 c 2,62,-1
 518 872 l 1,63,64
 635 886 635 886 690 896 c 1,65,66
 802 928 802 928 826 968 c 0,67,68
 858 1025 858 1025 858 1068 c 2,69,-1
 858 1172 l 2,70,71
 858 1282 858 1282 754 1348 c 1,72,73
 628 1396 628 1396 582 1396 c 0,74,75
 410 1396 410 1396 386 1356 c 1,76,77
 264 1262 264 1262 246 1152 c 1,53,-1
470 776 m 1,78,79
 314 714 314 714 274 676 c 1,80,81
 218 611 218 611 202 564 c 1,82,83
 178 528 178 528 178 504 c 2,84,-1
 178 344 l 2,85,86
 178 268 178 268 222 204 c 1,87,88
 273 157 273 157 374 100 c 1,89,90
 399 72 399 72 486 56 c 1,91,-1
 566 56 l 1,92,93
 790 84 790 84 790 108 c 1,94,95
 855 136 855 136 886 184 c 1,96,97
 930 229 930 229 950 280 c 1,98,99
 982 329 982 329 982 384 c 2,100,-1
 982 440 l 2,101,102
 982 546 982 546 890 672 c 1,103,104
 796 780 796 780 666 780 c 0,105,106
 619 780 619 780 470 776 c 1,78,79
EndSplineSet
EndChar

StartChar: nine
Encoding: 57 57 46
Width: 1148
GlyphClass: 1
Flags: W
TopAccentHorizontal: 574
LayerCount: 2
Fore
SplineSet
500 1488 m 1,0,-1
 656 1488 l 2,1,2
 726 1488 726 1488 868 1388 c 1,3,4
 975 1294 975 1294 988 1228 c 1,5,6
 1008 1206 1008 1206 1032 1116 c 1,7,8
 1045 1116 1045 1116 1068 888 c 1,9,-1
 1068 736 l 2,10,11
 1068 665 1068 665 992 492 c 1,12,13
 937 393 937 393 856 300 c 1,14,15
 694 131 694 131 612 96 c 1,16,17
 581 63 581 63 484 16 c 0,18,19
 355 -44 355 -44 332 -48 c 1,20,21
 292 -36 292 -36 292 0 c 0,22,23
 292 40 292 40 404 76 c 1,24,25
 516 123 516 123 692 260 c 1,26,27
 854 414 854 414 892 500 c 1,28,29
 924 533 924 533 972 692 c 0,30,31
 980 728 980 728 980 744 c 2,32,-1
 980 888 l 1,33,34
 954 1124 954 1124 936 1124 c 1,35,36
 884 1280 884 1280 800 1328 c 1,37,38
 690 1400 690 1400 640 1400 c 2,39,-1
 516 1400 l 1,40,41
 417 1390 417 1390 332 1328 c 1,42,43
 211 1216 211 1216 208 1168 c 1,44,45
 195 1168 195 1168 168 1032 c 1,46,-1
 168 1012 l 2,47,48
 168 824 168 824 224 772 c 1,49,50
 300 691 300 691 376 676 c 1,51,52
 416 660 416 660 484 648 c 1,53,-1
 558 648 l 2,54,55
 667 648 667 648 838 740 c 1,56,-1
 846 740 l 1,57,58
 886 728 886 728 886 692 c 256,59,60
 886 656 886 656 786 616 c 0,61,62
 655 560 655 560 566 560 c 2,63,-1
 468 560 l 1,64,65
 277 596 277 596 180 688 c 0,66,67
 80 787 80 787 80 964 c 2,68,-1
 80 1048 l 1,69,70
 108 1187 108 1187 140 1240 c 0,71,72
 168 1292 168 1292 256 1380 c 1,73,74
 314 1430 314 1430 408 1468 c 1,75,-1
 500 1488 l 1,0,-1
EndSplineSet
EndChar

StartChar: colon
Encoding: 58 58 47
Width: 368
GlyphClass: 1
Flags: W
LayerCount: 2
Fore
SplineSet
172 196 m 2,0,-1
 188 196 l 2,1,2
 248 196 248 196 248 140 c 2,3,-1
 248 128 l 1,4,5
 235 60 235 60 192 60 c 2,6,-1
 176 60 l 2,7,8
 120 60 120 60 120 116 c 2,9,-1
 120 144 l 2,10,11
 120 196 120 196 172 196 c 2,0,-1
172 846 m 2,12,-1
 188 846 l 2,13,14
 248 846 248 846 248 790 c 2,15,-1
 248 778 l 1,16,17
 235 710 235 710 192 710 c 2,18,-1
 176 710 l 2,19,20
 120 710 120 710 120 766 c 2,21,-1
 120 794 l 2,22,23
 120 846 120 846 172 846 c 2,12,-1
EndSplineSet
EndChar

StartChar: semicolon
Encoding: 59 59 48
Width: 368
GlyphClass: 1
Flags: W
LayerCount: 2
Fore
SplineSet
172 846 m 2,0,-1
 188 846 l 2,1,2
 248 846 248 846 248 790 c 2,3,-1
 248 778 l 1,4,5
 235 710 235 710 192 710 c 2,6,-1
 176 710 l 2,7,8
 120 710 120 710 120 766 c 2,9,-1
 120 794 l 2,10,11
 120 846 120 846 172 846 c 2,0,-1
196 178 m 0,12,13
 244 178 244 178 272 74 c 1,14,-1
 272 50 l 2,15,16
 272 20 272 20 240 -62 c 1,17,18
 240 -90 240 -90 140 -226 c 1,19,-1
 108 -238 l 1,20,21
 76 -238 76 -238 64 -194 c 0,22,23
 64 -182 64 -182 152 -50 c 1,24,25
 184 37 184 37 184 70 c 1,26,27
 148 116 148 116 148 138 c 1,28,29
 160 178 160 178 196 178 c 0,12,13
EndSplineSet
EndChar

StartChar: less
Encoding: 60 60 49
Width: 1014
GlyphClass: 1
Flags: W
LayerCount: 2
Fore
SplineSet
876 931 m 1,0,1
 916 920 916 920 916 879 c 0,2,3
 916 847 916 847 836 811 c 1,4,5
 809 786 809 786 712 735 c 1,6,7
 695 712 695 712 652 695 c 1,8,9
 574 649 574 649 536 615 c 1,10,11
 527 615 527 615 424 547 c 2,12,-1
 220 411 l 1,13,-1
 220 407 l 1,14,-1
 392 335 l 1,15,16
 473 311 473 311 692 203 c 1,17,-1
 820 151 l 2,18,19
 826 151 826 151 852 135 c 1,20,21
 948 112 948 112 948 63 c 1,22,23
 939 19 939 19 900 19 c 1,24,25
 857 39 857 39 780 67 c 1,26,-1
 432 227 l 1,27,28
 342 255 342 255 108 363 c 1,29,30
 96 389 96 389 96 403 c 0,31,32
 96 444 96 444 136 455 c 1,33,34
 205 508 205 508 316 579 c 1,35,36
 348 607 348 607 416 643 c 1,37,38
 421 653 421 653 512 707 c 1,39,40
 597 771 597 771 648 791 c 1,41,42
 648 805 648 805 716 835 c 1,43,44
 721 848 721 848 752 859 c 1,45,-1
 840 915 l 1,46,47
 855 931 855 931 876 931 c 1,0,1
EndSplineSet
EndChar

StartChar: equal
Encoding: 61 61 50
Width: 1014
GlyphClass: 1
Flags: W
LayerCount: 2
Fore
SplineSet
112 687 m 2,0,-1
 172 687 l 1,1,2
 215 675 215 675 400 675 c 2,3,-1
 880 675 l 2,4,5
 932 675 932 675 932 627 c 1,6,7
 922 587 922 587 880 587 c 2,8,-1
 412 587 l 2,9,10
 330 587 330 587 188 591 c 1,11,12
 182 598 182 598 84 603 c 1,13,14
 60 624 60 624 60 647 c 1,15,16
 70 687 70 687 112 687 c 2,0,-1
100 391 m 1,17,-1
 140 387 l 1,18,-1
 852 387 l 1,19,20
 932 377 932 377 932 359 c 1,21,22
 941 359 941 359 944 331 c 1,23,24
 934 291 934 291 892 291 c 2,25,-1
 868 291 l 2,26,27
 863 291 863 291 824 299 c 1,28,-1
 116 299 l 2,29,30
 64 299 64 299 64 347 c 0,31,32
 64 372 64 372 100 391 c 1,17,-1
EndSplineSet
EndChar

StartChar: greater
Encoding: 62 62 51
Width: 1014
GlyphClass: 1
Flags: W
LayerCount: 2
Fore
SplineSet
138 925 m 1,0,1
 159 925 159 925 174 909 c 1,2,-1
 262 853 l 1,3,4
 293 842 293 842 298 829 c 1,5,6
 366 799 366 799 366 785 c 1,7,8
 417 765 417 765 502 701 c 1,9,10
 593 647 593 647 598 637 c 1,11,12
 666 601 666 601 698 573 c 1,13,14
 809 502 809 502 878 449 c 1,15,16
 918 438 918 438 918 397 c 0,17,18
 918 383 918 383 906 357 c 1,19,20
 672 249 672 249 582 221 c 1,21,-1
 234 61 l 1,22,23
 157 33 157 33 114 13 c 1,24,25
 75 13 75 13 66 57 c 1,26,27
 66 106 66 106 162 129 c 1,28,29
 188 145 188 145 194 145 c 2,30,-1
 322 197 l 1,31,32
 541 305 541 305 622 329 c 1,33,-1
 794 401 l 1,34,-1
 794 405 l 1,35,-1
 590 541 l 2,36,37
 487 609 487 609 478 609 c 1,38,39
 440 643 440 643 362 689 c 1,40,41
 319 706 319 706 302 729 c 1,42,43
 205 780 205 780 178 805 c 1,44,45
 98 841 98 841 98 873 c 0,46,47
 98 914 98 914 138 925 c 1,0,1
EndSplineSet
EndChar

StartChar: question
Encoding: 63 63 52
Width: 995
GlyphClass: 1
Flags: W
LayerCount: 2
Fore
SplineSet
446 1480 m 2,0,-1
 586 1480 l 2,1,2
 657 1480 657 1480 758 1420 c 0,3,4
 804 1392 804 1392 858 1300 c 1,5,6
 914 1155 914 1155 914 1092 c 1,7,8
 918 1072 918 1072 918 988 c 2,9,-1
 918 952 l 1,10,11
 909 880 909 880 846 788 c 1,12,13
 836 788 836 788 782 728 c 1,14,15
 773 728 773 728 690 672 c 1,16,17
 550 602 550 602 550 572 c 1,18,19
 513 550 513 550 494 380 c 0,20,21
 487 344 487 344 450 344 c 1,22,23
 410 354 410 354 410 396 c 2,24,-1
 410 424 l 1,25,26
 414 511 414 511 466 620 c 1,27,28
 472 620 472 620 530 688 c 1,29,30
 544 688 544 688 590 720 c 1,31,32
 653 746 653 746 722 800 c 1,33,34
 733 800 733 800 794 872 c 1,35,36
 830 937 830 937 830 968 c 2,37,-1
 830 980 l 2,38,39
 830 1153 830 1153 794 1204 c 1,40,41
 794 1258 794 1258 714 1344 c 1,42,43
 630 1392 630 1392 574 1392 c 2,44,-1
 462 1392 l 2,45,46
 354 1392 354 1392 242 1324 c 1,47,48
 166 1223 166 1223 166 1152 c 1,49,50
 146 1085 146 1085 142 1024 c 1,51,52
 121 1000 121 1000 98 1000 c 1,53,54
 58 1010 58 1010 58 1052 c 2,55,-1
 58 1060 l 1,56,57
 77 1216 77 1216 122 1308 c 1,58,59
 183 1407 183 1407 242 1428 c 1,60,61
 361 1480 361 1480 446 1480 c 2,0,-1
450 92 m 1,62,63
 514 80 514 80 514 32 c 2,64,-1
 514 20 l 2,65,66
 514 -40 514 -40 458 -40 c 2,67,-1
 442 -40 l 2,68,69
 386 -40 386 -40 386 16 c 2,70,-1
 386 36 l 2,71,72
 386 92 386 92 450 92 c 1,62,63
EndSplineSet
EndChar

StartChar: at
Encoding: 64 64 53
Width: 1986
GlyphClass: 1
Flags: W
LayerCount: 2
Fore
SplineSet
934 1328 m 2,0,-1
 1218 1328 l 1,1,2
 1368 1311 1368 1311 1494 1264 c 0,3,4
 1670 1197 1670 1197 1674 1156 c 1,5,6
 1715 1111 1715 1111 1742 1068 c 0,7,8
 1806 966 1806 966 1834 856 c 1,9,-1
 1834 584 l 1,10,11
 1818 516 1818 516 1818 408 c 2,12,-1
 1818 392 l 1,13,14
 1805 302 1805 302 1798 280 c 0,15,16
 1770 173 1770 173 1742 140 c 0,17,18
 1706 97 1706 97 1594 60 c 1,19,-1
 1458 60 l 2,20,21
 1440 60 1440 60 1358 104 c 1,22,23
 1358 113 1358 113 1322 144 c 1,24,-1
 1302 192 l 2,25,26
 1302 202 1302 202 1286 240 c 1,27,-1
 1286 276 l 1,28,29
 1212 194 1212 194 1138 156 c 1,30,31
 1034 96 1034 96 986 96 c 2,32,-1
 874 96 l 2,33,34
 815 96 815 96 722 164 c 1,35,36
 722 171 722 171 670 232 c 1,37,38
 626 381 626 381 626 404 c 2,39,-1
 626 572 l 1,40,41
 638 636 638 636 662 704 c 1,42,43
 723 802 723 802 770 820 c 1,44,45
 850 883 850 883 926 892 c 1,46,-1
 1090 892 l 1,47,-1
 1254 872 l 1,48,49
 1346 855 1346 855 1346 824 c 1,50,51
 1365 824 1365 824 1370 780 c 1,52,-1
 1370 352 l 2,53,54
 1370 193 1370 193 1434 164 c 1,55,56
 1463 157 1463 157 1474 148 c 1,57,-1
 1566 148 l 1,58,59
 1694 173 1694 173 1694 252 c 1,60,61
 1705 261 1705 261 1730 396 c 1,62,-1
 1730 412 l 2,63,64
 1730 521 1730 521 1746 596 c 1,65,-1
 1746 832 l 2,66,67
 1746 862 1746 862 1682 1004 c 0,68,69
 1678 1004 1678 1004 1606 1100 c 1,70,71
 1588 1141 1588 1141 1418 1200 c 1,72,73
 1403 1200 1403 1200 1318 1224 c 0,74,75
 1306 1224 1306 1224 1202 1240 c 1,76,-1
 954 1240 l 1,77,78
 901 1228 901 1228 814 1220 c 1,79,80
 660 1170 660 1170 538 1100 c 1,81,82
 538 1091 538 1091 474 1064 c 1,83,84
 330 938 330 938 330 896 c 1,85,86
 306 884 306 884 270 784 c 1,87,88
 230 658 230 658 230 548 c 2,89,-1
 230 336 l 1,90,91
 262 140 262 140 286 140 c 1,92,93
 286 118 286 118 354 32 c 1,94,95
 362 32 362 32 386 -4 c 1,96,97
 481 -96 481 -96 486 -96 c 0,98,99
 597 -186 597 -186 774 -240 c 1,100,101
 835 -252 835 -252 930 -256 c 1,102,103
 930 -264 930 -264 978 -264 c 2,104,-1
 1274 -264 l 2,105,106
 1302 -264 1302 -264 1386 -248 c 1,107,-1
 1406 -248 l 1,108,109
 1425 -237 1425 -237 1550 -212 c 1,110,-1
 1702 -148 l 1,111,112
 1702 -137 1702 -137 1754 -124 c 1,113,114
 1798 -136 1798 -136 1798 -168 c 0,115,116
 1798 -214 1798 -214 1654 -264 c 1,117,118
 1593 -301 1593 -301 1462 -320 c 1,119,120
 1424 -340 1424 -340 1362 -340 c 1,121,122
 1362 -352 1362 -352 1250 -352 c 2,123,-1
 1002 -352 l 2,124,125
 961 -352 961 -352 754 -328 c 1,126,-1
 582 -264 l 1,127,-1
 438 -176 l 1,128,129
 267 -15 267 -15 262 8 c 1,130,131
 176 125 176 125 166 212 c 1,132,133
 159 212 159 212 142 332 c 1,134,-1
 142 512 l 2,135,136
 142 652 142 652 158 696 c 1,137,138
 158 739 158 739 190 824 c 1,139,140
 209 888 209 888 286 1004 c 0,141,142
 286 1009 286 1009 370 1088 c 1,143,144
 403 1129 403 1129 506 1180 c 1,145,146
 555 1215 555 1215 626 1240 c 1,147,148
 629 1250 629 1250 678 1264 c 1,149,150
 795 1312 795 1312 886 1316 c 1,151,-1
 898 1316 l 1,152,153
 913 1328 913 1328 934 1328 c 2,0,-1
714 556 m 2,154,-1
 714 396 l 1,155,156
 742 307 742 307 742 292 c 1,157,158
 758 249 758 249 822 200 c 1,159,160
 884 184 884 184 894 184 c 2,161,-1
 994 184 l 1,162,163
 1055 201 1055 201 1170 284 c 1,164,165
 1203 313 1203 313 1258 392 c 1,166,-1
 1282 420 l 1,167,-1
 1282 776 l 1,168,169
 1165 796 1165 796 1162 796 c 2,170,-1
 1114 796 l 2,171,172
 1109 796 1109 796 1070 804 c 1,173,-1
 942 804 l 2,174,175
 887 804 887 804 786 724 c 1,176,177
 722 653 722 653 722 584 c 1,178,179
 715 584 715 584 714 556 c 2,154,-1
EndSplineSet
EndChar

StartChar: A
Encoding: 65 65 54
Width: 1166
GlyphClass: 1
Flags: W
TopAccentHorizontal: 583
LayerCount: 2
Fore
SplineSet
621 1502 m 0,0,1
 650 1502 650 1502 673 1434 c 1,2,3
 759 1253 759 1253 789 1138 c 1,4,5
 841 1005 841 1005 877 862 c 1,6,7
 893 825 893 825 953 606 c 1,8,9
 965 586 965 586 1013 418 c 0,10,11
 1046 295 1046 295 1085 190 c 0,12,13
 1093 176 1093 176 1133 58 c 1,14,15
 1149 42 1149 42 1149 14 c 0,16,17
 1149 -38 1149 -38 1101 -38 c 0,18,19
 1068 -38 1068 -38 1037 66 c 0,20,21
 1008 150 1008 150 993 178 c 1,22,-1
 937 362 l 1,23,-1
 881 558 l 1,24,-1
 881 566 l 1,25,-1
 877 566 l 1,26,27
 698 582 698 582 633 582 c 2,28,-1
 325 582 l 1,29,30
 306 557 306 557 257 414 c 1,31,32
 230 363 230 363 189 234 c 1,33,34
 149 148 149 148 137 86 c 1,35,36
 99 -46 99 -46 69 -46 c 2,37,-1
 57 -46 l 1,38,39
 17 -36 17 -36 17 6 c 1,40,41
 65 168 65 168 133 338 c 0,42,43
 133 346 133 346 189 482 c 0,44,45
 189 490 189 490 293 754 c 1,46,47
 293 785 293 785 321 834 c 1,48,49
 321 863 321 863 361 938 c 1,50,-1
 457 1202 l 1,51,-1
 565 1474 l 1,52,53
 595 1502 595 1502 621 1502 c 0,0,1
609 1354 m 1,54,55
 609 1343 609 1343 525 1138 c 1,56,-1
 441 906 l 1,57,58
 413 853 413 853 365 702 c 0,59,60
 365 699 365 699 353 670 c 1,61,-1
 629 670 l 2,62,63
 756 670 756 670 849 654 c 1,64,-1
 849 658 l 1,65,66
 809 799 809 799 781 874 c 1,67,68
 753 1000 753 1000 693 1142 c 1,69,70
 693 1177 693 1177 617 1350 c 1,71,-1
 617 1354 l 1,72,-1
 609 1354 l 1,54,55
EndSplineSet
EndChar

StartChar: B
Encoding: 66 66 55
Width: 1244
GlyphClass: 1
Flags: W
TopAccentHorizontal: 646
LayerCount: 2
Fore
SplineSet
168 1440 m 0,0,1
 172 1440 172 1440 172 1436 c 1,2,-1
 192 1440 l 1,3,-1
 700 1440 l 2,4,5
 796 1440 796 1440 904 1376 c 1,6,7
 1008 1309 1008 1309 1056 1156 c 1,8,9
 1064 1059 1064 1059 1064 996 c 1,10,11
 1041 902 1041 902 932 812 c 1,12,13
 851 760 851 760 836 760 c 1,14,15
 836 752 836 752 920 732 c 1,16,17
 1005 692 1005 692 1080 636 c 1,18,19
 1138 586 1138 586 1144 556 c 1,20,21
 1158 556 1158 556 1172 464 c 1,22,-1
 1172 440 l 2,23,24
 1172 232 1172 232 1132 196 c 1,25,26
 1118 131 1118 131 1008 52 c 1,27,28
 872 -4 872 -4 752 -4 c 2,29,-1
 172 -4 l 2,30,31
 120 -4 120 -4 120 48 c 2,32,-1
 120 1388 l 2,33,34
 120 1440 120 1440 168 1440 c 0,0,1
208 1352 m 1,35,-1
 208 792 l 1,36,37
 457 796 457 796 608 796 c 2,38,-1
 624 796 l 2,39,40
 701 796 701 796 836 852 c 1,41,42
 950 924 950 924 976 1016 c 1,43,44
 976 1225 976 1225 872 1284 c 1,45,46
 797 1352 797 1352 684 1352 c 2,47,-1
 208 1352 l 1,35,-1
208 704 m 1,48,-1
 208 84 l 1,49,-1
 736 84 l 2,50,51
 890 84 890 84 988 148 c 1,52,53
 1046 200 1046 200 1064 260 c 1,54,55
 1082 260 1082 260 1084 436 c 2,56,-1
 1084 464 l 1,57,58
 1068 529 1068 529 1036 552 c 1,59,60
 967 630 967 630 772 684 c 1,61,62
 731 708 731 708 556 708 c 0,63,64
 498 708 498 708 208 704 c 1,48,-1
EndSplineSet
EndChar

StartChar: C
Encoding: 67 67 56
Width: 1399
GlyphClass: 1
Flags: W
TopAccentHorizontal: 696
LayerCount: 2
Fore
SplineSet
762 1464 m 2,0,-1
 806 1464 l 1,1,-1
 926 1448 l 2,2,3
 999 1436 999 1436 1106 1388 c 1,4,5
 1220 1316 1220 1316 1266 1268 c 1,6,7
 1298 1246 1298 1246 1298 1216 c 1,8,9
 1289 1172 1289 1172 1250 1172 c 0,10,11
 1236 1172 1236 1172 1166 1244 c 1,12,13
 1033 1336 1033 1336 990 1336 c 1,14,15
 990 1350 990 1350 830 1372 c 0,16,17
 796 1376 796 1376 774 1376 c 2,18,-1
 762 1376 l 2,19,20
 651 1376 651 1376 514 1300 c 1,21,22
 497 1300 497 1300 446 1256 c 1,23,24
 355 1187 355 1187 302 1112 c 0,25,26
 238 1024 238 1024 202 908 c 1,27,28
 162 842 162 842 162 708 c 2,29,-1
 162 600 l 1,30,31
 177 466 177 466 210 412 c 1,32,33
 233 349 233 349 334 252 c 1,34,-1
 474 144 l 1,35,36
 621 60 621 60 762 60 c 2,37,-1
 910 60 l 1,38,39
 1056 90 1056 90 1146 188 c 0,40,41
 1191 239 1191 239 1226 292 c 1,42,43
 1226 315 1226 315 1274 328 c 1,44,45
 1318 316 1318 316 1318 284 c 1,46,47
 1305 231 1305 231 1202 116 c 1,48,49
 1107 28 1107 28 1022 0 c 0,50,51
 944 -28 944 -28 914 -28 c 2,52,-1
 770 -28 l 2,53,54
 624 -28 624 -28 502 32 c 1,55,56
 420 64 420 64 338 140 c 1,57,58
 169 249 169 249 98 456 c 1,59,60
 74 559 74 559 74 600 c 2,61,-1
 74 716 l 2,62,63
 74 854 74 854 130 964 c 1,64,65
 146 1026 146 1026 230 1168 c 1,66,67
 339 1292 339 1292 410 1340 c 0,68,69
 595 1464 595 1464 762 1464 c 2,0,-1
EndSplineSet
EndChar

StartChar: D
Encoding: 68 68 57
Width: 1330
GlyphClass: 1
Flags: W
TopAccentHorizontal: 680
LayerCount: 2
Fore
SplineSet
168 1448 m 0,0,1
 184 1445 184 1445 184 1440 c 1,2,3
 285 1444 285 1444 344 1444 c 2,4,-1
 472 1444 l 2,5,6
 597 1444 597 1444 768 1388 c 1,7,8
 797 1388 797 1388 952 1304 c 0,9,10
 1085 1228 1085 1228 1156 1088 c 1,11,12
 1240 962 1240 962 1240 772 c 2,13,-1
 1240 664 l 1,14,15
 1221 579 1221 579 1188 480 c 1,16,17
 1111 293 1111 293 1036 208 c 0,18,19
 945 105 945 105 848 56 c 0,20,21
 740 0 740 0 664 0 c 1,22,23
 664 -4 664 -4 660 -4 c 0,24,25
 494 -8 494 -8 404 -8 c 2,26,-1
 188 -8 l 2,27,28
 146 -8 146 -8 128 32 c 1,29,30
 124 236 124 236 124 332 c 2,31,-1
 124 1224 l 2,32,33
 124 1297 124 1297 120 1408 c 1,34,35
 132 1448 132 1448 168 1448 c 0,0,1
208 1352 m 1,36,-1
 212 1344 l 1,37,-1
 212 288 l 2,38,39
 212 225 212 225 216 80 c 1,40,-1
 404 80 l 2,41,42
 756 80 756 80 776 124 c 1,43,44
 929 181 929 181 1036 360 c 1,45,-1
 1104 504 l 1,46,47
 1132 591 1132 591 1152 680 c 1,48,-1
 1152 760 l 2,49,50
 1152 947 1152 947 1080 1044 c 1,51,52
 1062 1081 1062 1081 1036 1108 c 1,53,54
 1025 1142 1025 1142 936 1212 c 1,55,-1
 820 1272 l 1,56,57
 793 1292 793 1292 672 1324 c 0,58,59
 561 1356 561 1356 460 1356 c 2,60,-1
 328 1356 l 2,61,62
 288 1356 288 1356 208 1352 c 1,36,-1
EndSplineSet
EndChar

StartChar: E
Encoding: 69 69 58
Width: 1140
GlyphClass: 1
Flags: W
TopAccentHorizontal: 614
LayerCount: 2
Fore
SplineSet
156 1440 m 1,0,-1
 196 1436 l 1,1,-1
 988 1436 l 2,2,3
 1040 1436 1040 1436 1040 1388 c 1,4,5
 1030 1348 1030 1348 988 1348 c 2,6,-1
 208 1348 l 1,7,-1
 208 796 l 1,8,-1
 880 796 l 2,9,10
 932 796 932 796 932 748 c 1,11,12
 922 708 922 708 880 708 c 2,13,-1
 208 708 l 1,14,-1
 208 96 l 1,15,-1
 1056 96 l 2,16,17
 1108 96 1108 96 1108 48 c 1,18,19
 1098 8 1098 8 1056 8 c 2,20,-1
 196 8 l 2,21,22
 182 8 182 8 160 4 c 1,23,24
 120 14 120 14 120 56 c 2,25,-1
 120 1388 l 2,26,27
 120 1425 120 1425 156 1440 c 1,0,-1
EndSplineSet
EndChar

StartChar: F
Encoding: 70 70 59
Width: 1079
GlyphClass: 1
Flags: W
TopAccentHorizontal: 584
LayerCount: 2
Fore
SplineSet
156 1440 m 1,0,1
 196 1436 196 1436 216 1436 c 2,2,-1
 992 1436 l 2,3,4
 1044 1436 1044 1436 1044 1388 c 1,5,6
 1034 1348 1034 1348 992 1348 c 2,7,-1
 212 1348 l 1,8,-1
 212 792 l 1,9,-1
 916 792 l 2,10,11
 968 792 968 792 968 744 c 1,12,13
 958 704 958 704 916 704 c 2,14,-1
 212 704 l 1,15,-1
 212 24 l 2,16,17
 212 -28 212 -28 164 -28 c 1,18,19
 124 -18 124 -18 124 24 c 2,20,-1
 124 1396 l 2,21,22
 124 1420 124 1420 156 1440 c 1,0,1
EndSplineSet
EndChar

StartChar: G
Encoding: 71 71 60
Width: 1434
GlyphClass: 1
Flags: W
TopAccentHorizontal: 732
LayerCount: 2
Fore
SplineSet
770 1460 m 2,0,-1
 906 1460 l 1,1,2
 1043 1441 1043 1441 1254 1296 c 0,3,4
 1338 1240 1338 1240 1338 1212 c 2,5,-1
 1338 1208 l 1,6,7
 1326 1168 1326 1168 1290 1168 c 0,8,9
 1263 1168 1263 1168 1214 1216 c 1,10,11
 980 1372 980 1372 894 1372 c 2,12,-1
 770 1372 l 2,13,14
 733 1372 733 1372 630 1344 c 1,15,16
 469 1280 469 1280 390 1212 c 1,17,18
 380 1212 380 1212 334 1164 c 0,19,20
 284 1110 284 1110 226 976 c 1,21,22
 198 885 198 885 178 792 c 1,23,-1
 178 636 l 2,24,25
 178 463 178 463 222 424 c 1,26,27
 252 356 252 356 314 288 c 1,28,29
 351 261 351 261 410 200 c 1,30,31
 519 132 519 132 670 84 c 1,32,33
 686 84 686 84 782 60 c 1,34,-1
 906 60 l 2,35,36
 996 60 996 60 1098 160 c 1,37,38
 1153 201 1153 201 1226 352 c 0,39,40
 1274 460 1274 460 1274 512 c 1,41,42
 1286 528 1286 528 1286 544 c 2,43,-1
 1286 628 l 1,44,-1
 918 628 l 2,45,46
 866 628 866 628 866 676 c 1,47,48
 876 716 876 716 918 716 c 2,49,-1
 1322 716 l 2,50,51
 1374 716 1374 716 1374 664 c 2,52,-1
 1374 536 l 1,53,54
 1338 341 1338 341 1262 236 c 1,55,56
 1249 195 1249 195 1194 128 c 0,57,58
 1175 101 1175 101 1078 28 c 1,59,60
 993 -28 993 -28 918 -28 c 2,61,-1
 774 -28 l 1,62,63
 541 18 541 18 482 64 c 1,64,65
 391 94 391 94 306 176 c 1,66,67
 201 270 201 270 166 340 c 1,68,69
 94 454 94 454 94 528 c 1,70,71
 90 567 90 567 90 656 c 2,72,-1
 90 800 l 1,73,74
 140 1028 140 1028 198 1116 c 1,75,76
 210 1155 210 1155 266 1220 c 1,77,78
 361 1317 361 1317 454 1356 c 1,79,80
 463 1374 463 1374 634 1436 c 1,81,82
 730 1460 730 1460 770 1460 c 2,0,-1
EndSplineSet
EndChar

StartChar: H
Encoding: 72 72 61
Width: 1252
GlyphClass: 1
Flags: W
TopAccentHorizontal: 626
LayerCount: 2
Fore
SplineSet
1092 1484 m 1,0,1
 1132 1474 1132 1474 1132 1432 c 2,2,-1
 1132 16 l 2,3,4
 1132 -36 1132 -36 1084 -36 c 1,5,6
 1044 -26 1044 -26 1044 16 c 2,7,-1
 1044 684 l 1,8,-1
 208 684 l 1,9,-1
 208 12 l 2,10,11
 208 -40 208 -40 160 -40 c 1,12,13
 120 -30 120 -30 120 12 c 2,14,-1
 120 1416 l 2,15,16
 120 1468 120 1468 168 1468 c 1,17,18
 208 1458 208 1458 208 1416 c 2,19,-1
 208 772 l 1,20,-1
 1044 772 l 1,21,-1
 1044 1432 l 2,22,23
 1044 1484 1044 1484 1092 1484 c 1,0,1
EndSplineSet
EndChar

StartChar: I
Encoding: 73 73 62
Width: 602
GlyphClass: 1
Flags: W
TopAccentHorizontal: 305
LayerCount: 2
Fore
SplineSet
69 1436 m 2,0,-1
 537 1436 l 2,1,2
 589 1436 589 1436 589 1388 c 1,3,4
 578 1348 578 1348 537 1348 c 2,5,-1
 349 1348 l 1,6,-1
 349 90 l 1,7,-1
 541 90 l 2,8,9
 593 90 593 90 593 42 c 1,10,11
 582 2 582 2 541 2 c 2,12,-1
 69 2 l 2,13,14
 17 2 17 2 17 50 c 1,15,16
 28 90 28 90 69 90 c 2,17,-1
 261 90 l 1,18,-1
 261 1348 l 1,19,-1
 69 1348 l 2,20,21
 17 1348 17 1348 17 1396 c 1,22,23
 28 1436 28 1436 69 1436 c 2,0,-1
EndSplineSet
EndChar

StartChar: J
Encoding: 74 74 63
Width: 1138
GlyphClass: 1
Flags: W
TopAccentHorizontal: 524
LayerCount: 2
Fore
SplineSet
958 1486 m 0,0,1
 1014 1486 1014 1486 1014 1262 c 1,2,3
 1018 1246 1018 1246 1018 1070 c 2,4,-1
 1018 548 l 2,5,6
 1018 468 1018 468 958 288 c 0,7,8
 954 288 954 288 902 180 c 1,9,10
 804 37 804 37 586 -20 c 0,11,12
 542 -28 542 -28 450 -28 c 2,13,-1
 378 -28 l 1,14,15
 199 23 199 23 146 68 c 1,16,17
 66 115 66 115 34 220 c 0,18,19
 30 227 30 227 30 236 c 0,20,21
 39 280 39 280 78 280 c 0,22,23
 107 280 107 280 142 192 c 1,24,25
 227 99 227 99 386 60 c 1,26,-1
 442 60 l 2,27,28
 594 60 594 60 670 104 c 1,29,30
 725 128 725 128 774 172 c 1,31,32
 822 201 822 201 886 344 c 1,33,34
 930 496 930 496 930 556 c 2,35,-1
 930 1078 l 2,36,37
 930 1374 930 1374 910 1442 c 1,38,39
 919 1486 919 1486 958 1486 c 0,0,1
EndSplineSet
EndChar

StartChar: K
Encoding: 75 75 64
Width: 1342
GlyphClass: 1
Flags: W
TopAccentHorizontal: 728
LayerCount: 2
Fore
SplineSet
168 1480 m 1,0,1
 208 1470 208 1470 208 1428 c 2,2,-1
 208 760 l 1,3,-1
 212 760 l 1,4,5
 441 908 441 908 700 1132 c 1,6,7
 834 1258 834 1258 996 1396 c 1,8,9
 1082 1480 1082 1480 1112 1480 c 1,10,11
 1156 1471 1156 1471 1156 1432 c 0,12,13
 1156 1412 1156 1412 1096 1368 c 1,14,15
 954 1246 954 1246 916 1208 c 1,16,17
 909 1208 909 1208 840 1140 c 1,18,19
 834 1140 834 1140 728 1040 c 0,20,21
 698 1010 698 1010 648 976 c 1,22,23
 648 967 648 967 580 920 c 1,24,25
 497 849 497 849 348 748 c 0,26,27
 292 714 292 714 292 708 c 1,28,29
 316 708 316 708 464 616 c 1,30,-1
 632 500 l 1,31,32
 765 415 765 415 844 352 c 0,33,34
 939 281 939 281 1196 124 c 1,35,-1
 1324 36 l 1,36,37
 1336 19 1336 19 1336 4 c 1,38,39
 1324 -36 1324 -36 1288 -36 c 0,40,41
 1268 -36 1268 -36 1168 32 c 0,42,43
 1113 74 1113 74 1032 120 c 1,44,45
 810 262 810 262 676 368 c 1,46,47
 540 452 540 452 484 500 c 1,48,49
 317 611 317 611 236 636 c 1,50,-1
 208 636 l 1,51,-1
 208 12 l 2,52,53
 208 -40 208 -40 160 -40 c 1,54,55
 120 -30 120 -30 120 12 c 2,56,-1
 120 1428 l 2,57,58
 120 1480 120 1480 168 1480 c 1,0,1
EndSplineSet
EndChar

StartChar: L
Encoding: 76 76 65
Width: 1117
GlyphClass: 1
Flags: W
TopAccentHorizontal: 618
LayerCount: 2
Fore
SplineSet
180 1480 m 1,0,1
 220 1470 220 1470 220 1428 c 2,2,-1
 220 92 l 1,3,-1
 1052 92 l 2,4,5
 1104 92 1104 92 1104 44 c 1,6,7
 1094 4 1094 4 1052 4 c 2,8,-1
 184 4 l 2,9,10
 132 4 132 4 132 56 c 2,11,-1
 132 1428 l 2,12,13
 132 1480 132 1480 180 1480 c 1,0,1
EndSplineSet
EndChar

StartChar: M
Encoding: 77 77 66
Width: 1705
GlyphClass: 1
Flags: W
TopAccentHorizontal: 853
LayerCount: 2
Fore
SplineSet
1263 1488 m 2,0,1
 1303 1488 1303 1488 1315 1380 c 1,2,-1
 1451 852 l 1,3,4
 1523 625 1523 625 1523 608 c 1,5,-1
 1599 328 l 2,6,7
 1599 314 1599 314 1667 88 c 1,8,-1
 1683 0 l 1,9,10
 1674 -44 1674 -44 1635 -44 c 0,11,12
 1591 -44 1591 -44 1571 108 c 1,13,14
 1508 305 1508 305 1507 340 c 1,15,16
 1463 470 1463 470 1443 580 c 1,17,-1
 1387 764 l 2,18,19
 1311 1024 1311 1024 1271 1216 c 1,20,21
 1259 1216 1259 1216 1255 1272 c 1,22,-1
 1251 1272 l 1,23,-1
 1159 940 l 2,24,25
 1110 751 1110 751 1099 728 c 1,26,27
 1027 473 1027 473 979 356 c 1,28,-1
 935 216 l 1,29,-1
 867 -4 l 1,30,31
 844 -40 844 -40 815 -40 c 0,32,33
 776 -40 776 -40 739 92 c 1,34,35
 667 294 667 294 639 412 c 1,36,-1
 523 788 l 1,37,38
 515 828 515 828 439 1084 c 0,39,40
 439 1097 439 1097 391 1268 c 1,41,-1
 383 1268 l 1,42,43
 367 1195 367 1195 347 1140 c 1,44,45
 347 1121 347 1121 299 900 c 1,46,47
 263 758 263 758 263 704 c 1,48,49
 255 685 255 685 203 408 c 1,50,51
 195 408 195 408 187 336 c 1,52,53
 176 336 176 336 151 204 c 1,54,55
 127 117 127 117 107 -16 c 1,56,57
 86 -40 86 -40 63 -40 c 1,58,59
 23 -25 23 -25 23 4 c 0,60,61
 23 57 23 57 91 344 c 1,62,63
 127 444 127 444 139 540 c 1,64,65
 195 822 195 822 195 848 c 1,66,67
 207 863 207 863 267 1172 c 1,68,69
 315 1320 315 1320 315 1376 c 1,70,71
 324 1376 324 1376 339 1460 c 1,72,73
 360 1484 360 1484 383 1484 c 0,74,75
 432 1484 432 1484 455 1344 c 1,76,77
 491 1249 491 1249 527 1084 c 1,78,79
 547 1037 547 1037 591 868 c 1,80,-1
 643 692 l 1,81,-1
 815 132 l 1,82,-1
 819 132 l 1,83,84
 847 243 847 243 871 304 c 0,85,86
 943 497 943 497 1047 856 c 0,87,88
 1047 870 1047 870 1111 1088 c 1,89,90
 1155 1258 1155 1258 1179 1324 c 1,91,92
 1216 1488 1216 1488 1251 1488 c 2,93,-1
 1263 1488 l 2,0,1
EndSplineSet
EndChar

StartChar: N
Encoding: 78 78 67
Width: 1296
GlyphClass: 1
Flags: W
TopAccentHorizontal: 648
LayerCount: 2
Fore
SplineSet
164 1484 m 1,0,1
 212 1484 212 1484 252 1404 c 1,2,3
 318 1320 318 1320 416 1144 c 1,4,5
 498 1022 498 1022 576 892 c 1,6,7
 609 851 609 851 676 736 c 1,8,9
 726 670 726 670 816 532 c 1,10,11
 824 531 824 531 888 436 c 0,12,13
 888 430 888 430 1084 148 c 1,14,-1
 1084 1432 l 2,15,16
 1084 1484 1084 1484 1132 1484 c 1,17,18
 1172 1474 1172 1474 1172 1432 c 2,19,-1
 1172 40 l 2,20,21
 1172 26 1172 26 1176 4 c 1,22,23
 1164 -36 1164 -36 1128 -36 c 0,24,25
 1100 -36 1100 -36 1064 24 c 1,26,27
 1028 63 1028 63 944 196 c 1,28,-1
 756 468 l 1,29,-1
 608 680 l 1,30,-1
 532 804 l 1,31,32
 491 856 491 856 396 1016 c 1,33,34
 342 1095 342 1095 212 1316 c 1,35,-1
 208 1316 l 1,36,-1
 208 20 l 2,37,38
 208 -32 208 -32 160 -32 c 1,39,40
 120 -22 120 -22 120 20 c 2,41,-1
 120 1432 l 2,42,43
 120 1477 120 1477 164 1484 c 1,0,1
EndSplineSet
EndChar

StartChar: O
Encoding: 79 79 68
Width: 1600
GlyphClass: 1
Flags: W
TopAccentHorizontal: 800
LayerCount: 2
Fore
SplineSet
806 1464 m 0,0,1
 865 1464 865 1464 954 1436 c 1,2,3
 997 1436 997 1436 1154 1364 c 1,4,5
 1282 1283 1282 1283 1310 1208 c 1,6,7
 1471 1003 1471 1003 1510 796 c 1,8,-1
 1510 688 l 2,9,10
 1510 597 1510 597 1458 332 c 1,11,12
 1425 253 1425 253 1386 208 c 1,13,14
 1346 140 1346 140 1290 96 c 0,15,16
 1219 38 1219 38 1106 -4 c 0,17,18
 1069 -21 1069 -21 1006 -32 c 1,19,-1
 870 -32 l 2,20,21
 642 -32 642 -32 474 44 c 1,22,23
 455 44 455 44 338 112 c 1,24,25
 271 167 271 167 270 176 c 1,26,27
 160 288 160 288 142 360 c 1,28,29
 90 468 90 468 90 516 c 2,30,-1
 90 772 l 1,31,32
 130 988 130 988 154 1024 c 1,33,34
 190 1177 190 1177 442 1372 c 1,35,36
 610 1464 610 1464 806 1464 c 0,0,1
178 756 m 1,37,-1
 178 532 l 1,38,39
 203 394 203 394 278 300 c 1,40,41
 375 161 375 161 558 108 c 1,42,43
 683 56 683 56 866 56 c 2,44,-1
 990 56 l 2,45,46
 1036 56 1036 56 1170 124 c 0,47,48
 1253 162 1253 162 1302 244 c 1,49,50
 1378 331 1378 331 1386 432 c 1,51,52
 1403 481 1403 481 1422 696 c 1,53,-1
 1422 784 l 1,54,55
 1387 963 1387 963 1226 1176 c 1,56,57
 1203 1228 1203 1228 1098 1292 c 1,58,59
 969 1352 969 1352 910 1352 c 1,60,61
 853 1376 853 1376 810 1376 c 0,62,63
 654 1376 654 1376 502 1304 c 1,64,65
 279 1141 279 1141 234 992 c 1,66,67
 213 946 213 946 178 756 c 1,37,-1
EndSplineSet
EndChar

StartChar: P
Encoding: 80 80 69
Width: 1278
GlyphClass: 1
Flags: W
TopAccentHorizontal: 659
LayerCount: 2
Fore
SplineSet
172 1436 m 2,0,-1
 722 1436 l 2,1,2
 791 1436 791 1436 1002 1352 c 1,3,-1
 1098 1288 l 1,4,5
 1198 1148 1198 1148 1198 952 c 2,6,-1
 1198 916 l 1,7,8
 1178 800 1178 800 1126 724 c 0,9,10
 1093 681 1093 681 1070 660 c 1,11,12
 1068 646 1068 646 946 576 c 1,13,14
 859 537 859 537 750 504 c 1,15,-1
 576 504 l 1,16,17
 487 520 487 520 320 576 c 1,18,19
 240 608 240 608 240 648 c 1,20,21
 252 688 252 688 288 688 c 1,22,23
 380 644 380 644 552 600 c 0,24,25
 578 592 578 592 588 592 c 2,26,-1
 734 592 l 1,27,28
 905 644 905 644 954 684 c 1,29,30
 1054 736 1054 736 1098 872 c 0,31,32
 1110 911 1110 911 1110 936 c 2,33,-1
 1110 940 l 2,34,35
 1110 1079 1110 1079 1074 1148 c 1,36,37
 1049 1219 1049 1219 990 1256 c 1,38,39
 914 1296 914 1296 862 1308 c 1,40,41
 758 1348 758 1348 710 1348 c 2,42,-1
 208 1348 l 1,43,-1
 208 20 l 2,44,45
 208 -32 208 -32 160 -32 c 1,46,47
 120 -22 120 -22 120 20 c 2,48,-1
 120 1384 l 2,49,50
 120 1436 120 1436 172 1436 c 2,0,-1
EndSplineSet
EndChar

StartChar: Q
Encoding: 81 81 70
Width: 1600
GlyphClass: 1
Flags: W
TopAccentHorizontal: 800
LayerCount: 2
Fore
SplineSet
1061 74 m 1,0,1
 1027 116 1027 116 985 168 c 1,2,3
 979 168 979 168 849 312 c 1,4,5
 802 357 802 357 797 388 c 1,6,7
 809 432 809 432 841 432 c 0,8,9
 869 432 869 432 929 352 c 1,10,11
 1054 223 1054 223 1129 128 c 0,12,13
 1137 122 1137 122 1145 112 c 1,14,15
 1157 117 1157 117 1170 124 c 0,16,17
 1253 162 1253 162 1302 244 c 1,18,19
 1378 331 1378 331 1386 432 c 1,20,21
 1403 481 1403 481 1422 696 c 1,22,-1
 1422 784 l 1,23,24
 1387 963 1387 963 1226 1176 c 1,25,26
 1203 1228 1203 1228 1098 1292 c 1,27,28
 969 1352 969 1352 910 1352 c 1,29,30
 853 1376 853 1376 810 1376 c 0,31,32
 654 1376 654 1376 502 1304 c 1,33,34
 279 1141 279 1141 234 992 c 1,35,36
 213 946 213 946 178 756 c 1,37,-1
 178 532 l 1,38,39
 203 394 203 394 278 300 c 1,40,41
 375 161 375 161 558 108 c 1,42,43
 683 56 683 56 866 56 c 2,44,-1
 990 56 l 2,45,46
 1014 56 1014 56 1061 74 c 1,0,1
1203 39 m 1,47,48
 1228 10 1228 10 1265 -40 c 1,49,50
 1453 -236 1453 -236 1453 -272 c 1,51,52
 1441 -312 1441 -312 1405 -312 c 0,53,54
 1375 -312 1375 -312 1329 -244 c 1,55,56
 1268 -166 1268 -166 1189 -88 c 1,57,58
 1171 -62 1171 -62 1120 1 c 1,59,60
 1113 -1 1113 -1 1106 -4 c 0,61,62
 1069 -21 1069 -21 1006 -32 c 1,63,-1
 870 -32 l 2,64,65
 642 -32 642 -32 474 44 c 1,66,67
 455 44 455 44 338 112 c 1,68,69
 271 167 271 167 270 176 c 1,70,71
 160 288 160 288 142 360 c 1,72,73
 90 468 90 468 90 516 c 2,74,-1
 90 772 l 1,75,76
 130 988 130 988 154 1024 c 1,77,78
 190 1177 190 1177 442 1372 c 1,79,80
 610 1464 610 1464 806 1464 c 0,81,82
 865 1464 865 1464 954 1436 c 1,83,84
 997 1436 997 1436 1154 1364 c 1,85,86
 1282 1283 1282 1283 1310 1208 c 1,87,88
 1471 1003 1471 1003 1510 796 c 1,89,-1
 1510 688 l 2,90,91
 1510 597 1510 597 1458 332 c 1,92,93
 1425 253 1425 253 1386 208 c 1,94,95
 1346 140 1346 140 1290 96 c 0,96,97
 1252 65 1252 65 1203 39 c 1,47,48
EndSplineSet
EndChar

StartChar: R
Encoding: 82 82 71
Width: 1346
GlyphClass: 1
Flags: W
TopAccentHorizontal: 726
LayerCount: 2
Fore
SplineSet
268 1444 m 2,0,-1
 696 1444 l 2,1,2
 885 1444 885 1444 1028 1332 c 1,3,4
 1066 1316 1066 1316 1112 1240 c 1,5,6
 1164 1121 1164 1121 1164 1092 c 2,7,-1
 1164 936 l 1,8,9
 1138 828 1138 828 1112 800 c 1,10,11
 1058 728 1058 728 1024 728 c 1,12,13
 1024 714 1024 714 920 684 c 1,14,15
 820 660 820 660 752 660 c 1,16,-1
 752 656 l 1,17,18
 819 621 819 621 952 480 c 1,19,20
 952 471 952 471 992 432 c 1,21,22
 1058 354 1058 354 1076 328 c 0,23,24
 1129 259 1129 259 1164 224 c 0,25,26
 1332 31 1332 31 1332 -4 c 1,27,28
 1320 -44 1320 -44 1284 -44 c 0,29,30
 1255 -44 1255 -44 1212 28 c 1,31,32
 1138 119 1138 119 1084 172 c 1,33,34
 1024 249 1024 249 1024 256 c 1,35,36
 848 468 848 468 816 492 c 1,37,38
 695 605 695 605 636 620 c 1,39,40
 636 634 636 634 552 656 c 1,41,-1
 212 656 l 1,42,-1
 212 16 l 2,43,44
 212 -36 212 -36 164 -36 c 1,45,46
 124 -26 124 -26 124 16 c 2,47,-1
 124 1360 l 2,48,49
 124 1374 124 1374 120 1396 c 1,50,51
 131 1440 131 1440 184 1440 c 1,52,53
 211 1444 211 1444 268 1444 c 2,0,-1
212 1348 m 2,54,-1
 212 744 l 1,55,-1
 500 744 l 2,56,57
 604 744 604 744 796 748 c 1,58,59
 957 774 957 774 1020 828 c 0,60,61
 1051 856 1051 856 1076 940 c 1,62,-1
 1076 1076 l 1,63,64
 1055 1174 1055 1174 1008 1232 c 1,65,66
 883 1356 883 1356 684 1356 c 2,67,-1
 220 1356 l 2,68,69
 212 1355 212 1355 212 1348 c 2,54,-1
EndSplineSet
EndChar

StartChar: S
Encoding: 83 83 72
Width: 1044
GlyphClass: 1
Flags: W
TopAccentHorizontal: 522
LayerCount: 2
Fore
SplineSet
484 1476 m 1,0,-1
 512 1476 l 2,1,2
 668 1476 668 1476 788 1408 c 0,3,4
 932 1329 932 1329 932 1280 c 1,5,6
 923 1236 923 1236 884 1236 c 0,7,8
 870 1236 870 1236 800 1300 c 1,9,10
 656 1380 656 1380 592 1380 c 1,11,12
 592 1387 592 1387 512 1388 c 2,13,-1
 496 1388 l 1,14,15
 415 1379 415 1379 284 1272 c 1,16,17
 224 1172 224 1172 224 1068 c 2,18,-1
 224 1000 l 1,19,20
 293 916 293 916 372 884 c 0,21,22
 504 824 504 824 692 752 c 1,23,24
 770 706 770 706 836 644 c 1,25,26
 968 538 968 538 968 392 c 2,27,-1
 968 312 l 2,28,29
 968 215 968 215 852 76 c 1,30,31
 785 10 785 10 640 -28 c 1,32,33
 605 -32 605 -32 580 -32 c 2,34,-1
 484 -32 l 1,35,36
 389 -20 389 -20 212 80 c 1,37,38
 124 160 124 160 100 208 c 0,39,40
 76 264 76 264 76 288 c 0,41,42
 76 340 76 340 124 340 c 0,43,44
 158 340 158 340 176 256 c 1,45,46
 246 143 246 143 376 96 c 1,47,48
 469 56 469 56 488 56 c 2,49,-1
 564 56 l 2,50,51
 675 56 675 56 784 132 c 1,52,53
 880 246 880 246 880 320 c 0,54,55
 880 488 880 488 852 488 c 1,56,57
 835 543 835 543 684 652 c 1,58,59
 631 682 631 682 380 784 c 0,60,61
 210 856 210 856 152 948 c 0,62,63
 136 972 136 972 136 992 c 2,64,-1
 136 1088 l 2,65,66
 136 1192 136 1192 212 1324 c 1,67,68
 301 1411 301 1411 400 1452 c 0,69,70
 418 1463 418 1463 484 1476 c 1,0,-1
EndSplineSet
EndChar

StartChar: T
Encoding: 84 84 73
Width: 1124
GlyphClass: 1
Flags: W
TopAccentHorizontal: 562
LayerCount: 2
Fore
SplineSet
74 1436 m 2,0,-1
 1050 1436 l 2,1,2
 1102 1436 1102 1436 1102 1388 c 1,3,4
 1092 1348 1092 1348 1050 1348 c 2,5,-1
 624 1348 l 1,6,-1
 624 20 l 2,7,8
 624 -32 624 -32 576 -32 c 1,9,10
 536 -22 536 -22 536 20 c 2,11,-1
 536 1348 l 1,12,-1
 74 1348 l 2,13,14
 22 1348 22 1348 22 1396 c 1,15,16
 32 1436 32 1436 74 1436 c 2,0,-1
EndSplineSet
EndChar

StartChar: U
Encoding: 85 85 74
Width: 1356
GlyphClass: 1
Flags: W
TopAccentHorizontal: 678
LayerCount: 2
Fore
SplineSet
176 1488 m 1,0,1
 216 1473 216 1473 216 1444 c 0,2,3
 208 1306 208 1306 208 1180 c 2,4,-1
 208 508 l 2,5,6
 208 312 208 312 340 180 c 1,7,8
 483 83 483 83 531 69 c 0,9,10
 560 58 560 58 668 56 c 2,11,-1
 776 56 l 2,12,13
 796 56 796 56 888 84 c 1,14,15
 960 118 960 118 1024 180 c 1,16,17
 1093 264 1093 264 1116 364 c 1,18,19
 1148 452 1148 452 1148 860 c 2,20,-1
 1148 1432 l 2,21,22
 1148 1484 1148 1484 1196 1484 c 1,23,24
 1236 1474 1236 1474 1236 1432 c 2,25,-1
 1236 856 l 2,26,27
 1236 733 1236 733 1232 520 c 1,28,-1
 1204 340 l 1,29,30
 1133 125 1133 125 1008 52 c 1,31,32
 930 -5 930 -5 800 -32 c 1,33,-1
 648 -32 l 2,34,35
 587 -32 587 -32 508 -14 c 0,36,37
 469 -2 469 -2 372 52 c 0,38,39
 201 145 201 145 144 340 c 0,40,41
 120 411 120 411 120 488 c 2,42,-1
 120 1188 l 2,43,44
 120 1476 120 1476 144 1476 c 1,45,46
 161 1488 161 1488 176 1488 c 1,0,1
EndSplineSet
EndChar

StartChar: V
Encoding: 86 86 75
Width: 1272
GlyphClass: 1
Flags: W
TopAccentHorizontal: 636
LayerCount: 2
Fore
SplineSet
68 1488 m 0,0,1
 100 1488 100 1488 116 1420 c 1,2,3
 275 1047 275 1047 348 828 c 0,4,5
 387 711 387 711 600 236 c 1,6,7
 611 228 611 228 656 116 c 1,8,9
 661 116 661 116 708 240 c 0,10,11
 832 541 832 541 900 736 c 1,12,13
 920 768 920 768 1016 1016 c 0,14,15
 1016 1025 1016 1025 1076 1196 c 1,16,17
 1092 1255 1092 1255 1148 1412 c 1,18,19
 1170 1488 1170 1488 1212 1488 c 1,20,21
 1252 1476 1252 1476 1252 1440 c 1,22,-1
 1164 1184 l 1,23,24
 1073 897 1073 897 988 716 c 1,25,-1
 944 600 l 2,26,27
 944 593 944 593 792 212 c 1,28,-1
 700 -40 l 1,29,30
 673 -52 673 -52 664 -52 c 0,31,32
 625 -52 625 -52 604 32 c 1,33,34
 590 50 590 50 456 344 c 1,35,-1
 388 500 l 1,36,37
 382 502 382 502 328 644 c 1,38,39
 304 682 304 682 244 864 c 1,40,41
 172 1059 172 1059 64 1320 c 0,42,43
 20 1421 20 1421 20 1436 c 0,44,45
 20 1488 20 1488 68 1488 c 0,0,1
EndSplineSet
EndChar

StartChar: W
Encoding: 87 87 76
Width: 1876
GlyphClass: 1
Flags: W
TopAccentHorizontal: 938
LayerCount: 2
Fore
SplineSet
68 1480 m 0,0,1
 103 1480 103 1480 128 1384 c 0,2,3
 134 1371 134 1371 148 1304 c 1,4,5
 232 1032 232 1032 392 548 c 2,6,-1
 460 340 l 1,7,8
 466 307 466 307 492 252 c 1,9,10
 540 120 540 120 540 116 c 1,11,12
 549 119 549 119 696 396 c 1,13,14
 737 458 737 458 812 632 c 1,15,16
 840 675 840 675 864 780 c 1,17,18
 889 868 889 868 920 868 c 2,19,-1
 928 868 l 2,20,21
 971 868 971 868 992 760 c 1,22,23
 1029 654 1029 654 1048 612 c 1,24,25
 1076 521 1076 521 1132 384 c 0,26,27
 1241 129 1241 129 1276 92 c 1,28,-1
 1368 280 l 1,29,30
 1484 544 1484 544 1584 836 c 1,31,32
 1604 908 1604 908 1632 980 c 1,33,34
 1740 1338 1740 1338 1740 1368 c 1,35,36
 1771 1480 1771 1480 1812 1480 c 2,37,-1
 1816 1480 l 1,38,39
 1856 1468 1856 1468 1856 1432 c 1,40,41
 1824 1340 1824 1340 1800 1228 c 1,42,43
 1752 1084 1752 1084 1752 1080 c 0,44,45
 1654 748 1654 748 1552 492 c 1,46,-1
 1448 248 l 1,47,48
 1332 10 1332 10 1332 -4 c 1,49,50
 1316 -56 1316 -56 1276 -56 c 0,51,52
 1240 -56 1240 -56 1216 8 c 1,53,54
 1161 93 1161 93 1056 340 c 1,55,56
 948 615 948 615 932 676 c 1,57,-1
 924 676 l 1,58,59
 924 654 924 654 780 356 c 1,60,61
 771 356 771 356 752 308 c 1,62,63
 698 222 698 222 604 36 c 1,64,65
 573 -36 573 -36 532 -36 c 1,66,67
 476 -23 476 -23 476 40 c 1,68,69
 436 134 436 134 420 196 c 1,70,71
 388 257 388 257 300 556 c 1,72,73
 293 556 293 556 224 784 c 1,74,-1
 148 1008 l 1,75,76
 52 1317 52 1317 20 1436 c 1,77,78
 29 1480 29 1480 68 1480 c 0,0,1
EndSplineSet
EndChar

StartChar: X
Encoding: 88 88 77
Width: 1211
GlyphClass: 1
Flags: W
TopAccentHorizontal: 604
LayerCount: 2
Fore
SplineSet
144 1480 m 0,0,1
 168 1480 168 1480 212 1400 c 1,2,3
 221 1400 221 1400 260 1336 c 1,4,5
 324 1252 324 1252 476 1012 c 1,6,7
 500 984 500 984 580 864 c 1,8,9
 593 832 593 832 616 812 c 1,10,-1
 620 812 l 1,11,12
 639 850 639 850 688 900 c 1,13,14
 720 956 720 956 740 972 c 1,15,16
 740 983 740 983 844 1112 c 1,17,18
 860 1147 860 1147 956 1252 c 1,19,20
 1050 1400 1050 1400 1112 1468 c 1,21,22
 1128 1476 1128 1476 1140 1476 c 0,23,24
 1180 1466 1180 1466 1180 1424 c 0,25,26
 1180 1408 1180 1408 1116 1332 c 1,27,28
 1045 1219 1045 1219 960 1124 c 1,29,-1
 816 932 l 2,30,31
 816 927 816 927 668 732 c 1,32,33
 692 693 692 693 772 592 c 0,34,35
 853 487 853 487 988 296 c 1,36,-1
 1092 156 l 2,37,38
 1092 151 1092 151 1184 28 c 0,39,40
 1192 12 1192 12 1192 0 c 0,41,42
 1180 -40 1180 -40 1144 -40 c 0,43,44
 1107 -40 1107 -40 1012 116 c 1,45,46
 987 141 987 141 940 216 c 1,47,48
 912 248 912 248 760 464 c 1,49,50
 727 501 727 501 680 568 c 1,51,-1
 612 652 l 1,52,53
 566 586 566 586 516 524 c 1,54,55
 508 507 508 507 476 476 c 1,56,57
 425 405 425 405 384 364 c 0,58,59
 384 359 384 359 324 284 c 2,60,-1
 264 208 l 1,61,62
 234 162 234 162 152 64 c 1,63,-1
 96 -20 l 2,64,65
 81 -36 81 -36 60 -36 c 1,66,67
 16 -27 16 -27 16 12 c 1,68,69
 43 75 43 75 140 188 c 1,70,-1
 224 300 l 2,71,72
 320 424 320 424 408 528 c 0,73,74
 521 666 521 666 560 736 c 1,75,76
 447 905 447 905 392 976 c 1,77,78
 284 1156 284 1156 264 1176 c 1,79,80
 201 1275 201 1275 100 1408 c 1,81,82
 96 1424 96 1424 96 1436 c 0,83,84
 105 1480 105 1480 144 1480 c 0,0,1
EndSplineSet
EndChar

StartChar: Y
Encoding: 89 89 78
Width: 1242
GlyphClass: 1
Flags: W
TopAccentHorizontal: 640
LayerCount: 2
Fore
SplineSet
96 1484 m 1,0,1
 135 1484 135 1484 224 1324 c 1,2,3
 251 1289 251 1289 464 936 c 0,4,5
 469 935 469 935 592 760 c 1,6,-1
 616 732 l 1,7,-1
 620 732 l 1,8,9
 620 739 620 739 708 860 c 1,10,11
 708 876 708 876 748 916 c 1,12,13
 748 926 748 926 812 1004 c 1,14,15
 855 1075 855 1075 896 1128 c 0,16,17
 915 1147 915 1147 984 1248 c 1,18,19
 1051 1331 1051 1331 1104 1416 c 1,20,21
 1112 1416 1112 1416 1140 1464 c 1,22,23
 1161 1480 1161 1480 1184 1480 c 1,24,25
 1228 1471 1228 1471 1228 1432 c 0,26,27
 1228 1422 1228 1422 1180 1368 c 1,28,29
 1136 1300 1136 1300 1096 1252 c 1,30,31
 1025 1149 1025 1149 920 1016 c 1,32,33
 920 995 920 995 788 828 c 1,34,35
 765 777 765 777 680 668 c 0,36,37
 664 644 664 644 664 632 c 2,38,-1
 664 16 l 2,39,40
 664 -36 664 -36 616 -36 c 1,41,42
 576 -26 576 -26 576 16 c 2,43,-1
 576 632 l 1,44,45
 336 955 336 955 232 1152 c 1,46,47
 52 1425 52 1425 52 1440 c 0,48,49
 52 1472 52 1472 96 1484 c 1,0,1
EndSplineSet
EndChar

StartChar: Z
Encoding: 90 90 79
Width: 1124
GlyphClass: 1
Flags: W
TopAccentHorizontal: 566
LayerCount: 2
Fore
SplineSet
96 1436 m 2,0,-1
 1036 1436 l 2,1,2
 1088 1436 1088 1436 1088 1388 c 1,3,4
 1081 1354 1081 1354 1020 1292 c 1,5,6
 976 1224 976 1224 884 1108 c 1,7,8
 884 1095 884 1095 792 984 c 1,9,10
 633 749 633 749 576 676 c 1,11,12
 493 557 493 557 480 544 c 0,13,14
 412 460 412 460 348 356 c 1,15,16
 278 266 278 266 232 184 c 1,17,18
 198 154 198 154 156 84 c 1,19,-1
 1052 84 l 2,20,21
 1104 84 1104 84 1104 36 c 1,22,23
 1094 -4 1094 -4 1052 -4 c 2,24,-1
 72 -4 l 1,25,26
 28 4 28 4 28 40 c 0,27,28
 28 61 28 61 144 220 c 2,29,-1
 248 368 l 2,30,31
 275 411 275 411 312 452 c 1,32,33
 324 491 324 491 468 672 c 1,34,-1
 592 844 l 1,35,36
 592 854 592 854 724 1036 c 1,37,38
 788 1117 788 1117 824 1172 c 0,39,40
 824 1175 824 1175 956 1348 c 1,41,-1
 96 1348 l 2,42,43
 44 1348 44 1348 44 1396 c 1,44,45
 54 1436 54 1436 96 1436 c 2,0,-1
EndSplineSet
EndChar

StartChar: bracketleft
Encoding: 91 91 80
Width: 742
GlyphClass: 1
Flags: W
IsExtendedShape: 1
GlyphVariantsVertical: bracketleft bracketleft.s1 bracketleft.s2 bracketleft.s3 bracketleft.s4 bracketleft.s5 bracketleft.s6 bracketleft.s7
GlyphCompositionVertical: 3  bracketleft.btm%0,0,0,2934 bracketleft.ext%1,0,0,950 bracketleft.top%0,0,0,2934
LayerCount: 2
Fore
SplineSet
336 1418 m 2,0,-1
 652 1418 l 2,1,2
 704 1418 704 1418 704 1370 c 1,3,4
 694 1330 694 1330 652 1330 c 2,5,-1
 296 1330 l 2,6,7
 268 1330 268 1330 208 1326 c 1,8,-1
 208 -334 l 1,9,10
 314 -330 314 -330 376 -330 c 2,11,-1
 648 -330 l 2,12,13
 700 -330 700 -330 700 -378 c 1,14,15
 690 -418 690 -418 648 -418 c 2,16,-1
 496 -418 l 2,17,18
 373 -418 373 -418 160 -422 c 1,19,20
 120 -412 120 -412 120 -370 c 2,21,-1
 120 1342 l 1,22,23
 137 1414 137 1414 172 1414 c 0,24,25
 276 1418 276 1418 336 1418 c 2,0,-1
EndSplineSet
EndChar

StartChar: bracketleft.s1
Encoding: 1114133 -1 81
Width: 742
GlyphClass: 1
Flags: W
IsExtendedShape: 1
LayerCount: 2
Fore
SplineSet
336 1718 m 2,0,-1
 652 1718 l 2,1,2
 704 1718 704 1718 704 1670 c 1,3,4
 694 1630 694 1630 652 1630 c 2,5,-1
 296 1630 l 2,6,7
 268 1630 268 1630 208 1626 c 1,8,-1
 208 -416 l 1,9,10
 314 -412 314 -412 376 -412 c 2,11,-1
 648 -412 l 2,12,13
 700 -412 700 -412 700 -460 c 1,14,15
 690 -500 690 -500 648 -500 c 2,16,-1
 496 -500 l 2,17,18
 373 -500 373 -500 160 -504 c 1,19,20
 120 -494 120 -494 120 -452 c 2,21,-1
 120 1642 l 1,22,23
 137 1714 137 1714 172 1714 c 0,24,25
 276 1718 276 1718 336 1718 c 2,0,-1
EndSplineSet
EndChar

StartChar: bracketleft.s2
Encoding: 1114134 -1 82
Width: 742
GlyphClass: 1
Flags: W
IsExtendedShape: 1
LayerCount: 2
Fore
SplineSet
336 2018 m 2,0,-1
 652 2018 l 2,1,2
 704 2018 704 2018 704 1970 c 1,3,4
 694 1930 694 1930 652 1930 c 2,5,-1
 296 1930 l 2,6,7
 268 1930 268 1930 208 1926 c 1,8,-1
 208 -716 l 1,9,10
 314 -712 314 -712 376 -712 c 2,11,-1
 648 -712 l 2,12,13
 700 -712 700 -712 700 -760 c 1,14,15
 690 -800 690 -800 648 -800 c 2,16,-1
 496 -800 l 2,17,18
 373 -800 373 -800 160 -804 c 1,19,20
 120 -794 120 -794 120 -752 c 2,21,-1
 120 1942 l 1,22,23
 137 2014 137 2014 172 2014 c 0,24,25
 276 2018 276 2018 336 2018 c 2,0,-1
EndSplineSet
EndChar

StartChar: bracketleft.s3
Encoding: 1114135 -1 83
Width: 742
GlyphClass: 1
Flags: W
IsExtendedShape: 1
LayerCount: 2
Fore
SplineSet
336 2318 m 2,0,-1
 652 2318 l 2,1,2
 704 2318 704 2318 704 2270 c 1,3,4
 694 2230 694 2230 652 2230 c 2,5,-1
 296 2230 l 2,6,7
 268 2230 268 2230 208 2226 c 1,8,-1
 208 -1016 l 1,9,10
 314 -1012 314 -1012 376 -1012 c 2,11,-1
 648 -1012 l 2,12,13
 700 -1012 700 -1012 700 -1060 c 1,14,15
 690 -1100 690 -1100 648 -1100 c 2,16,-1
 496 -1100 l 2,17,18
 373 -1100 373 -1100 160 -1104 c 1,19,20
 120 -1094 120 -1094 120 -1052 c 2,21,-1
 120 2242 l 1,22,23
 137 2314 137 2314 172 2314 c 0,24,25
 276 2318 276 2318 336 2318 c 2,0,-1
EndSplineSet
EndChar

StartChar: bracketleft.s4
Encoding: 1114136 -1 84
Width: 742
GlyphClass: 1
Flags: W
IsExtendedShape: 1
LayerCount: 2
Fore
SplineSet
336 2618 m 2,0,-1
 652 2618 l 2,1,2
 704 2618 704 2618 704 2570 c 1,3,4
 694 2530 694 2530 652 2530 c 2,5,-1
 296 2530 l 2,6,7
 268 2530 268 2530 208 2526 c 1,8,-1
 208 -1316 l 1,9,10
 314 -1312 314 -1312 376 -1312 c 2,11,-1
 648 -1312 l 2,12,13
 700 -1312 700 -1312 700 -1360 c 1,14,15
 690 -1400 690 -1400 648 -1400 c 2,16,-1
 496 -1400 l 2,17,18
 373 -1400 373 -1400 160 -1404 c 1,19,20
 120 -1394 120 -1394 120 -1352 c 2,21,-1
 120 2542 l 1,22,23
 137 2614 137 2614 172 2614 c 0,24,25
 276 2618 276 2618 336 2618 c 2,0,-1
EndSplineSet
EndChar

StartChar: bracketleft.s5
Encoding: 1114137 -1 85
Width: 742
GlyphClass: 1
Flags: W
IsExtendedShape: 1
LayerCount: 2
Fore
SplineSet
336 2918 m 2,0,-1
 652 2918 l 2,1,2
 704 2918 704 2918 704 2870 c 1,3,4
 694 2830 694 2830 652 2830 c 2,5,-1
 296 2830 l 2,6,7
 268 2830 268 2830 208 2826 c 1,8,-1
 208 -1616 l 1,9,10
 314 -1612 314 -1612 376 -1612 c 2,11,-1
 648 -1612 l 2,12,13
 700 -1612 700 -1612 700 -1660 c 1,14,15
 690 -1700 690 -1700 648 -1700 c 2,16,-1
 496 -1700 l 2,17,18
 373 -1700 373 -1700 160 -1704 c 1,19,20
 120 -1694 120 -1694 120 -1652 c 2,21,-1
 120 2842 l 1,22,23
 137 2914 137 2914 172 2914 c 0,24,25
 276 2918 276 2918 336 2918 c 2,0,-1
EndSplineSet
EndChar

StartChar: bracketleft.s6
Encoding: 1114138 -1 86
Width: 742
GlyphClass: 1
Flags: W
IsExtendedShape: 1
LayerCount: 2
Fore
SplineSet
336 3218 m 2,0,-1
 652 3218 l 2,1,2
 704 3218 704 3218 704 3170 c 1,3,4
 694 3130 694 3130 652 3130 c 2,5,-1
 296 3130 l 2,6,7
 268 3130 268 3130 208 3126 c 1,8,-1
 208 -1916 l 1,9,10
 314 -1912 314 -1912 376 -1912 c 2,11,-1
 648 -1912 l 2,12,13
 700 -1912 700 -1912 700 -1960 c 1,14,15
 690 -2000 690 -2000 648 -2000 c 2,16,-1
 496 -2000 l 2,17,18
 373 -2000 373 -2000 160 -2004 c 1,19,20
 120 -1994 120 -1994 120 -1952 c 2,21,-1
 120 3142 l 1,22,23
 137 3214 137 3214 172 3214 c 0,24,25
 276 3218 276 3218 336 3218 c 2,0,-1
EndSplineSet
EndChar

StartChar: bracketleft.s7
Encoding: 1114139 -1 87
Width: 742
GlyphClass: 1
Flags: W
IsExtendedShape: 1
LayerCount: 2
Fore
SplineSet
336 3518 m 2,0,-1
 652 3518 l 2,1,2
 704 3518 704 3518 704 3470 c 1,3,4
 694 3430 694 3430 652 3430 c 2,5,-1
 296 3430 l 2,6,7
 268 3430 268 3430 208 3426 c 1,8,-1
 208 -2216 l 1,9,10
 314 -2212 314 -2212 376 -2212 c 2,11,-1
 648 -2212 l 2,12,13
 700 -2212 700 -2212 700 -2260 c 1,14,15
 690 -2300 690 -2300 648 -2300 c 2,16,-1
 496 -2300 l 2,17,18
 373 -2300 373 -2300 160 -2304 c 1,19,20
 120 -2294 120 -2294 120 -2252 c 2,21,-1
 120 3442 l 1,22,23
 137 3514 137 3514 172 3514 c 0,24,25
 276 3518 276 3518 336 3518 c 2,0,-1
EndSplineSet
EndChar

StartChar: bracketleft.btm
Encoding: 1114140 -1 88
Width: 742
GlyphClass: 1
Flags: W
LayerCount: 2
Fore
SplineSet
208 2934 m 1,0,-1
 208 89 l 1,1,-1
 376 89 l 1,2,-1
 648 89 l 2,3,4
 700 89 700 89 700 41 c 1,5,6
 690 1 690 1 648 1 c 2,7,-1
 496 1 l 1,8,-1
 160 1 l 1,9,10
 120 12 120 12 120 53 c 2,11,-1
 120 2934 l 1,12,-1
 208 2934 l 1,0,-1
EndSplineSet
EndChar

StartChar: bracketleft.ext
Encoding: 1114141 -1 89
Width: 742
GlyphClass: 1
Flags: W
LayerCount: 2
Fore
SplineSet
120 0 m 1,0,-1
 120 958 l 1,1,-1
 208 958 l 1,2,-1
 208 0 l 1,3,-1
 120 0 l 1,0,-1
EndSplineSet
EndChar

StartChar: bracketleft.top
Encoding: 1114142 -1 90
Width: 742
GlyphClass: 1
Flags: W
LayerCount: 2
Fore
SplineSet
336 2934 m 2,0,-1
 652 2934 l 2,1,2
 704 2934 704 2934 704 2886 c 1,3,4
 694 2846 694 2846 652 2846 c 2,5,-1
 296 2846 l 2,6,7
 268 2846 268 2846 208 2842 c 1,8,-1
 208 0 l 1,9,-1
 120 0 l 1,10,-1
 120 2858 l 1,11,12
 137 2930 137 2930 172 2930 c 0,13,14
 276 2934 276 2934 336 2934 c 2,0,-1
EndSplineSet
EndChar

StartChar: backslash
Encoding: 92 92 91
Width: 781
GlyphClass: 1
Flags: W
LayerCount: 2
Fore
SplineSet
67 1695 m 1,0,1
 103 1695 103 1695 115 1655 c 1,2,3
 115 1623 115 1623 151 1527 c 1,4,5
 299 1039 299 1039 315 1017 c 1,6,7
 315 998 315 998 407 717 c 0,8,9
 486 472 486 472 486 460 c 2,10,-1
 598 92 l 1,11,12
 640 -88 640 -88 654 -88 c 1,13,14
 666 -148 666 -148 686 -212 c 1,15,16
 718 -292 718 -292 754 -408 c 1,17,18
 754 -450 754 -450 714 -460 c 0,19,20
 698 -460 698 -460 674 -444 c 1,21,22
 662 -423 662 -423 610 -260 c 0,23,24
 598 -230 598 -230 570 -124 c 1,25,26
 522 3 522 3 522 40 c 1,27,28
 462 240 462 240 462 248 c 0,29,30
 351 578 351 578 339 641 c 1,31,32
 239 957 239 957 239 969 c 2,33,-1
 131 1295 l 1,34,35
 75 1498 75 1498 19 1635 c 1,36,37
 19 1683 19 1683 67 1695 c 1,0,1
EndSplineSet
EndChar

StartChar: bracketright
Encoding: 93 93 92
Width: 742
GlyphClass: 1
Flags: W
IsExtendedShape: 1
GlyphVariantsVertical: bracketright bracketright.s1 bracketright.s2 bracketright.s3 bracketright.s4 bracketright.s5 bracketright.s6 bracketright.s7
GlyphCompositionVertical: 3  bracketright.btm%0,0,0,2934 bracketright.ext%1,0,0,950 bracketright.top%0,0,0,2934
LayerCount: 2
Fore
SplineSet
406 1418 m 2,0,1
 466 1418 466 1418 570 1414 c 0,2,3
 605 1414 605 1414 622 1342 c 1,4,-1
 622 -370 l 2,5,6
 622 -412 622 -412 582 -422 c 1,7,8
 369 -418 369 -418 246 -418 c 2,9,-1
 94 -418 l 2,10,11
 52 -418 52 -418 42 -378 c 1,12,13
 42 -330 42 -330 94 -330 c 2,14,-1
 366 -330 l 2,15,16
 428 -330 428 -330 534 -334 c 1,17,-1
 534 1326 l 1,18,19
 474 1330 474 1330 446 1330 c 2,20,-1
 90 1330 l 2,21,22
 48 1330 48 1330 38 1370 c 1,23,24
 38 1418 38 1418 90 1418 c 2,25,-1
 406 1418 l 2,0,1
EndSplineSet
EndChar

StartChar: bracketright.s1
Encoding: 1114143 -1 93
Width: 742
GlyphClass: 1
Flags: W
IsExtendedShape: 1
LayerCount: 2
Fore
SplineSet
406 1718 m 2,0,-1
 90 1718 l 2,1,2
 38 1718 38 1718 38 1670 c 1,3,4
 48 1630 48 1630 90 1630 c 2,5,-1
 446 1630 l 2,6,7
 474 1630 474 1630 534 1626 c 1,8,-1
 534 -416 l 1,9,10
 428 -412 428 -412 366 -412 c 2,11,-1
 94 -412 l 2,12,13
 42 -412 42 -412 42 -460 c 1,14,15
 52 -500 52 -500 94 -500 c 2,16,-1
 246 -500 l 2,17,18
 369 -500 369 -500 582 -504 c 1,19,20
 622 -494 622 -494 622 -452 c 2,21,-1
 622 1642 l 1,22,23
 605 1714 605 1714 570 1714 c 0,24,25
 466 1718 466 1718 406 1718 c 2,0,-1
EndSplineSet
EndChar

StartChar: bracketright.s2
Encoding: 1114144 -1 94
Width: 742
GlyphClass: 1
Flags: W
IsExtendedShape: 1
LayerCount: 2
Fore
SplineSet
406 2018 m 2,0,-1
 90 2018 l 2,1,2
 38 2018 38 2018 38 1970 c 1,3,4
 48 1930 48 1930 90 1930 c 2,5,-1
 446 1930 l 2,6,7
 474 1930 474 1930 534 1926 c 1,8,-1
 534 -716 l 1,9,10
 428 -712 428 -712 366 -712 c 2,11,-1
 94 -712 l 2,12,13
 42 -712 42 -712 42 -760 c 1,14,15
 52 -800 52 -800 94 -800 c 2,16,-1
 246 -800 l 2,17,18
 369 -800 369 -800 582 -804 c 1,19,20
 622 -794 622 -794 622 -752 c 2,21,-1
 622 1942 l 1,22,23
 605 2014 605 2014 570 2014 c 0,24,25
 466 2018 466 2018 406 2018 c 2,0,-1
EndSplineSet
EndChar

StartChar: bracketright.s3
Encoding: 1114145 -1 95
Width: 742
GlyphClass: 1
Flags: W
IsExtendedShape: 1
LayerCount: 2
Fore
SplineSet
406 2318 m 2,0,-1
 90 2318 l 2,1,2
 38 2318 38 2318 38 2270 c 1,3,4
 48 2230 48 2230 90 2230 c 2,5,-1
 446 2230 l 2,6,7
 474 2230 474 2230 534 2226 c 1,8,-1
 534 -1016 l 1,9,10
 428 -1012 428 -1012 366 -1012 c 2,11,-1
 94 -1012 l 2,12,13
 42 -1012 42 -1012 42 -1060 c 1,14,15
 52 -1100 52 -1100 94 -1100 c 2,16,-1
 246 -1100 l 2,17,18
 369 -1100 369 -1100 582 -1104 c 1,19,20
 622 -1094 622 -1094 622 -1052 c 2,21,-1
 622 2242 l 1,22,23
 605 2314 605 2314 570 2314 c 0,24,25
 466 2318 466 2318 406 2318 c 2,0,-1
EndSplineSet
EndChar

StartChar: bracketright.s4
Encoding: 1114146 -1 96
Width: 742
GlyphClass: 1
Flags: W
IsExtendedShape: 1
LayerCount: 2
Fore
SplineSet
406 2618 m 2,0,-1
 90 2618 l 2,1,2
 38 2618 38 2618 38 2570 c 1,3,4
 48 2530 48 2530 90 2530 c 2,5,-1
 446 2530 l 2,6,7
 474 2530 474 2530 534 2526 c 1,8,-1
 534 -1316 l 1,9,10
 428 -1312 428 -1312 366 -1312 c 2,11,-1
 94 -1312 l 2,12,13
 42 -1312 42 -1312 42 -1360 c 1,14,15
 52 -1400 52 -1400 94 -1400 c 2,16,-1
 246 -1400 l 2,17,18
 369 -1400 369 -1400 582 -1404 c 1,19,20
 622 -1394 622 -1394 622 -1352 c 2,21,-1
 622 2542 l 1,22,23
 605 2614 605 2614 570 2614 c 0,24,25
 466 2618 466 2618 406 2618 c 2,0,-1
EndSplineSet
EndChar

StartChar: bracketright.s5
Encoding: 1114147 -1 97
Width: 742
GlyphClass: 1
Flags: W
IsExtendedShape: 1
LayerCount: 2
Fore
SplineSet
406 2918 m 2,0,-1
 90 2918 l 2,1,2
 38 2918 38 2918 38 2870 c 1,3,4
 48 2830 48 2830 90 2830 c 2,5,-1
 446 2830 l 2,6,7
 474 2830 474 2830 534 2826 c 1,8,-1
 534 -1616 l 1,9,10
 428 -1612 428 -1612 366 -1612 c 2,11,-1
 94 -1612 l 2,12,13
 42 -1612 42 -1612 42 -1660 c 1,14,15
 52 -1700 52 -1700 94 -1700 c 2,16,-1
 246 -1700 l 2,17,18
 369 -1700 369 -1700 582 -1704 c 1,19,20
 622 -1694 622 -1694 622 -1652 c 2,21,-1
 622 2842 l 1,22,23
 605 2914 605 2914 570 2914 c 0,24,25
 466 2918 466 2918 406 2918 c 2,0,-1
EndSplineSet
EndChar

StartChar: bracketright.s6
Encoding: 1114148 -1 98
Width: 742
GlyphClass: 1
Flags: W
IsExtendedShape: 1
LayerCount: 2
Fore
SplineSet
406 3218 m 2,0,-1
 90 3218 l 2,1,2
 38 3218 38 3218 38 3170 c 1,3,4
 48 3130 48 3130 90 3130 c 2,5,-1
 446 3130 l 2,6,7
 474 3130 474 3130 534 3126 c 1,8,-1
 534 -1916 l 1,9,10
 428 -1912 428 -1912 366 -1912 c 2,11,-1
 94 -1912 l 2,12,13
 42 -1912 42 -1912 42 -1960 c 1,14,15
 52 -2000 52 -2000 94 -2000 c 2,16,-1
 246 -2000 l 2,17,18
 369 -2000 369 -2000 582 -2004 c 1,19,20
 622 -1994 622 -1994 622 -1952 c 2,21,-1
 622 3142 l 1,22,23
 605 3214 605 3214 570 3214 c 0,24,25
 466 3218 466 3218 406 3218 c 2,0,-1
EndSplineSet
EndChar

StartChar: bracketright.s7
Encoding: 1114149 -1 99
Width: 742
GlyphClass: 1
Flags: W
IsExtendedShape: 1
LayerCount: 2
Fore
SplineSet
406 3518 m 2,0,-1
 90 3518 l 2,1,2
 38 3518 38 3518 38 3470 c 1,3,4
 48 3430 48 3430 90 3430 c 2,5,-1
 446 3430 l 2,6,7
 474 3430 474 3430 534 3426 c 1,8,-1
 534 -2216 l 1,9,10
 428 -2212 428 -2212 366 -2212 c 2,11,-1
 94 -2212 l 2,12,13
 42 -2212 42 -2212 42 -2260 c 1,14,15
 52 -2300 52 -2300 94 -2300 c 2,16,-1
 246 -2300 l 2,17,18
 369 -2300 369 -2300 582 -2304 c 1,19,20
 622 -2294 622 -2294 622 -2252 c 2,21,-1
 622 3442 l 1,22,23
 605 3514 605 3514 570 3514 c 0,24,25
 466 3518 466 3518 406 3518 c 2,0,-1
EndSplineSet
EndChar

StartChar: bracketright.btm
Encoding: 1114150 -1 100
Width: 742
GlyphClass: 1
Flags: W
LayerCount: 2
Fore
SplineSet
534 2934 m 1,0,-1
 534 89 l 1,1,-1
 366 89 l 1,2,-1
 94 89 l 2,3,4
 42 89 42 89 42 41 c 1,5,6
 52 1 52 1 94 1 c 2,7,-1
 246 1 l 1,8,-1
 582 1 l 1,9,10
 622 12 622 12 622 53 c 2,11,-1
 622 2934 l 1,12,-1
 534 2934 l 1,0,-1
EndSplineSet
EndChar

StartChar: bracketright.ext
Encoding: 1114151 -1 101
Width: 742
GlyphClass: 1
Flags: W
LayerCount: 2
Fore
SplineSet
622 0 m 1,0,-1
 622 958 l 1,1,-1
 534 958 l 1,2,-1
 534 0 l 1,3,-1
 622 0 l 1,0,-1
EndSplineSet
EndChar

StartChar: bracketright.top
Encoding: 1114152 -1 102
Width: 742
GlyphClass: 1
Flags: W
LayerCount: 2
Fore
SplineSet
406 2934 m 2,0,-1
 90 2934 l 2,1,2
 38 2934 38 2934 38 2886 c 1,3,4
 48 2846 48 2846 90 2846 c 2,5,-1
 446 2846 l 2,6,7
 474 2846 474 2846 534 2842 c 1,8,-1
 534 0 l 1,9,-1
 622 0 l 1,10,-1
 622 2858 l 1,11,12
 605 2930 605 2930 570 2930 c 0,13,14
 466 2934 466 2934 406 2934 c 2,0,-1
EndSplineSet
EndChar

StartChar: asciicircum
Encoding: 94 94 103
Width: 1014
GlyphClass: 1
Flags: W
LayerCount: 2
Fore
SplineSet
508 1856 m 1,0,-1
 520 1856 l 2,1,2
 572 1856 572 1856 660 1732 c 1,3,4
 754 1648 754 1648 760 1648 c 0,5,6
 860 1580 860 1580 860 1524 c 1,7,8
 851 1480 851 1480 812 1480 c 0,9,10
 789 1482 789 1482 748 1544 c 1,11,12
 648 1608 648 1608 548 1732 c 1,13,14
 520 1751 520 1751 520 1760 c 1,15,16
 427 1667 427 1667 404 1632 c 1,17,18
 399 1632 399 1632 356 1584 c 1,19,20
 332 1572 332 1572 332 1564 c 1,21,22
 235 1476 235 1476 208 1476 c 0,23,24
 170 1476 170 1476 164 1524 c 0,25,26
 164 1545 164 1545 240 1600 c 1,27,28
 351 1703 351 1703 432 1800 c 1,29,30
 439 1800 439 1800 480 1852 c 1,31,-1
 508 1856 l 1,0,-1
EndSplineSet
EndChar

StartChar: underscore
Encoding: 95 95 104
Width: 1020
GlyphClass: 1
Flags: W
LayerCount: 2
Fore
SplineSet
84 -356 m 2,0,-1
 936 -356 l 2,1,2
 988 -356 988 -356 988 -404 c 1,3,4
 978 -444 978 -444 936 -444 c 2,5,-1
 84 -444 l 2,6,7
 32 -444 32 -444 32 -396 c 1,8,9
 42 -356 42 -356 84 -356 c 2,0,-1
EndSplineSet
EndChar

StartChar: grave
Encoding: 96 96 105
Width: 1024
GlyphClass: 1
Flags: W
LayerCount: 2
Fore
SplineSet
349 1846 m 1,0,1
 381 1842 381 1842 501 1738 c 1,2,3
 561 1713 561 1713 617 1658 c 1,4,5
 717 1607 717 1607 745 1566 c 1,6,-1
 749 1546 l 1,7,8
 740 1502 740 1502 701 1502 c 1,9,10
 658 1521 658 1521 541 1606 c 1,11,12
 531 1626 531 1626 437 1674 c 1,13,14
 437 1680 437 1680 365 1734 c 2,15,-1
 313 1774 l 1,16,17
 301 1791 301 1791 301 1806 c 1,18,19
 313 1846 313 1846 349 1846 c 1,0,1
EndSplineSet
EndChar

StartChar: a
Encoding: 97 97 106
Width: 942
GlyphClass: 1
Flags: W
TopAccentHorizontal: 456
LayerCount: 2
Fore
SplineSet
426 976 m 2,0,-1
 554 976 l 2,1,2
 633 976 633 976 746 880 c 1,3,4
 772 843 772 843 802 744 c 1,5,6
 810 736 810 736 818 640 c 1,7,8
 822 116 822 116 822 4 c 1,9,10
 813 -40 813 -40 774 -40 c 1,11,12
 734 -30 734 -30 734 12 c 2,13,-1
 734 104 l 1,14,15
 579 -7 579 -7 530 -12 c 1,16,17
 498 -36 498 -36 410 -36 c 2,18,-1
 374 -36 l 2,19,20
 182 -36 182 -36 106 136 c 0,21,22
 90 176 90 176 90 204 c 2,23,-1
 90 252 l 2,24,25
 90 385 90 385 218 456 c 1,26,27
 249 484 249 484 426 540 c 0,28,29
 447 544 447 544 474 544 c 2,30,-1
 530 544 l 2,31,32
 619 544 619 544 730 512 c 1,33,-1
 730 620 l 2,34,35
 730 732 730 732 674 824 c 1,36,37
 654 838 654 838 634 852 c 0,38,39
 587 888 587 888 554 888 c 2,40,-1
 442 888 l 1,41,42
 359 877 359 877 234 780 c 1,43,44
 187 736 187 736 166 736 c 1,45,46
 126 748 126 748 126 784 c 0,47,48
 126 838 126 838 330 944 c 0,49,50
 400 976 400 976 426 976 c 2,0,-1
178 204 m 1,51,52
 201 121 201 121 262 80 c 0,53,54
 301 52 301 52 390 52 c 2,55,-1
 418 52 l 2,56,57
 497 52 497 52 638 144 c 1,58,59
 734 218 734 218 734 240 c 0,60,61
 734 277 734 277 730 416 c 1,62,63
 633 456 633 456 526 456 c 2,64,-1
 486 456 l 2,65,66
 421 456 421 456 286 396 c 1,67,68
 178 339 178 339 178 244 c 2,69,-1
 178 204 l 1,51,52
EndSplineSet
EndChar

StartChar: b
Encoding: 98 98 107
Width: 1090
GlyphClass: 1
Flags: W
TopAccentHorizontal: 560
LayerCount: 2
Fore
SplineSet
168 1480 m 1,0,1
 208 1470 208 1470 208 1428 c 2,2,-1
 208 132 l 1,3,4
 226 111 226 111 272 92 c 1,5,6
 330 52 330 52 420 52 c 1,7,8
 420 48 420 48 436 48 c 2,9,-1
 536 48 l 1,10,11
 665 63 665 63 752 112 c 1,12,13
 844 170 844 170 884 304 c 1,14,15
 912 488 912 488 912 524 c 2,16,-1
 912 588 l 1,17,18
 905 698 905 698 768 852 c 1,19,20
 730 884 730 884 600 916 c 1,21,-1
 484 916 l 2,22,23
 459 916 459 916 372 868 c 0,24,25
 348 852 348 852 332 852 c 0,26,27
 288 861 288 861 288 900 c 0,28,29
 288 949 288 949 468 1004 c 1,30,-1
 604 1004 l 1,31,32
 765 979 765 979 848 900 c 1,33,34
 997 717 997 717 1000 596 c 2,35,-1
 1000 504 l 1,36,37
 972 249 972 249 948 216 c 1,38,39
 945 184 945 184 852 76 c 1,40,-1
 780 24 l 1,41,42
 679 -24 679 -24 552 -40 c 1,43,-1
 432 -40 l 1,44,45
 318 -32 318 -32 256 -4 c 1,46,47
 149 60 149 60 140 60 c 1,48,49
 120 77 120 77 120 104 c 2,50,-1
 120 1428 l 2,51,52
 120 1480 120 1480 168 1480 c 1,0,1
EndSplineSet
EndChar

StartChar: c
Encoding: 99 99 108
Width: 1102
GlyphClass: 1
Flags: W
TopAccentHorizontal: 556
LayerCount: 2
Fore
SplineSet
606 1002 m 1,0,1
 760 980 760 980 846 926 c 1,2,3
 911 879 911 879 922 862 c 1,4,5
 936 862 936 862 990 782 c 1,6,7
 1022 723 1022 723 1022 706 c 0,8,9
 1013 662 1013 662 974 662 c 0,10,11
 945 662 945 662 906 750 c 1,12,13
 855 817 855 817 794 850 c 0,14,15
 701 906 701 906 622 906 c 1,16,17
 622 913 622 913 594 914 c 2,18,-1
 550 914 l 2,19,20
 441 914 441 914 346 826 c 1,21,22
 338 826 338 826 298 786 c 0,23,24
 211 694 211 694 190 570 c 1,25,26
 178 527 178 527 178 486 c 2,27,-1
 178 386 l 1,28,29
 208 261 208 261 242 206 c 1,30,31
 242 190 242 190 286 142 c 1,32,33
 389 66 389 66 446 66 c 1,34,35
 487 51 487 51 578 42 c 1,36,-1
 658 42 l 1,37,38
 796 73 796 73 870 146 c 0,39,40
 898 172 898 172 942 302 c 1,41,42
 969 314 969 314 978 314 c 0,43,44
 1018 304 1018 304 1018 262 c 0,45,46
 1018 231 1018 231 970 130 c 1,47,48
 915 58 915 58 862 26 c 0,49,50
 804 -14 804 -14 674 -46 c 1,51,-1
 562 -46 l 1,52,53
 334 -14 334 -14 334 10 c 1,54,55
 195 73 195 73 150 186 c 0,56,57
 117 261 117 261 90 366 c 1,58,-1
 90 490 l 2,59,60
 90 660 90 660 222 838 c 1,61,-1
 278 890 l 1,62,63
 419 1002 419 1002 534 1002 c 2,64,-1
 606 1002 l 1,0,1
EndSplineSet
EndChar

StartChar: d
Encoding: 100 100 109
Width: 1094
GlyphClass: 1
Flags: W
TopAccentHorizontal: 532
LayerCount: 2
Fore
SplineSet
934 1488 m 1,0,1
 974 1478 974 1478 974 1436 c 2,2,-1
 974 8 l 2,3,4
 974 -44 974 -44 926 -44 c 1,5,6
 886 -34 886 -34 886 8 c 2,7,-1
 886 100 l 1,8,9
 797 11 797 11 686 -32 c 1,10,-1
 598 -52 l 1,11,-1
 458 -52 l 1,12,13
 315 -32 315 -32 254 12 c 1,14,15
 227 12 227 12 126 148 c 1,16,-1
 90 268 l 1,17,-1
 90 484 l 1,18,19
 132 707 132 707 234 824 c 0,20,21
 273 873 273 873 358 940 c 1,22,23
 480 1008 480 1008 530 1008 c 2,24,-1
 646 1008 l 1,25,26
 730 999 730 999 782 984 c 0,27,28
 820 972 820 972 886 936 c 1,29,-1
 886 1436 l 2,30,31
 886 1488 886 1488 934 1488 c 1,0,1
178 472 m 1,32,-1
 178 284 l 1,33,34
 182 205 182 205 282 96 c 1,35,36
 379 41 379 41 478 36 c 1,37,-1
 578 36 l 2,38,39
 671 36 671 36 810 148 c 1,40,-1
 882 252 l 1,41,-1
 886 252 l 1,42,-1
 886 824 l 1,43,44
 874 849 874 849 782 888 c 0,45,46
 730 911 730 911 634 920 c 1,47,-1
 542 920 l 1,48,49
 404 888 404 888 338 804 c 1,50,51
 258 723 258 723 242 668 c 1,52,53
 210 620 210 620 190 532 c 2,54,-1
 178 472 l 1,32,-1
EndSplineSet
EndChar

StartChar: e
Encoding: 101 101 110
Width: 1126
GlyphClass: 1
Flags: W
TopAccentHorizontal: 568
LayerCount: 2
Fore
SplineSet
494 990 m 2,0,-1
 678 990 l 1,1,2
 826 963 826 963 894 902 c 1,3,4
 1046 714 1046 714 1046 530 c 2,5,-1
 1046 494 l 2,6,7
 1046 442 1046 442 998 442 c 0,8,9
 321 446 321 446 182 446 c 1,10,11
 182 450 182 450 178 450 c 1,12,-1
 178 414 l 1,13,14
 221 234 221 234 266 186 c 1,15,16
 302 112 302 112 414 70 c 1,17,18
 518 42 518 42 598 42 c 0,19,20
 740 42 740 42 862 130 c 1,21,22
 941 203 941 203 962 246 c 1,23,24
 979 258 979 258 994 258 c 0,25,26
 1034 248 1034 248 1034 202 c 1,27,28
 1022 146 1022 146 882 34 c 0,29,30
 844 1 844 1 686 -38 c 1,31,32
 629 -46 629 -46 606 -46 c 2,33,-1
 590 -46 l 2,34,35
 374 -46 374 -46 226 82 c 1,36,-1
 146 210 l 1,37,38
 118 296 118 296 90 406 c 1,39,-1
 90 570 l 1,40,41
 107 698 107 698 158 810 c 1,42,43
 250 918 250 918 338 946 c 1,44,45
 452 990 452 990 494 990 c 2,0,-1
178 562 m 1,46,-1
 178 538 l 1,47,-1
 214 534 l 1,48,-1
 958 534 l 1,49,50
 958 650 958 650 862 802 c 1,51,52
 857 802 857 802 818 850 c 1,53,54
 769 884 769 884 670 902 c 1,55,-1
 506 902 l 1,56,57
 437 898 437 898 314 838 c 1,58,59
 210 759 210 759 210 690 c 1,60,61
 195 667 195 667 178 562 c 1,46,-1
EndSplineSet
EndChar

StartChar: f
Encoding: 102 102 111
Width: 570
GlyphClass: 1
Flags: W
TopAccentHorizontal: 396
LayerCount: 2
Fore
SplineSet
474 1452 m 2,0,-1
 534 1452 l 2,1,2
 609 1452 609 1452 702 1376 c 0,3,4
 770 1322 770 1322 770 1288 c 1,5,6
 760 1248 760 1248 718 1248 c 0,7,8
 698 1248 698 1248 646 1308 c 1,9,10
 576 1359 576 1359 526 1364 c 1,11,-1
 486 1364 l 1,12,13
 407 1348 407 1348 386 1312 c 1,14,15
 314 1223 314 1223 314 1060 c 2,16,-1
 314 960 l 1,17,-1
 510 960 l 2,18,19
 562 960 562 960 562 912 c 1,20,21
 552 872 552 872 510 872 c 2,22,-1
 314 872 l 1,23,-1
 314 16 l 2,24,25
 314 -36 314 -36 266 -36 c 1,26,27
 226 -26 226 -26 226 16 c 2,28,-1
 226 872 l 1,29,-1
 74 872 l 2,30,31
 22 872 22 872 22 920 c 1,32,33
 32 960 32 960 74 960 c 2,34,-1
 226 960 l 1,35,-1
 226 1076 l 2,36,37
 226 1217 226 1217 282 1320 c 1,38,39
 363 1440 363 1440 430 1440 c 1,40,41
 451 1451 451 1451 474 1452 c 2,0,-1
EndSplineSet
EndChar

StartChar: g
Encoding: 103 103 112
Width: 1055
GlyphClass: 1
Flags: W
TopAccentHorizontal: 558
LayerCount: 2
Fore
SplineSet
205 648 m 2,0,-1
 205 532 l 1,1,2
 221 472 221 472 305 396 c 1,3,4
 400 336 400 336 621 336 c 2,5,-1
 633 336 l 1,6,7
 765 370 765 370 765 404 c 1,8,9
 793 404 793 404 833 500 c 0,10,11
 845 536 845 536 853 584 c 1,12,-1
 853 672 l 2,13,14
 853 745 853 745 769 832 c 1,15,16
 686 892 686 892 613 892 c 1,17,18
 583 912 583 912 469 912 c 2,19,-1
 441 912 l 1,20,21
 374 900 374 900 293 832 c 1,22,23
 207 700 207 700 205 648 c 2,0,-1
305 300 m 1,24,25
 294 281 294 281 280 256 c 0,26,27
 259 213 259 213 252 164 c 1,28,-1
 252 124 l 2,29,30
 252 101 252 101 320 88 c 1,31,-1
 408 88 l 2,32,33
 810 88 810 88 920 -8 c 1,34,35
 935 -8 935 -8 972 -72 c 1,36,37
 996 -133 996 -133 996 -192 c 2,38,-1
 996 -260 l 2,39,40
 996 -324 996 -324 868 -408 c 1,41,42
 708 -500 708 -500 632 -500 c 1,43,44
 632 -504 632 -504 592 -504 c 2,45,-1
 464 -504 l 1,46,47
 210 -460 210 -460 108 -368 c 1,48,49
 60 -339 60 -339 60 -200 c 2,50,-1
 60 -176 l 2,51,52
 60 -120 60 -120 124 -40 c 0,53,54
 147 -12 147 -12 172 -8 c 1,55,56
 216 -20 216 -20 216 -52 c 0,57,58
 216 -73 216 -73 180 -116 c 0,59,60
 148 -155 148 -155 148 -196 c 0,61,62
 148 -293 148 -293 176 -312 c 0,63,64
 288 -380 288 -380 336 -380 c 1,65,66
 377 -400 377 -400 476 -416 c 1,67,-1
 584 -416 l 2,68,69
 666 -416 666 -416 736 -376 c 1,70,71
 799 -352 799 -352 876 -292 c 0,72,73
 892 -280 892 -280 908 -252 c 1,74,-1
 908 -192 l 2,75,76
 908 -117 908 -117 868 -80 c 0,77,78
 773 0 773 0 396 0 c 2,79,-1
 304 0 l 1,80,81
 164 32 164 32 164 116 c 2,82,-1
 164 184 l 1,83,84
 194 294 194 294 226 346 c 1,85,86
 198 371 198 371 173 408 c 0,87,88
 117 483 117 483 117 520 c 2,89,-1
 117 648 l 2,90,91
 117 734 117 734 233 900 c 1,92,93
 334 985 334 985 425 1000 c 1,94,-1
 485 1000 l 2,95,96
 579 1000 579 1000 661 976 c 1,97,98
 696 976 696 976 773 936 c 1,99,100
 826 964 826 964 909 992 c 1,101,102
 909 1007 909 1007 1005 1012 c 0,103,104
 1057 1012 1057 1012 1057 964 c 0,105,106
 1057 923 1057 923 949 916 c 1,107,108
 922 901 922 901 857 880 c 1,109,-1
 857 872 l 1,110,111
 941 764 941 764 941 684 c 2,112,-1
 941 568 l 1,113,114
 929 490 929 490 901 428 c 0,115,116
 856 340 856 340 761 284 c 0,117,118
 714 260 714 260 645 248 c 1,119,-1
 601 248 l 2,120,121
 472 248 472 248 353 276 c 1,122,-1
 305 300 l 1,24,25
EndSplineSet
EndChar

StartChar: h
Encoding: 104 104 113
Width: 1100
GlyphClass: 1
Flags: W
TopAccentHorizontal: 550
LayerCount: 2
Fore
SplineSet
168 1488 m 1,0,1
 208 1478 208 1478 208 1436 c 2,2,-1
 208 684 l 1,3,4
 256 748 256 748 276 764 c 1,5,6
 345 847 345 847 376 860 c 1,7,8
 529 969 529 969 628 980 c 1,9,-1
 744 980 l 1,10,11
 803 972 803 972 872 916 c 1,12,13
 936 828 936 828 948 756 c 1,14,15
 972 692 972 692 980 560 c 1,16,-1
 980 0 l 2,17,18
 980 -52 980 -52 932 -52 c 1,19,20
 892 -42 892 -42 892 0 c 2,21,-1
 892 564 l 1,22,23
 884 668 884 668 852 776 c 1,24,25
 805 876 805 876 772 876 c 1,26,27
 772 883 772 883 732 892 c 1,28,-1
 648 892 l 2,29,30
 568 892 568 892 392 764 c 1,31,32
 239 599 239 599 208 496 c 1,33,-1
 208 4 l 2,34,35
 208 -48 208 -48 160 -48 c 1,36,37
 120 -38 120 -38 120 4 c 2,38,-1
 120 1436 l 2,39,40
 120 1488 120 1488 168 1488 c 1,0,1
EndSplineSet
EndChar

StartChar: i
Encoding: 105 105 114
Width: 388
GlyphClass: 1
Flags: W
TopAccentHorizontal: 193
LayerCount: 2
Fore
SplineSet
199 1405 m 1,0,1
 256 1388 256 1388 256 1336 c 1,2,3
 243 1273 243 1273 187 1273 c 1,4,5
 130 1290 130 1290 130 1342 c 1,6,7
 143 1405 143 1405 199 1405 c 1,0,1
196 1004 m 1,8,9
 236 994 236 994 236 952 c 2,10,-1
 236 16 l 2,11,12
 236 -36 236 -36 188 -36 c 1,13,14
 148 -26 148 -26 148 16 c 2,15,-1
 148 952 l 2,16,17
 148 1004 148 1004 196 1004 c 1,8,9
EndSplineSet
EndChar

StartChar: j
Encoding: 106 106 115
Width: 388
GlyphClass: 1
Flags: W
TopAccentHorizontal: 196
LayerCount: 2
Fore
SplineSet
199 1405 m 1,0,1
 256 1388 256 1388 256 1336 c 1,2,3
 243 1273 243 1273 187 1273 c 1,4,5
 130 1290 130 1290 130 1342 c 1,6,7
 143 1405 143 1405 199 1405 c 1,0,1
197 1000 m 1,8,9
 237 990 237 990 237 948 c 2,10,-1
 237 -176 l 2,11,12
 237 -270 237 -270 133 -400 c 1,13,14
 43 -468 43 -468 -11 -468 c 2,15,-1
 -83 -468 l 2,16,17
 -146 -468 -146 -468 -239 -412 c 1,18,19
 -287 -390 -287 -390 -287 -356 c 1,20,21
 -278 -312 -278 -312 -239 -312 c 0,22,23
 -235 -312 -235 -312 -123 -372 c 1,24,25
 -93 -380 -93 -380 -67 -380 c 2,26,-1
 -23 -380 l 2,27,28
 28 -380 28 -380 93 -308 c 1,29,30
 149 -222 149 -222 149 -164 c 2,31,-1
 149 948 l 2,32,33
 149 1000 149 1000 197 1000 c 1,8,9
EndSplineSet
EndChar

StartChar: k
Encoding: 107 107 116
Width: 946
GlyphClass: 1
Flags: W
TopAccentHorizontal: 520
LayerCount: 2
Fore
SplineSet
168 1484 m 1,0,1
 208 1474 208 1474 208 1432 c 2,2,-1
 208 528 l 1,3,4
 241 554 241 554 392 700 c 1,5,6
 405 700 405 700 428 736 c 1,7,8
 594 874 594 874 612 896 c 1,9,10
 647 919 647 919 724 988 c 1,11,12
 759 1008 759 1008 772 1008 c 0,13,14
 816 999 816 999 816 960 c 0,15,16
 816 939 816 939 732 880 c 1,17,18
 701 844 701 844 660 824 c 1,19,20
 649 803 649 803 528 708 c 1,21,22
 528 698 528 698 488 672 c 0,23,24
 488 668 488 668 408 592 c 1,25,26
 617 393 617 393 684 304 c 1,27,28
 719 271 719 271 740 232 c 1,29,30
 753 232 753 232 796 168 c 1,31,32
 803 168 803 168 864 84 c 1,33,34
 919 33 919 33 920 0 c 1,35,36
 908 -40 908 -40 872 -40 c 0,37,38
 844 -40 844 -40 792 36 c 1,39,40
 764 54 764 54 748 92 c 1,41,42
 721 114 721 114 640 224 c 1,43,44
 509 375 509 375 408 472 c 0,45,46
 403 480 403 480 340 532 c 1,47,48
 340 524 340 524 208 404 c 1,49,-1
 208 16 l 2,50,51
 208 -36 208 -36 160 -36 c 1,52,53
 120 -26 120 -26 120 16 c 2,54,-1
 120 1432 l 2,55,56
 120 1484 120 1484 168 1484 c 1,0,1
EndSplineSet
EndChar

StartChar: l
Encoding: 108 108 117
Width: 340
GlyphClass: 1
Flags: W
TopAccentHorizontal: 220
LayerCount: 2
Fore
SplineSet
168 1484 m 1,0,1
 208 1474 208 1474 208 1432 c 2,2,-1
 208 50 l 1,3,4
 278 44 278 44 312 24 c 0,5,6
 325 16 325 16 316 -14 c 0,7,8
 305 -46 305 -46 276 -46 c 0,9,10
 121 -46 121 -46 120 15 c 0,11,12
 120 20 120 20 120 26 c 2,13,-1
 120 1432 l 2,14,15
 120 1484 120 1484 168 1484 c 1,0,1
EndSplineSet
EndChar

StartChar: m
Encoding: 109 109 118
Width: 1516
GlyphClass: 1
Flags: W
TopAccentHorizontal: 758
LayerCount: 2
Fore
SplineSet
168 1004 m 1,0,1
 208 994 208 994 208 952 c 2,2,-1
 208 772 l 1,3,4
 323 965 323 965 428 992 c 0,5,6
 473 1004 473 1004 496 1004 c 2,7,-1
 580 1004 l 2,8,9
 653 1004 653 1004 740 904 c 1,10,11
 784 798 784 798 784 740 c 1,12,13
 792 740 792 740 792 712 c 1,14,-1
 796 712 l 1,15,16
 809 766 809 766 900 884 c 0,17,18
 991 996 991 996 1128 996 c 2,19,-1
 1200 996 l 2,20,21
 1270 996 1270 996 1340 912 c 1,22,23
 1392 823 1392 823 1392 636 c 2,24,-1
 1392 64 l 2,25,26
 1392 41 1392 41 1396 0 c 1,27,28
 1384 -40 1384 -40 1348 -40 c 1,29,30
 1304 -26 1304 -26 1304 24 c 2,31,-1
 1304 624 l 2,32,33
 1304 857 1304 857 1232 896 c 1,34,35
 1196 908 1196 908 1184 908 c 2,36,-1
 1140 908 l 2,37,38
 1047 908 1047 908 1000 860 c 0,39,40
 905 760 905 760 856 644 c 0,41,42
 808 535 808 535 792 480 c 1,43,44
 796 220 796 220 796 76 c 2,45,-1
 796 8 l 2,46,47
 796 -44 796 -44 748 -44 c 1,48,49
 708 -32 708 -32 708 4 c 0,50,51
 704 511 704 511 704 704 c 1,52,53
 689 820 689 820 652 872 c 1,54,55
 604 916 604 916 564 916 c 2,56,-1
 500 916 l 2,57,58
 425 916 425 916 348 824 c 1,59,60
 208 628 208 628 208 428 c 2,61,-1
 208 20 l 2,62,63
 208 -32 208 -32 160 -32 c 1,64,65
 120 -22 120 -22 120 20 c 2,66,-1
 120 952 l 2,67,68
 120 1004 120 1004 168 1004 c 1,0,1
EndSplineSet
EndChar

StartChar: n
Encoding: 110 110 119
Width: 1100
GlyphClass: 1
Flags: W
TopAccentHorizontal: 550
LayerCount: 2
Fore
SplineSet
168 998 m 1,0,1
 208 988 208 988 208 946 c 2,2,-1
 208 684 l 1,3,4
 256 748 256 748 276 764 c 1,5,6
 345 847 345 847 376 860 c 1,7,8
 529 969 529 969 628 980 c 1,9,-1
 744 980 l 1,10,11
 803 972 803 972 872 916 c 1,12,13
 936 828 936 828 948 756 c 1,14,15
 972 692 972 692 980 560 c 1,16,-1
 980 0 l 2,17,18
 980 -52 980 -52 932 -52 c 1,19,20
 892 -42 892 -42 892 0 c 2,21,-1
 892 564 l 1,22,23
 884 668 884 668 852 776 c 1,24,25
 805 876 805 876 772 876 c 1,26,27
 772 883 772 883 732 892 c 1,28,-1
 648 892 l 2,29,30
 568 892 568 892 392 764 c 1,31,32
 239 599 239 599 208 496 c 1,33,-1
 208 4 l 2,34,35
 208 -48 208 -48 160 -48 c 1,36,37
 120 -38 120 -38 120 4 c 2,38,-1
 120 946 l 2,39,40
 120 998 120 998 168 998 c 1,0,1
EndSplineSet
EndChar

StartChar: o
Encoding: 111 111 120
Width: 1152
GlyphClass: 1
Flags: W
TopAccentHorizontal: 576
LayerCount: 2
Fore
SplineSet
494 1020 m 2,0,-1
 642 1020 l 2,1,2
 774 1020 774 1020 882 940 c 1,3,4
 992 795 992 795 1014 724 c 1,5,6
 1031 708 1031 708 1062 584 c 1,7,8
 1058 450 1058 450 1058 404 c 1,9,10
 1039 205 1039 205 1002 148 c 0,11,12
 927 22 927 22 774 -28 c 0,13,14
 739 -40 739 -40 694 -40 c 2,15,-1
 558 -40 l 2,16,17
 494 -40 494 -40 370 4 c 0,18,19
 288 34 288 34 206 108 c 1,20,21
 157 166 157 166 130 232 c 0,22,23
 90 336 90 336 90 424 c 2,24,-1
 90 480 l 2,25,26
 90 692 90 692 210 864 c 1,27,28
 289 945 289 945 378 976 c 0,29,30
 444 996 444 996 474 1016 c 0,31,32
 481 1020 481 1020 494 1020 c 2,0,-1
178 444 m 2,33,-1
 178 436 l 2,34,35
 178 327 178 327 238 216 c 1,36,37
 268 144 268 144 418 80 c 0,38,39
 468 60 468 60 574 48 c 1,40,-1
 690 48 l 2,41,42
 785 48 785 48 894 148 c 1,43,44
 954 233 954 233 954 296 c 1,45,46
 970 375 970 375 974 568 c 1,47,48
 928 734 928 734 878 788 c 1,49,50
 814 890 814 890 794 892 c 1,51,52
 725 932 725 932 614 932 c 2,53,-1
 538 932 l 1,54,55
 519 921 519 921 434 904 c 1,56,57
 287 851 287 851 238 740 c 1,58,59
 178 626 178 626 178 444 c 2,33,-1
EndSplineSet
EndChar

StartChar: p
Encoding: 112 112 121
Width: 1110
GlyphClass: 1
Flags: W
TopAccentHorizontal: 570
LayerCount: 2
Fore
SplineSet
452 1008 m 1,0,-1
 588 1008 l 2,1,2
 661 1008 661 1008 792 948 c 1,3,4
 883 898 883 898 940 828 c 1,5,6
 1016 718 1016 718 1016 600 c 1,7,8
 1020 600 1020 600 1020 584 c 2,9,-1
 1020 432 l 2,10,11
 1020 379 1020 379 968 232 c 1,12,13
 953 220 953 220 912 124 c 1,14,15
 809 -20 809 -20 612 -20 c 2,16,-1
 496 -20 l 2,17,18
 402 -20 402 -20 260 60 c 0,19,20
 232 75 232 75 232 104 c 1,21,22
 242 144 242 144 288 144 c 0,23,24
 298 144 298 144 396 92 c 1,25,26
 457 68 457 68 500 68 c 2,27,-1
 600 68 l 2,28,29
 793 68 793 68 852 204 c 1,30,31
 932 357 932 357 932 444 c 2,32,-1
 932 572 l 1,33,34
 908 744 908 744 888 744 c 1,35,36
 852 812 852 812 768 860 c 1,37,38
 649 920 649 920 576 920 c 2,39,-1
 464 920 l 1,40,41
 362 911 362 911 248 816 c 0,42,43
 208 783 208 783 208 776 c 2,44,-1
 208 -456 l 2,45,46
 208 -508 208 -508 160 -508 c 1,47,48
 120 -498 120 -498 120 -456 c 2,49,-1
 120 948 l 2,50,51
 120 1000 120 1000 168 1000 c 1,52,53
 208 990 208 990 208 948 c 2,54,-1
 208 900 l 1,55,56
 337 994 337 994 452 1008 c 1,0,-1
EndSplineSet
EndChar

StartChar: q
Encoding: 113 113 122
Width: 1106
GlyphClass: 1
Flags: W
TopAccentHorizontal: 538
LayerCount: 2
Fore
SplineSet
494 1011 m 1,0,-1
 670 1011 l 1,1,2
 838 987 838 987 918 963 c 1,3,4
 934 971 934 971 946 971 c 0,5,6
 986 960 986 960 986 919 c 2,7,-1
 986 -469 l 2,8,9
 986 -521 986 -521 938 -521 c 1,10,11
 898 -510 898 -510 898 -469 c 2,12,-1
 898 87 l 1,13,14
 722 -18 722 -18 622 -25 c 1,15,-1
 606 -25 l 2,16,17
 374 -25 374 -25 242 79 c 1,18,19
 197 120 197 120 150 183 c 0,20,21
 90 256 90 256 90 327 c 2,22,-1
 90 459 l 2,23,24
 90 670 90 670 166 783 c 1,25,26
 192 835 192 835 258 907 c 1,27,28
 399 1003 399 1003 494 1011 c 1,0,-1
178 447 m 2,29,-1
 178 327 l 1,30,31
 182 281 182 281 234 223 c 1,32,33
 259 184 259 184 290 159 c 1,34,35
 295 139 295 139 394 95 c 1,36,37
 504 63 504 63 614 63 c 1,38,39
 717 75 717 75 866 175 c 0,40,41
 883 191 883 191 898 215 c 1,42,-1
 898 875 l 1,43,44
 824 899 824 899 658 923 c 1,45,-1
 498 923 l 1,46,47
 362 887 362 887 294 815 c 1,48,49
 294 806 294 806 274 791 c 1,50,51
 206 679 206 679 206 667 c 0,52,53
 178 556 178 556 178 447 c 2,29,-1
EndSplineSet
EndChar

StartChar: r
Encoding: 114 114 123
Width: 833
GlyphClass: 1
Flags: W
TopAccentHorizontal: 472
LayerCount: 2
Fore
SplineSet
168 1000 m 1,0,1
 208 990 208 990 208 948 c 2,2,-1
 208 596 l 1,3,-1
 212 596 l 1,4,5
 221 651 221 651 296 764 c 1,6,7
 307 770 307 770 336 824 c 1,8,9
 414 928 414 928 436 928 c 1,10,11
 494 988 494 988 616 988 c 2,12,-1
 668 988 l 1,13,14
 780 959 780 959 820 896 c 1,15,-1
 824 876 l 1,16,17
 815 832 815 832 776 832 c 0,18,19
 770 832 770 832 692 888 c 1,20,21
 663 900 663 900 656 900 c 2,22,-1
 636 900 l 2,23,24
 549 900 549 900 516 880 c 0,25,26
 426 821 426 821 380 724 c 1,27,28
 316 655 316 655 272 508 c 1,29,30
 248 469 248 469 216 212 c 1,31,32
 216 164 216 164 208 132 c 1,33,-1
 208 8 l 2,34,35
 208 -44 208 -44 160 -44 c 1,36,37
 120 -34 120 -34 120 8 c 2,38,-1
 120 948 l 2,39,40
 120 1000 120 1000 168 1000 c 1,0,1
EndSplineSet
EndChar

StartChar: s
Encoding: 115 115 124
Width: 878
GlyphClass: 1
Flags: W
TopAccentHorizontal: 439
LayerCount: 2
Fore
SplineSet
433 1004 m 2,0,-1
 501 1004 l 2,1,2
 687 1004 687 1004 769 812 c 1,3,-1
 769 800 l 1,4,5
 760 756 760 756 721 756 c 0,6,7
 693 756 693 756 669 820 c 1,8,9
 612 916 612 916 489 916 c 2,10,-1
 437 916 l 2,11,12
 265 916 265 916 201 788 c 0,13,14
 189 768 189 768 189 736 c 2,15,-1
 189 728 l 2,16,17
 189 651 189 651 341 608 c 1,18,19
 664 536 664 536 737 472 c 0,20,21
 821 396 821 396 821 300 c 1,22,23
 830 300 830 300 833 210 c 0,24,25
 833 132 833 132 753 54 c 0,26,27
 636 -54 636 -54 485 -54 c 2,28,-1
 389 -54 l 2,29,30
 241 -54 241 -54 153 22 c 1,31,32
 78 97 78 97 61 166 c 0,33,34
 45 226 45 226 45 238 c 0,35,36
 54 282 54 282 93 282 c 0,37,38
 130 282 130 282 153 170 c 1,39,40
 212 34 212 34 401 34 c 2,41,-1
 417 34 l 2,42,43
 606 34 606 34 653 90 c 1,44,45
 745 151 745 151 745 214 c 1,46,47
 716 396 716 396 685 396 c 1,48,49
 639 442 639 442 465 488 c 1,50,51
 290 525 290 525 225 556 c 0,52,53
 144 597 144 597 105 684 c 1,54,-1
 101 712 l 1,55,-1
 101 760 l 2,56,57
 101 827 101 827 201 932 c 1,58,59
 301 1004 301 1004 433 1004 c 2,0,-1
EndSplineSet
EndChar

StartChar: t
Encoding: 116 116 125
Width: 815
GlyphClass: 1
Flags: W
TopAccentHorizontal: 368
LayerCount: 2
Fore
SplineSet
372 1240 m 1,0,1
 412 1230 412 1230 412 1188 c 2,2,-1
 412 960 l 1,3,-1
 748 960 l 2,4,5
 800 960 800 960 800 912 c 1,6,7
 790 872 790 872 748 872 c 2,8,-1
 412 872 l 1,9,-1
 412 244 l 2,10,11
 412 152 412 152 452 88 c 1,12,13
 480 56 480 56 528 56 c 2,14,-1
 556 56 l 2,15,16
 619 56 619 56 732 104 c 1,17,-1
 744 104 l 1,18,19
 788 95 788 95 788 56 c 0,20,21
 788 2 788 2 572 -32 c 1,22,-1
 516 -32 l 2,23,24
 393 -32 393 -32 344 108 c 1,25,26
 324 189 324 189 324 232 c 2,27,-1
 324 872 l 1,28,-1
 96 872 l 2,29,30
 44 872 44 872 44 920 c 1,31,32
 54 960 54 960 96 960 c 2,33,-1
 324 960 l 1,34,-1
 324 1188 l 2,35,36
 324 1240 324 1240 372 1240 c 1,0,1
EndSplineSet
EndChar

StartChar: u
Encoding: 117 117 126
Width: 1104
GlyphClass: 1
Flags: W
TopAccentHorizontal: 552
LayerCount: 2
Fore
SplineSet
944 1020 m 1,0,1
 984 1010 984 1010 984 968 c 2,2,-1
 984 16 l 2,3,4
 984 -36 984 -36 936 -36 c 1,5,6
 896 -26 896 -26 896 16 c 2,7,-1
 896 256 l 1,8,9
 892 256 892 256 844 192 c 1,10,11
 717 59 717 59 616 24 c 1,12,13
 514 -28 514 -28 444 -28 c 2,14,-1
 392 -28 l 2,15,16
 204 -28 204 -28 132 216 c 0,17,18
 120 270 120 270 120 304 c 2,19,-1
 120 960 l 2,20,21
 120 1012 120 1012 168 1012 c 1,22,23
 208 1002 208 1002 208 960 c 2,24,-1
 208 316 l 2,25,26
 208 208 208 208 284 108 c 1,27,28
 334 60 334 60 392 60 c 2,29,-1
 436 60 l 2,30,31
 526 60 526 60 684 164 c 1,32,33
 826 264 826 264 884 456 c 1,34,35
 896 520 896 520 896 532 c 2,36,-1
 896 968 l 2,37,38
 896 1020 896 1020 944 1020 c 1,0,1
EndSplineSet
EndChar

StartChar: v
Encoding: 118 118 127
Width: 993
GlyphClass: 1
Flags: W
TopAccentHorizontal: 498
LayerCount: 2
Fore
SplineSet
56 1008 m 0,0,1
 98 1008 98 1008 148 872 c 1,2,3
 225 759 225 759 248 668 c 1,4,5
 274 624 274 624 296 568 c 0,6,7
 311 535 311 535 344 488 c 1,8,9
 360 436 360 436 444 248 c 1,10,-1
 512 104 l 1,11,-1
 516 104 l 1,12,13
 604 275 604 275 620 320 c 1,14,15
 642 346 642 346 696 476 c 1,16,-1
 768 636 l 1,17,18
 839 843 839 843 904 972 c 0,19,20
 916 996 916 996 944 996 c 1,21,22
 988 987 988 987 988 948 c 1,23,24
 964 881 964 881 920 792 c 1,25,26
 853 597 853 597 708 292 c 0,27,28
 619 108 619 108 596 72 c 1,29,30
 556 -40 556 -40 504 -40 c 0,31,32
 464 -40 464 -40 436 60 c 1,33,34
 321 301 321 301 264 452 c 1,35,36
 219 506 219 506 128 740 c 1,37,38
 114 750 114 750 32 916 c 1,39,40
 8 944 8 944 8 964 c 1,41,42
 17 1008 17 1008 56 1008 c 0,0,1
EndSplineSet
EndChar

StartChar: w
Encoding: 119 119 128
Width: 1340
GlyphClass: 1
Flags: W
TopAccentHorizontal: 670
LayerCount: 2
Fore
SplineSet
1280 988 m 1,0,1
 1320 978 1320 978 1320 936 c 1,2,3
 1288 695 1288 695 1248 584 c 1,4,5
 1170 331 1170 331 1112 220 c 1,6,7
 1059 95 1059 95 1044 72 c 0,8,9
 979 -32 979 -32 940 -32 c 2,10,-1
 928 -32 l 2,11,12
 875 -32 875 -32 800 108 c 1,13,-1
 664 432 l 1,14,-1
 660 432 l 1,15,16
 608 261 608 261 560 184 c 1,17,18
 515 69 515 69 456 -4 c 1,19,20
 434 -44 434 -44 396 -44 c 0,21,22
 341 -44 341 -44 272 124 c 1,23,24
 196 333 196 333 152 504 c 1,25,26
 96 642 96 642 56 812 c 1,27,-1
 20 940 l 1,28,29
 29 984 29 984 68 984 c 0,30,31
 114 984 114 984 136 840 c 1,32,33
 188 665 188 665 188 652 c 1,34,35
 200 642 200 642 260 444 c 1,36,37
 304 278 304 278 384 84 c 1,38,-1
 400 68 l 1,39,40
 420 82 420 82 480 220 c 1,41,42
 500 244 500 244 544 356 c 1,43,44
 620 597 620 597 632 616 c 1,45,46
 659 628 659 628 668 628 c 0,47,48
 705 628 705 628 728 512 c 1,49,50
 752 444 752 444 812 304 c 1,51,52
 867 157 867 157 928 68 c 1,53,54
 953 85 953 85 968 128 c 1,55,56
 982 138 982 138 1032 252 c 0,57,58
 1132 469 1132 469 1204 756 c 1,59,60
 1231 984 1231 984 1256 984 c 0,61,62
 1259 984 1259 984 1280 988 c 1,0,1
EndSplineSet
EndChar

StartChar: x
Encoding: 120 120 129
Width: 943
GlyphClass: 1
Flags: W
TopAccentHorizontal: 465
LayerCount: 2
Fore
SplineSet
99 1004 m 0,0,1
 136 1004 136 1004 195 908 c 1,2,-1
 323 744 l 1,3,4
 464 572 464 572 471 572 c 1,5,6
 532 645 532 645 567 680 c 1,7,8
 605 733 605 733 679 820 c 1,9,10
 692 845 692 845 791 944 c 1,11,12
 806 970 806 970 863 1000 c 0,13,14
 867 1000 867 1000 875 1004 c 1,15,16
 907 1004 907 1004 919 960 c 1,17,18
 919 930 919 930 847 880 c 1,19,-1
 747 768 l 2,20,21
 747 762 747 762 651 648 c 2,22,-1
 527 500 l 1,23,24
 546 465 546 465 631 364 c 1,25,26
 742 211 742 211 795 164 c 1,27,28
 814 131 814 131 855 88 c 0,29,30
 907 33 907 33 907 8 c 1,31,32
 895 -32 895 -32 859 -32 c 0,33,34
 827 -32 827 -32 771 48 c 1,35,36
 679 156 679 156 551 324 c 1,37,38
 518 357 518 357 471 428 c 1,39,-1
 463 428 l 1,40,41
 463 423 463 423 419 380 c 1,42,43
 409 357 409 357 363 316 c 1,44,45
 363 308 363 308 307 244 c 0,46,47
 172 81 172 81 147 60 c 1,48,49
 91 -24 91 -24 55 -24 c 0,50,51
 23 -24 23 -24 11 20 c 1,52,53
 11 38 11 38 91 128 c 0,54,55
 119 156 119 156 275 340 c 1,56,57
 316 396 316 396 339 416 c 1,58,-1
 407 500 l 1,59,60
 394 528 394 528 307 624 c 1,61,62
 214 737 214 737 91 904 c 1,63,64
 51 934 51 934 51 964 c 1,65,66
 63 1004 63 1004 99 1004 c 0,0,1
EndSplineSet
EndChar

StartChar: y
Encoding: 121 121 130
Width: 1044
GlyphClass: 1
Flags: W
TopAccentHorizontal: 522
LayerCount: 2
Fore
SplineSet
984 996 m 1,0,1
 1024 986 1024 986 1024 944 c 2,2,-1
 1024 912 l 1,3,4
 1008 803 1008 803 976 720 c 1,5,6
 976 707 976 707 920 560 c 1,7,8
 884 446 884 446 776 204 c 1,9,10
 625 -71 625 -71 540 -196 c 0,11,12
 502 -251 502 -251 476 -272 c 1,13,14
 441 -317 441 -317 412 -340 c 0,15,16
 277 -466 277 -466 168 -488 c 1,17,18
 132 -500 132 -500 120 -500 c 2,19,-1
 96 -500 l 2,20,21
 44 -500 44 -500 44 -452 c 0,22,23
 44 -408 44 -408 132 -408 c 1,24,25
 134 -403 134 -403 216 -380 c 1,26,27
 298 -326 298 -326 332 -296 c 0,28,29
 332 -292 332 -292 372 -256 c 0,30,31
 468 -160 468 -160 500 -92 c 1,32,33
 532 -62 532 -62 532 -36 c 1,34,35
 516 -36 516 -36 440 44 c 1,36,37
 340 162 340 162 280 288 c 0,38,39
 168 518 168 518 152 560 c 0,40,41
 20 894 20 894 20 948 c 1,42,43
 29 992 29 992 68 992 c 0,44,45
 109 992 109 992 120 888 c 1,46,47
 126 886 126 886 172 748 c 1,48,49
 240 571 240 571 284 480 c 0,50,51
 293 469 293 469 356 328 c 1,52,-1
 416 220 l 1,53,54
 441 195 441 195 492 116 c 1,55,56
 572 40 572 40 576 40 c 0,57,58
 646 116 646 116 788 456 c 1,59,60
 864 658 864 658 864 664 c 0,61,62
 904 768 904 768 936 904 c 1,63,-1
 936 944 l 2,64,65
 936 996 936 996 984 996 c 1,0,1
EndSplineSet
EndChar

StartChar: z
Encoding: 122 122 131
Width: 970
GlyphClass: 1
Flags: W
TopAccentHorizontal: 482
LayerCount: 2
Fore
SplineSet
106 959 m 2,0,-1
 856 959 l 2,1,2
 909 959 909 959 916 907 c 0,3,4
 916 887 916 887 844 835 c 1,5,6
 826 801 826 801 776 759 c 1,7,8
 776 751 776 751 692 667 c 1,9,10
 692 660 692 660 640 611 c 1,11,12
 606 557 606 557 456 395 c 1,13,14
 447 395 447 395 420 359 c 1,15,16
 385 334 385 334 360 299 c 1,17,18
 348 294 348 294 300 239 c 1,19,20
 283 231 283 231 240 179 c 1,21,22
 228 176 228 176 188 131 c 1,23,24
 148 96 148 96 148 91 c 1,25,-1
 896 91 l 2,26,27
 948 91 948 91 948 43 c 1,28,29
 938 3 938 3 896 3 c 2,30,-1
 68 3 l 2,31,32
 16 3 16 3 16 59 c 1,33,34
 21 91 21 91 64 127 c 1,35,-1
 104 179 l 1,36,37
 164 224 164 224 360 427 c 1,38,39
 367 427 367 427 396 467 c 1,40,41
 428 489 428 489 532 611 c 1,42,43
 592 694 592 694 676 775 c 1,44,-1
 764 871 l 1,45,-1
 106 871 l 2,46,47
 54 871 54 871 54 919 c 1,48,49
 64 959 64 959 106 959 c 2,0,-1
EndSplineSet
EndChar

StartChar: braceleft
Encoding: 123 123 132
Width: 666
GlyphClass: 1
Flags: W
IsExtendedShape: 1
GlyphVariantsVertical: braceleft braceleft.s1 braceleft.s2 braceleft.s3 braceleft.s4 braceleft.s5 braceleft.s6 braceleft.s7
GlyphCompositionVertical: 5  braceleft.btm%0,0,0,2934 braceleft.ext%1,0,0,385 braceleft.mid%0,0,0,1300 braceleft.ext%1,0,0,500 braceleft.top%0,0,0,2934
LayerCount: 2
Fore
SplineSet
492 1434 m 2,0,-1
 580 1434 l 2,1,2
 632 1434 632 1434 632 1386 c 1,3,4
 622 1346 622 1346 580 1346 c 2,5,-1
 508 1346 l 2,6,7
 464 1346 464 1346 400 1290 c 1,8,9
 364 1223 364 1223 364 1194 c 2,10,-1
 364 691 l 2,11,12
 364 568 364 568 316 539 c 1,13,14
 255 475 255 475 232 475 c 1,15,-1
 312 403 l 1,16,17
 364 330 364 330 364 275 c 2,18,-1
 364 -264 l 2,19,20
 363 -306 363 -306 368 -362 c 1,21,22
 413 -430 413 -430 568 -430 c 2,23,-1
 592 -430 l 2,24,25
 644 -430 644 -430 644 -478 c 1,26,27
 634 -518 634 -518 592 -518 c 2,28,-1
 560 -518 l 2,29,30
 411 -518 411 -518 332 -458 c 0,31,32
 295 -429 295 -429 285 -380 c 0,33,34
 276 -336 276 -336 276 -296 c 2,35,-1
 276 275 l 1,36,37
 256 351 256 351 192 391 c 1,38,39
 192 412 192 412 48 423 c 1,40,41
 20 446 20 446 20 471 c 0,42,43
 20 512 20 512 120 519 c 1,44,45
 236 564 236 564 264 615 c 1,46,47
 276 615 276 615 276 703 c 2,48,-1
 276 1210 l 2,49,50
 276 1274 276 1274 348 1366 c 1,51,52
 444 1434 444 1434 492 1434 c 2,0,-1
EndSplineSet
EndChar

StartChar: braceleft.s1
Encoding: 1114153 -1 133
Width: 666
GlyphClass: 1
Flags: W
IsExtendedShape: 1
LayerCount: 2
Fore
SplineSet
492 1724 m 2,0,-1
 580 1724 l 2,1,2
 632 1724 632 1724 632 1676 c 1,3,4
 622 1636 622 1636 580 1636 c 2,5,-1
 508 1636 l 2,6,7
 464 1636 464 1636 400 1580 c 1,8,9
 364 1513 364 1513 364 1484 c 2,10,-1
 364 831 l 2,11,12
 364 708 364 708 316 679 c 1,13,14
 255 615 255 615 232 615 c 1,15,-1
 312 543 l 1,16,17
 364 470 364 470 364 415 c 2,18,-1
 364 -264 l 2,19,20
 363 -306 363 -306 368 -362 c 1,21,22
 413 -430 413 -430 568 -430 c 2,23,-1
 592 -430 l 2,24,25
 644 -430 644 -430 644 -478 c 1,26,27
 634 -518 634 -518 592 -518 c 2,28,-1
 560 -518 l 2,29,30
 411 -518 411 -518 332 -458 c 0,31,32
 295 -429 295 -429 285 -380 c 0,33,34
 276 -336 276 -336 276 -296 c 2,35,-1
 276 415 l 1,36,37
 256 491 256 491 192 531 c 1,38,39
 192 552 192 552 48 563 c 1,40,41
 20 586 20 586 20 611 c 0,42,43
 20 652 20 652 120 659 c 1,44,45
 236 704 236 704 264 755 c 1,46,47
 276 755 276 755 276 843 c 2,48,-1
 276 1500 l 2,49,50
 276 1564 276 1564 348 1656 c 1,51,52
 444 1724 444 1724 492 1724 c 2,0,-1
EndSplineSet
EndChar

StartChar: braceleft.s2
Encoding: 1114154 -1 134
Width: 666
GlyphClass: 1
Flags: W
IsExtendedShape: 1
LayerCount: 2
Fore
SplineSet
492 2024 m 2,0,-1
 580 2024 l 2,1,2
 632 2024 632 2024 632 1976 c 1,3,4
 622 1936 622 1936 580 1936 c 2,5,-1
 508 1936 l 2,6,7
 464 1936 464 1936 400 1880 c 1,8,9
 364 1813 364 1813 364 1784 c 2,10,-1
 364 831 l 2,11,12
 364 708 364 708 316 679 c 1,13,14
 255 615 255 615 232 615 c 1,15,-1
 312 543 l 1,16,17
 364 470 364 470 364 415 c 2,18,-1
 364 -564 l 2,19,20
 363 -606 363 -606 368 -662 c 1,21,22
 413 -730 413 -730 568 -730 c 2,23,-1
 592 -730 l 2,24,25
 644 -730 644 -730 644 -778 c 1,26,27
 634 -818 634 -818 592 -818 c 2,28,-1
 560 -818 l 2,29,30
 411 -818 411 -818 332 -758 c 0,31,32
 295 -729 295 -729 285 -680 c 0,33,34
 276 -636 276 -636 276 -596 c 2,35,-1
 276 415 l 1,36,37
 256 491 256 491 192 531 c 1,38,39
 192 552 192 552 48 563 c 1,40,41
 20 586 20 586 20 611 c 0,42,43
 20 652 20 652 120 659 c 1,44,45
 236 704 236 704 264 755 c 1,46,47
 276 755 276 755 276 843 c 2,48,-1
 276 1800 l 2,49,50
 276 1864 276 1864 348 1956 c 1,51,52
 444 2024 444 2024 492 2024 c 2,0,-1
EndSplineSet
EndChar

StartChar: braceleft.s3
Encoding: 1114155 -1 135
Width: 666
GlyphClass: 1
Flags: W
IsExtendedShape: 1
LayerCount: 2
Fore
SplineSet
492 2324 m 2,0,-1
 580 2324 l 2,1,2
 632 2324 632 2324 632 2276 c 1,3,4
 622 2236 622 2236 580 2236 c 2,5,-1
 508 2236 l 2,6,7
 464 2236 464 2236 400 2180 c 1,8,9
 364 2113 364 2113 364 2084 c 2,10,-1
 364 831 l 2,11,12
 364 708 364 708 316 679 c 1,13,14
 255 615 255 615 232 615 c 1,15,-1
 312 543 l 1,16,17
 364 470 364 470 364 415 c 2,18,-1
 364 -864 l 2,19,20
 363 -906 363 -906 368 -962 c 1,21,22
 413 -1030 413 -1030 568 -1030 c 2,23,-1
 592 -1030 l 2,24,25
 644 -1030 644 -1030 644 -1078 c 1,26,27
 634 -1118 634 -1118 592 -1118 c 2,28,-1
 560 -1118 l 2,29,30
 411 -1118 411 -1118 332 -1058 c 0,31,32
 295 -1029 295 -1029 285 -980 c 0,33,34
 276 -936 276 -936 276 -896 c 2,35,-1
 276 415 l 1,36,37
 256 491 256 491 192 531 c 1,38,39
 192 552 192 552 48 563 c 1,40,41
 20 586 20 586 20 611 c 0,42,43
 20 652 20 652 120 659 c 1,44,45
 236 704 236 704 264 755 c 1,46,47
 276 755 276 755 276 843 c 2,48,-1
 276 2100 l 2,49,50
 276 2164 276 2164 348 2256 c 1,51,52
 444 2324 444 2324 492 2324 c 2,0,-1
EndSplineSet
EndChar

StartChar: braceleft.s4
Encoding: 1114156 -1 136
Width: 666
GlyphClass: 1
Flags: W
IsExtendedShape: 1
LayerCount: 2
Fore
SplineSet
492 2624 m 2,0,-1
 580 2624 l 2,1,2
 632 2624 632 2624 632 2576 c 1,3,4
 622 2536 622 2536 580 2536 c 2,5,-1
 508 2536 l 2,6,7
 464 2536 464 2536 400 2480 c 1,8,9
 364 2413 364 2413 364 2384 c 2,10,-1
 364 831 l 2,11,12
 364 708 364 708 316 679 c 1,13,14
 255 615 255 615 232 615 c 1,15,-1
 312 543 l 1,16,17
 364 470 364 470 364 415 c 2,18,-1
 364 -1164 l 2,19,20
 363 -1206 363 -1206 368 -1262 c 1,21,22
 413 -1330 413 -1330 568 -1330 c 2,23,-1
 592 -1330 l 2,24,25
 644 -1330 644 -1330 644 -1378 c 1,26,27
 634 -1418 634 -1418 592 -1418 c 2,28,-1
 560 -1418 l 2,29,30
 411 -1418 411 -1418 332 -1358 c 0,31,32
 295 -1329 295 -1329 285 -1280 c 0,33,34
 276 -1236 276 -1236 276 -1196 c 2,35,-1
 276 415 l 1,36,37
 256 491 256 491 192 531 c 1,38,39
 192 552 192 552 48 563 c 1,40,41
 20 586 20 586 20 611 c 0,42,43
 20 652 20 652 120 659 c 1,44,45
 236 704 236 704 264 755 c 1,46,47
 276 755 276 755 276 843 c 2,48,-1
 276 2400 l 2,49,50
 276 2464 276 2464 348 2556 c 1,51,52
 444 2624 444 2624 492 2624 c 2,0,-1
EndSplineSet
EndChar

StartChar: braceleft.s5
Encoding: 1114157 -1 137
Width: 666
GlyphClass: 1
Flags: W
IsExtendedShape: 1
LayerCount: 2
Fore
SplineSet
492 2924 m 2,0,-1
 580 2924 l 2,1,2
 632 2924 632 2924 632 2876 c 1,3,4
 622 2836 622 2836 580 2836 c 2,5,-1
 508 2836 l 2,6,7
 464 2836 464 2836 400 2780 c 1,8,9
 364 2713 364 2713 364 2684 c 2,10,-1
 364 831 l 2,11,12
 364 708 364 708 316 679 c 1,13,14
 255 615 255 615 232 615 c 1,15,-1
 312 543 l 1,16,17
 364 470 364 470 364 415 c 2,18,-1
 364 -1464 l 2,19,20
 363 -1506 363 -1506 368 -1562 c 1,21,22
 413 -1630 413 -1630 568 -1630 c 2,23,-1
 592 -1630 l 2,24,25
 644 -1630 644 -1630 644 -1678 c 1,26,27
 634 -1718 634 -1718 592 -1718 c 2,28,-1
 560 -1718 l 2,29,30
 411 -1718 411 -1718 332 -1658 c 0,31,32
 295 -1629 295 -1629 285 -1580 c 0,33,34
 276 -1536 276 -1536 276 -1496 c 2,35,-1
 276 415 l 1,36,37
 256 491 256 491 192 531 c 1,38,39
 192 552 192 552 48 563 c 1,40,41
 20 586 20 586 20 611 c 0,42,43
 20 652 20 652 120 659 c 1,44,45
 236 704 236 704 264 755 c 1,46,47
 276 755 276 755 276 843 c 2,48,-1
 276 2700 l 2,49,50
 276 2764 276 2764 348 2856 c 1,51,52
 444 2924 444 2924 492 2924 c 2,0,-1
EndSplineSet
EndChar

StartChar: braceleft.s6
Encoding: 1114158 -1 138
Width: 666
GlyphClass: 1
Flags: W
IsExtendedShape: 1
LayerCount: 2
Fore
SplineSet
492 3224 m 2,0,-1
 580 3224 l 2,1,2
 632 3224 632 3224 632 3176 c 1,3,4
 622 3136 622 3136 580 3136 c 2,5,-1
 508 3136 l 2,6,7
 464 3136 464 3136 400 3080 c 1,8,9
 364 3013 364 3013 364 2984 c 2,10,-1
 364 831 l 2,11,12
 364 708 364 708 316 679 c 1,13,14
 255 615 255 615 232 615 c 1,15,-1
 312 543 l 1,16,17
 364 470 364 470 364 415 c 2,18,-1
 364 -1764 l 2,19,20
 363 -1806 363 -1806 368 -1862 c 1,21,22
 413 -1930 413 -1930 568 -1930 c 2,23,-1
 592 -1930 l 2,24,25
 644 -1930 644 -1930 644 -1978 c 1,26,27
 634 -2018 634 -2018 592 -2018 c 2,28,-1
 560 -2018 l 2,29,30
 411 -2018 411 -2018 332 -1958 c 0,31,32
 295 -1929 295 -1929 285 -1880 c 0,33,34
 276 -1836 276 -1836 276 -1796 c 2,35,-1
 276 415 l 1,36,37
 256 491 256 491 192 531 c 1,38,39
 192 552 192 552 48 563 c 1,40,41
 20 586 20 586 20 611 c 0,42,43
 20 652 20 652 120 659 c 1,44,45
 236 704 236 704 264 755 c 1,46,47
 276 755 276 755 276 843 c 2,48,-1
 276 3000 l 2,49,50
 276 3064 276 3064 348 3156 c 1,51,52
 444 3224 444 3224 492 3224 c 2,0,-1
EndSplineSet
EndChar

StartChar: braceleft.s7
Encoding: 1114159 -1 139
Width: 666
GlyphClass: 1
Flags: W
IsExtendedShape: 1
LayerCount: 2
Fore
SplineSet
492 3524 m 2,0,-1
 580 3524 l 2,1,2
 632 3524 632 3524 632 3476 c 1,3,4
 622 3436 622 3436 580 3436 c 2,5,-1
 508 3436 l 2,6,7
 464 3436 464 3436 400 3380 c 1,8,9
 364 3313 364 3313 364 3284 c 2,10,-1
 364 831 l 2,11,12
 364 708 364 708 316 679 c 1,13,14
 255 615 255 615 232 615 c 1,15,-1
 312 543 l 1,16,17
 364 470 364 470 364 415 c 2,18,-1
 364 -2064 l 2,19,20
 363 -2106 363 -2106 368 -2162 c 1,21,22
 413 -2230 413 -2230 568 -2230 c 2,23,-1
 592 -2230 l 2,24,25
 644 -2230 644 -2230 644 -2278 c 1,26,27
 634 -2318 634 -2318 592 -2318 c 2,28,-1
 560 -2318 l 2,29,30
 411 -2318 411 -2318 332 -2258 c 0,31,32
 295 -2229 295 -2229 285 -2180 c 0,33,34
 276 -2136 276 -2136 276 -2096 c 2,35,-1
 276 415 l 1,36,37
 256 491 256 491 192 531 c 1,38,39
 192 552 192 552 48 563 c 1,40,41
 20 586 20 586 20 611 c 0,42,43
 20 652 20 652 120 659 c 1,44,45
 236 704 236 704 264 755 c 1,46,47
 276 755 276 755 276 843 c 2,48,-1
 276 3300 l 2,49,50
 276 3364 276 3364 348 3456 c 1,51,52
 444 3524 444 3524 492 3524 c 2,0,-1
EndSplineSet
EndChar

StartChar: braceleft.btm
Encoding: 1114160 -1 140
Width: 666
GlyphClass: 1
Flags: W
LayerCount: 2
Fore
SplineSet
364 2934 m 1,0,-1
 364 254 l 2,1,2
 363 212 363 212 368 156 c 1,3,4
 413 88 413 88 568 88 c 2,5,-1
 592 88 l 2,6,7
 644 88 644 88 644 40 c 1,8,9
 634 0 634 0 592 0 c 2,10,-1
 560 0 l 2,11,12
 411 0 411 0 332 60 c 0,13,14
 295 89 295 89 285 138 c 0,15,16
 276 182 276 182 276 222 c 2,17,-1
 276 2934 l 1,18,-1
 364 2934 l 1,0,-1
EndSplineSet
EndChar

StartChar: braceleft.ext
Encoding: 1114161 -1 141
Width: 666
GlyphClass: 1
Flags: W
LayerCount: 2
Fore
SplineSet
364 600 m 1,0,-1
 364 0 l 1,1,-1
 276 0 l 1,2,-1
 276 600 l 1,3,-1
 364 600 l 1,0,-1
EndSplineSet
EndChar

StartChar: braceleft.mid
Encoding: 1114162 -1 142
Width: 666
GlyphClass: 1
Flags: W
LayerCount: 2
Fore
SplineSet
364 1485 m 1,0,-1
 364 962 l 2,1,2
 364 839 364 839 316 810 c 1,3,4
 255 746 255 746 232 746 c 1,5,-1
 312 674 l 1,6,7
 364 601 364 601 364 546 c 2,8,-1
 364 0 l 1,9,-1
 276 0 l 1,10,-1
 276 546 l 1,11,12
 256 622 256 622 192 662 c 1,13,14
 192 683 192 683 48 694 c 1,15,16
 20 717 20 717 20 742 c 0,17,18
 20 783 20 783 120 790 c 1,19,20
 236 835 236 835 264 886 c 1,21,22
 276 886 276 886 276 974 c 2,23,-1
 276 1485 l 1,24,-1
 364 1485 l 1,0,-1
EndSplineSet
EndChar

StartChar: braceleft.top
Encoding: 1114163 -1 143
Width: 666
GlyphClass: 1
Flags: W
LayerCount: 2
Fore
SplineSet
364 0 m 1,0,-1
 364 2680 l 2,1,2
 363 2722 363 2722 368 2778 c 1,3,4
 413 2846 413 2846 568 2846 c 2,5,-1
 592 2846 l 2,6,7
 644 2846 644 2846 644 2894 c 1,8,9
 634 2934 634 2934 592 2934 c 2,10,-1
 560 2934 l 2,11,12
 411 2934 411 2934 332 2874 c 0,13,14
 295 2845 295 2845 285 2796 c 0,15,16
 276 2752 276 2752 276 2712 c 2,17,-1
 276 0 l 1,18,-1
 364 0 l 1,0,-1
EndSplineSet
EndChar

StartChar: bar
Encoding: 124 124 144
Width: 488
GlyphClass: 1
Flags: W
IsExtendedShape: 1
GlyphVariantsVertical: bar bar.s1 bar.s2 bar.s3 bar.s4 bar.s5 bar.s6 bar.s7
GlyphCompositionVertical: 3  bar.btm%0,0,0,2934 bar.ext%1,0,0,950 bar.top%0,0,0,2934
LayerCount: 2
Fore
SplineSet
248 1480 m 1,0,1
 288 1470 288 1470 288 1428 c 2,2,-1
 288 -460 l 2,3,4
 288 -512 288 -512 240 -512 c 1,5,6
 200 -502 200 -502 200 -460 c 2,7,-1
 200 1428 l 2,8,9
 200 1480 200 1480 248 1480 c 1,0,1
EndSplineSet
EndChar

StartChar: bar.s1
Encoding: 1114164 -1 145
Width: 488
GlyphClass: 1
Flags: W
IsExtendedShape: 1
LayerCount: 2
Fore
SplineSet
248 1790 m 1,0,1
 288 1780 288 1780 288 1738 c 2,2,-1
 288 -530 l 2,3,4
 288 -582 288 -582 240 -582 c 1,5,6
 200 -572 200 -572 200 -530 c 2,7,-1
 200 1738 l 2,8,9
 200 1790 200 1790 248 1790 c 1,0,1
EndSplineSet
EndChar

StartChar: bar.s2
Encoding: 1114165 -1 146
Width: 488
GlyphClass: 1
Flags: W
IsExtendedShape: 1
LayerCount: 2
Fore
SplineSet
248 2090 m 1,0,1
 288 2080 288 2080 288 2038 c 2,2,-1
 288 -830 l 2,3,4
 288 -882 288 -882 240 -882 c 1,5,6
 200 -872 200 -872 200 -830 c 2,7,-1
 200 2038 l 2,8,9
 200 2090 200 2090 248 2090 c 1,0,1
EndSplineSet
EndChar

StartChar: bar.s3
Encoding: 1114166 -1 147
Width: 488
GlyphClass: 1
Flags: W
IsExtendedShape: 1
LayerCount: 2
Fore
SplineSet
248 2390 m 1,0,1
 288 2380 288 2380 288 2338 c 2,2,-1
 288 -1130 l 2,3,4
 288 -1182 288 -1182 240 -1182 c 1,5,6
 200 -1172 200 -1172 200 -1130 c 2,7,-1
 200 2338 l 2,8,9
 200 2390 200 2390 248 2390 c 1,0,1
EndSplineSet
EndChar

StartChar: bar.s4
Encoding: 1114167 -1 148
Width: 488
GlyphClass: 1
Flags: W
IsExtendedShape: 1
LayerCount: 2
Fore
SplineSet
248 2690 m 1,0,1
 288 2680 288 2680 288 2638 c 2,2,-1
 288 -1430 l 2,3,4
 288 -1482 288 -1482 240 -1482 c 1,5,6
 200 -1472 200 -1472 200 -1430 c 2,7,-1
 200 2638 l 2,8,9
 200 2690 200 2690 248 2690 c 1,0,1
EndSplineSet
EndChar

StartChar: bar.s5
Encoding: 1114168 -1 149
Width: 488
GlyphClass: 1
Flags: W
IsExtendedShape: 1
LayerCount: 2
Fore
SplineSet
248 2990 m 1,0,1
 288 2980 288 2980 288 2938 c 2,2,-1
 288 -1730 l 2,3,4
 288 -1782 288 -1782 240 -1782 c 1,5,6
 200 -1772 200 -1772 200 -1730 c 2,7,-1
 200 2938 l 2,8,9
 200 2990 200 2990 248 2990 c 1,0,1
EndSplineSet
EndChar

StartChar: bar.s6
Encoding: 1114169 -1 150
Width: 488
GlyphClass: 1
Flags: W
IsExtendedShape: 1
LayerCount: 2
Fore
SplineSet
248 3290 m 1,0,1
 288 3280 288 3280 288 3238 c 2,2,-1
 288 -2030 l 2,3,4
 288 -2082 288 -2082 240 -2082 c 1,5,6
 200 -2072 200 -2072 200 -2030 c 2,7,-1
 200 3238 l 2,8,9
 200 3290 200 3290 248 3290 c 1,0,1
EndSplineSet
EndChar

StartChar: bar.s7
Encoding: 1114170 -1 151
Width: 488
GlyphClass: 1
Flags: W
IsExtendedShape: 1
LayerCount: 2
Fore
SplineSet
248 3590 m 1,0,1
 288 3580 288 3580 288 3538 c 2,2,-1
 288 -2330 l 2,3,4
 288 -2382 288 -2382 240 -2382 c 1,5,6
 200 -2372 200 -2372 200 -2330 c 2,7,-1
 200 3538 l 2,8,9
 200 3590 200 3590 248 3590 c 1,0,1
EndSplineSet
EndChar

StartChar: bar.btm
Encoding: 1114171 -1 152
Width: 488
GlyphClass: 1
Flags: W
LayerCount: 2
Fore
SplineSet
288 2935 m 1,0,-1
 288 53 l 2,1,2
 288 1 288 1 240 1 c 1,3,4
 200 12 200 12 200 53 c 2,5,-1
 200 2935 l 1,6,-1
 288 2935 l 1,0,-1
EndSplineSet
EndChar

StartChar: bar.ext
Encoding: 1114172 -1 153
Width: 488
GlyphClass: 1
Flags: W
LayerCount: 2
Fore
SplineSet
200 0 m 1,0,-1
 200 958 l 1,1,-1
 288 958 l 1,2,-1
 288 0 l 1,3,-1
 200 0 l 1,0,-1
EndSplineSet
EndChar

StartChar: bar.top
Encoding: 1114173 -1 154
Width: 488
GlyphClass: 1
Flags: W
LayerCount: 2
Fore
SplineSet
248 2935 m 1,0,1
 288 2924 288 2924 288 2883 c 2,2,-1
 288 0 l 1,3,-1
 200 0 l 1,4,-1
 200 2883 l 2,5,6
 200 2935 200 2935 248 2935 c 1,0,1
EndSplineSet
EndChar

StartChar: braceright
Encoding: 125 125 155
Width: 666
GlyphClass: 1
Flags: W
IsExtendedShape: 1
GlyphVariantsVertical: braceright braceright.s1 braceright.s2 braceright.s3 braceright.s4 braceright.s5 braceright.s6 braceright.s7
GlyphCompositionVertical: 5  braceright.btm%0,0,0,2934 braceright.ext%1,0,0,385 braceright.mid%0,0,0,1300 braceright.ext%1,0,0,500 braceright.top%0,0,0,2934
LayerCount: 2
Fore
SplineSet
174 1434 m 2,0,-1
 86 1434 l 2,1,2
 34 1434 34 1434 34 1386 c 1,3,4
 44 1346 44 1346 86 1346 c 2,5,-1
 158 1346 l 2,6,7
 202 1346 202 1346 266 1290 c 1,8,9
 302 1223 302 1223 302 1194 c 2,10,-1
 302 691 l 2,11,12
 302 568 302 568 350 539 c 1,13,14
 411 475 411 475 434 475 c 1,15,-1
 354 403 l 1,16,17
 302 330 302 330 302 275 c 2,18,-1
 302 -264 l 2,19,20
 303 -306 303 -306 298 -362 c 1,21,22
 253 -430 253 -430 98 -430 c 2,23,-1
 74 -430 l 2,24,25
 22 -430 22 -430 22 -478 c 1,26,27
 32 -518 32 -518 74 -518 c 2,28,-1
 106 -518 l 2,29,30
 255 -518 255 -518 334 -458 c 0,31,32
 371 -429 371 -429 381 -380 c 0,33,34
 390 -336 390 -336 390 -296 c 2,35,-1
 390 275 l 1,36,37
 410 351 410 351 474 391 c 1,38,39
 474 412 474 412 618 423 c 1,40,41
 646 446 646 446 646 471 c 0,42,43
 646 512 646 512 546 519 c 1,44,45
 430 564 430 564 402 615 c 1,46,47
 390 615 390 615 390 703 c 2,48,-1
 390 1210 l 2,49,50
 390 1274 390 1274 318 1366 c 1,51,52
 222 1434 222 1434 174 1434 c 2,0,-1
EndSplineSet
EndChar

StartChar: braceright.s1
Encoding: 1114174 -1 156
Width: 666
GlyphClass: 1
Flags: W
IsExtendedShape: 1
LayerCount: 2
Fore
SplineSet
174 1724 m 2,0,-1
 86 1724 l 2,1,2
 34 1724 34 1724 34 1676 c 1,3,4
 44 1636 44 1636 86 1636 c 2,5,-1
 158 1636 l 2,6,7
 202 1636 202 1636 266 1580 c 1,8,9
 302 1513 302 1513 302 1484 c 2,10,-1
 302 831 l 2,11,12
 302 708 302 708 350 679 c 1,13,14
 411 615 411 615 434 615 c 1,15,-1
 354 543 l 1,16,17
 302 470 302 470 302 415 c 2,18,-1
 302 -264 l 2,19,20
 303 -306 303 -306 298 -362 c 1,21,22
 253 -430 253 -430 98 -430 c 2,23,-1
 74 -430 l 2,24,25
 22 -430 22 -430 22 -478 c 1,26,27
 32 -518 32 -518 74 -518 c 2,28,-1
 106 -518 l 2,29,30
 255 -518 255 -518 334 -458 c 0,31,32
 371 -429 371 -429 381 -380 c 0,33,34
 390 -336 390 -336 390 -296 c 2,35,-1
 390 415 l 1,36,37
 410 491 410 491 474 531 c 1,38,39
 474 552 474 552 618 563 c 1,40,41
 646 586 646 586 646 611 c 0,42,43
 646 652 646 652 546 659 c 1,44,45
 430 704 430 704 402 755 c 1,46,47
 390 755 390 755 390 843 c 2,48,-1
 390 1500 l 2,49,50
 390 1564 390 1564 318 1656 c 1,51,52
 222 1724 222 1724 174 1724 c 2,0,-1
EndSplineSet
EndChar

StartChar: braceright.s2
Encoding: 1114175 -1 157
Width: 666
GlyphClass: 1
Flags: W
IsExtendedShape: 1
LayerCount: 2
Fore
SplineSet
174 2024 m 2,0,-1
 86 2024 l 2,1,2
 34 2024 34 2024 34 1976 c 1,3,4
 44 1936 44 1936 86 1936 c 2,5,-1
 158 1936 l 2,6,7
 202 1936 202 1936 266 1880 c 1,8,9
 302 1813 302 1813 302 1784 c 2,10,-1
 302 831 l 2,11,12
 302 708 302 708 350 679 c 1,13,14
 411 615 411 615 434 615 c 1,15,-1
 354 543 l 1,16,17
 302 470 302 470 302 415 c 2,18,-1
 302 -564 l 2,19,20
 303 -606 303 -606 298 -662 c 1,21,22
 253 -730 253 -730 98 -730 c 2,23,-1
 74 -730 l 2,24,25
 22 -730 22 -730 22 -778 c 1,26,27
 32 -818 32 -818 74 -818 c 2,28,-1
 106 -818 l 2,29,30
 255 -818 255 -818 334 -758 c 0,31,32
 371 -729 371 -729 381 -680 c 0,33,34
 390 -636 390 -636 390 -596 c 2,35,-1
 390 415 l 1,36,37
 410 491 410 491 474 531 c 1,38,39
 474 552 474 552 618 563 c 1,40,41
 646 586 646 586 646 611 c 0,42,43
 646 652 646 652 546 659 c 1,44,45
 430 704 430 704 402 755 c 1,46,47
 390 755 390 755 390 843 c 2,48,-1
 390 1800 l 2,49,50
 390 1864 390 1864 318 1956 c 1,51,52
 222 2024 222 2024 174 2024 c 2,0,-1
EndSplineSet
EndChar

StartChar: braceright.s3
Encoding: 1114176 -1 158
Width: 666
GlyphClass: 1
Flags: W
IsExtendedShape: 1
LayerCount: 2
Fore
SplineSet
174 2324 m 2,0,-1
 86 2324 l 2,1,2
 34 2324 34 2324 34 2276 c 1,3,4
 44 2236 44 2236 86 2236 c 2,5,-1
 158 2236 l 2,6,7
 202 2236 202 2236 266 2180 c 1,8,9
 302 2113 302 2113 302 2084 c 2,10,-1
 302 831 l 2,11,12
 302 708 302 708 350 679 c 1,13,14
 411 615 411 615 434 615 c 1,15,-1
 354 543 l 1,16,17
 302 470 302 470 302 415 c 2,18,-1
 302 -864 l 2,19,20
 303 -906 303 -906 298 -962 c 1,21,22
 253 -1030 253 -1030 98 -1030 c 2,23,-1
 74 -1030 l 2,24,25
 22 -1030 22 -1030 22 -1078 c 1,26,27
 32 -1118 32 -1118 74 -1118 c 2,28,-1
 106 -1118 l 2,29,30
 255 -1118 255 -1118 334 -1058 c 0,31,32
 371 -1029 371 -1029 381 -980 c 0,33,34
 390 -936 390 -936 390 -896 c 2,35,-1
 390 415 l 1,36,37
 410 491 410 491 474 531 c 1,38,39
 474 552 474 552 618 563 c 1,40,41
 646 586 646 586 646 611 c 0,42,43
 646 652 646 652 546 659 c 1,44,45
 430 704 430 704 402 755 c 1,46,47
 390 755 390 755 390 843 c 2,48,-1
 390 2100 l 2,49,50
 390 2164 390 2164 318 2256 c 1,51,52
 222 2324 222 2324 174 2324 c 2,0,-1
EndSplineSet
EndChar

StartChar: braceright.s4
Encoding: 1114177 -1 159
Width: 666
GlyphClass: 1
Flags: W
IsExtendedShape: 1
LayerCount: 2
Fore
SplineSet
174 2624 m 2,0,-1
 86 2624 l 2,1,2
 34 2624 34 2624 34 2576 c 1,3,4
 44 2536 44 2536 86 2536 c 2,5,-1
 158 2536 l 2,6,7
 202 2536 202 2536 266 2480 c 1,8,9
 302 2413 302 2413 302 2384 c 2,10,-1
 302 831 l 2,11,12
 302 708 302 708 350 679 c 1,13,14
 411 615 411 615 434 615 c 1,15,-1
 354 543 l 1,16,17
 302 470 302 470 302 415 c 2,18,-1
 302 -1164 l 2,19,20
 303 -1206 303 -1206 298 -1262 c 1,21,22
 253 -1330 253 -1330 98 -1330 c 2,23,-1
 74 -1330 l 2,24,25
 22 -1330 22 -1330 22 -1378 c 1,26,27
 32 -1418 32 -1418 74 -1418 c 2,28,-1
 106 -1418 l 2,29,30
 255 -1418 255 -1418 334 -1358 c 0,31,32
 371 -1329 371 -1329 381 -1280 c 0,33,34
 390 -1236 390 -1236 390 -1196 c 2,35,-1
 390 415 l 1,36,37
 410 491 410 491 474 531 c 1,38,39
 474 552 474 552 618 563 c 1,40,41
 646 586 646 586 646 611 c 0,42,43
 646 652 646 652 546 659 c 1,44,45
 430 704 430 704 402 755 c 1,46,47
 390 755 390 755 390 843 c 2,48,-1
 390 2400 l 2,49,50
 390 2464 390 2464 318 2556 c 1,51,52
 222 2624 222 2624 174 2624 c 2,0,-1
EndSplineSet
EndChar

StartChar: braceright.s5
Encoding: 1114178 -1 160
Width: 666
GlyphClass: 1
Flags: W
IsExtendedShape: 1
LayerCount: 2
Fore
SplineSet
174 2924 m 2,0,-1
 86 2924 l 2,1,2
 34 2924 34 2924 34 2876 c 1,3,4
 44 2836 44 2836 86 2836 c 2,5,-1
 158 2836 l 2,6,7
 202 2836 202 2836 266 2780 c 1,8,9
 302 2713 302 2713 302 2684 c 2,10,-1
 302 831 l 2,11,12
 302 708 302 708 350 679 c 1,13,14
 411 615 411 615 434 615 c 1,15,-1
 354 543 l 1,16,17
 302 470 302 470 302 415 c 2,18,-1
 302 -1464 l 2,19,20
 303 -1506 303 -1506 298 -1562 c 1,21,22
 253 -1630 253 -1630 98 -1630 c 2,23,-1
 74 -1630 l 2,24,25
 22 -1630 22 -1630 22 -1678 c 1,26,27
 32 -1718 32 -1718 74 -1718 c 2,28,-1
 106 -1718 l 2,29,30
 255 -1718 255 -1718 334 -1658 c 0,31,32
 371 -1629 371 -1629 381 -1580 c 0,33,34
 390 -1536 390 -1536 390 -1496 c 2,35,-1
 390 415 l 1,36,37
 410 491 410 491 474 531 c 1,38,39
 474 552 474 552 618 563 c 1,40,41
 646 586 646 586 646 611 c 0,42,43
 646 652 646 652 546 659 c 1,44,45
 430 704 430 704 402 755 c 1,46,47
 390 755 390 755 390 843 c 2,48,-1
 390 2700 l 2,49,50
 390 2764 390 2764 318 2856 c 1,51,52
 222 2924 222 2924 174 2924 c 2,0,-1
EndSplineSet
EndChar

StartChar: braceright.s6
Encoding: 1114179 -1 161
Width: 666
GlyphClass: 1
Flags: W
IsExtendedShape: 1
LayerCount: 2
Fore
SplineSet
174 3224 m 2,0,-1
 86 3224 l 2,1,2
 34 3224 34 3224 34 3176 c 1,3,4
 44 3136 44 3136 86 3136 c 2,5,-1
 158 3136 l 2,6,7
 202 3136 202 3136 266 3080 c 1,8,9
 302 3013 302 3013 302 2984 c 2,10,-1
 302 831 l 2,11,12
 302 708 302 708 350 679 c 1,13,14
 411 615 411 615 434 615 c 1,15,-1
 354 543 l 1,16,17
 302 470 302 470 302 415 c 2,18,-1
 302 -1764 l 2,19,20
 303 -1806 303 -1806 298 -1862 c 1,21,22
 253 -1930 253 -1930 98 -1930 c 2,23,-1
 74 -1930 l 2,24,25
 22 -1930 22 -1930 22 -1978 c 1,26,27
 32 -2018 32 -2018 74 -2018 c 2,28,-1
 106 -2018 l 2,29,30
 255 -2018 255 -2018 334 -1958 c 0,31,32
 371 -1929 371 -1929 381 -1880 c 0,33,34
 390 -1836 390 -1836 390 -1796 c 2,35,-1
 390 415 l 1,36,37
 410 491 410 491 474 531 c 1,38,39
 474 552 474 552 618 563 c 1,40,41
 646 586 646 586 646 611 c 0,42,43
 646 652 646 652 546 659 c 1,44,45
 430 704 430 704 402 755 c 1,46,47
 390 755 390 755 390 843 c 2,48,-1
 390 3000 l 2,49,50
 390 3064 390 3064 318 3156 c 1,51,52
 222 3224 222 3224 174 3224 c 2,0,-1
EndSplineSet
EndChar

StartChar: braceright.s7
Encoding: 1114180 -1 162
Width: 666
GlyphClass: 1
Flags: W
IsExtendedShape: 1
LayerCount: 2
Fore
SplineSet
174 3524 m 2,0,-1
 86 3524 l 2,1,2
 34 3524 34 3524 34 3476 c 1,3,4
 44 3436 44 3436 86 3436 c 2,5,-1
 158 3436 l 2,6,7
 202 3436 202 3436 266 3380 c 1,8,9
 302 3313 302 3313 302 3284 c 2,10,-1
 302 831 l 2,11,12
 302 708 302 708 350 679 c 1,13,14
 411 615 411 615 434 615 c 1,15,-1
 354 543 l 1,16,17
 302 470 302 470 302 415 c 2,18,-1
 302 -2064 l 2,19,20
 303 -2106 303 -2106 298 -2162 c 1,21,22
 253 -2230 253 -2230 98 -2230 c 2,23,-1
 74 -2230 l 2,24,25
 22 -2230 22 -2230 22 -2278 c 1,26,27
 32 -2318 32 -2318 74 -2318 c 2,28,-1
 106 -2318 l 2,29,30
 255 -2318 255 -2318 334 -2258 c 0,31,32
 371 -2229 371 -2229 381 -2180 c 0,33,34
 390 -2136 390 -2136 390 -2096 c 2,35,-1
 390 415 l 1,36,37
 410 491 410 491 474 531 c 1,38,39
 474 552 474 552 618 563 c 1,40,41
 646 586 646 586 646 611 c 0,42,43
 646 652 646 652 546 659 c 1,44,45
 430 704 430 704 402 755 c 1,46,47
 390 755 390 755 390 843 c 2,48,-1
 390 3300 l 2,49,50
 390 3364 390 3364 318 3456 c 1,51,52
 222 3524 222 3524 174 3524 c 2,0,-1
EndSplineSet
EndChar

StartChar: braceright.btm
Encoding: 1114181 -1 163
Width: 666
GlyphClass: 1
Flags: W
LayerCount: 2
Fore
SplineSet
302 2934 m 1,0,-1
 302 254 l 2,1,2
 303 212 303 212 298 156 c 1,3,4
 253 88 253 88 98 88 c 2,5,-1
 74 88 l 2,6,7
 22 88 22 88 22 40 c 1,8,9
 32 0 32 0 74 0 c 2,10,-1
 106 0 l 2,11,12
 255 0 255 0 334 60 c 0,13,14
 371 89 371 89 381 138 c 0,15,16
 390 182 390 182 390 222 c 2,17,-1
 390 2934 l 1,18,-1
 302 2934 l 1,0,-1
EndSplineSet
EndChar

StartChar: braceright.ext
Encoding: 1114182 -1 164
Width: 666
GlyphClass: 1
Flags: W
LayerCount: 2
Fore
SplineSet
302 600 m 1,0,-1
 302 0 l 1,1,-1
 390 0 l 1,2,-1
 390 600 l 1,3,-1
 302 600 l 1,0,-1
EndSplineSet
EndChar

StartChar: braceright.mid
Encoding: 1114183 -1 165
Width: 666
GlyphClass: 1
Flags: W
LayerCount: 2
Fore
SplineSet
302 1485 m 1,0,-1
 302 962 l 2,1,2
 302 839 302 839 350 810 c 1,3,4
 411 746 411 746 434 746 c 1,5,-1
 354 674 l 1,6,7
 302 601 302 601 302 546 c 2,8,-1
 302 0 l 1,9,-1
 390 0 l 1,10,-1
 390 546 l 1,11,12
 410 622 410 622 474 662 c 1,13,14
 474 683 474 683 618 694 c 1,15,16
 646 717 646 717 646 742 c 0,17,18
 646 783 646 783 546 790 c 1,19,20
 430 835 430 835 402 886 c 1,21,22
 390 886 390 886 390 974 c 2,23,-1
 390 1485 l 1,24,-1
 302 1485 l 1,0,-1
EndSplineSet
EndChar

StartChar: braceright.top
Encoding: 1114184 -1 166
Width: 666
GlyphClass: 1
Flags: W
LayerCount: 2
Fore
SplineSet
302 0 m 1,0,-1
 302 2680 l 2,1,2
 303 2722 303 2722 298 2778 c 1,3,4
 253 2846 253 2846 98 2846 c 2,5,-1
 74 2846 l 2,6,7
 22 2846 22 2846 22 2894 c 1,8,9
 32 2934 32 2934 74 2934 c 2,10,-1
 106 2934 l 2,11,12
 255 2934 255 2934 334 2874 c 0,13,14
 371 2845 371 2845 381 2796 c 0,15,16
 390 2752 390 2752 390 2712 c 2,17,-1
 390 0 l 1,18,-1
 302 0 l 1,0,-1
EndSplineSet
EndChar

StartChar: asciitilde
Encoding: 126 126 167
Width: 1168
GlyphClass: 1
Flags: W
LayerCount: 2
Fore
SplineSet
396 680 m 1,0,-1
 428 680 l 2,1,2
 453 680 453 680 508 636 c 0,3,4
 569 587 569 587 616 492 c 0,5,6
 686 357 686 357 708 328 c 0,7,8
 752 275 752 275 760 272 c 2,9,-1
 820 272 l 2,10,11
 841 272 841 272 912 332 c 1,12,13
 969 393 969 393 1004 492 c 1,14,15
 1026 520 1026 520 1052 520 c 1,16,17
 1092 510 1092 510 1092 468 c 1,18,19
 1065 389 1065 389 1008 300 c 1,20,21
 927 219 927 219 900 216 c 1,22,23
 900 199 900 199 832 184 c 1,24,-1
 768 184 l 2,25,26
 704 184 704 184 676 228 c 1,27,28
 579 346 579 346 568 400 c 1,29,-1
 512 492 l 1,30,31
 496 532 496 532 448 568 c 1,32,33
 427 592 427 592 408 592 c 1,34,35
 377 584 377 584 304 580 c 1,36,-1
 264 556 l 1,37,38
 160 451 160 451 160 412 c 1,39,40
 150 380 150 380 116 380 c 1,41,42
 76 390 76 390 76 432 c 2,43,-1
 76 440 l 2,44,45
 76 478 76 478 128 536 c 1,46,47
 227 660 227 660 280 660 c 1,48,49
 304 670 304 670 396 680 c 1,0,-1
EndSplineSet
EndChar

StartChar: exclamdown
Encoding: 161 161 168
Width: 346
GlyphClass: 1
Flags: W
LayerCount: 2
Fore
SplineSet
181 -531 m 1,0,1
 221 -520 221 -520 221 -479 c 2,2,-1
 221 613 l 2,3,4
 221 665 221 665 173 665 c 1,5,6
 133 654 133 654 133 613 c 2,7,-1
 133 -479 l 2,8,9
 133 -531 133 -531 181 -531 c 1,0,1
169 861 m 2,10,-1
 181 861 l 2,11,12
 233 861 233 861 233 913 c 2,13,-1
 233 937 l 2,14,15
 233 993 233 993 177 993 c 2,16,-1
 165 993 l 2,17,18
 113 993 113 993 113 941 c 2,19,-1
 113 937 l 2,20,21
 113 861 113 861 169 861 c 2,10,-1
EndSplineSet
EndChar

StartChar: cent
Encoding: 162 162 169
Width: 1035
GlyphClass: 1
Flags: W
LayerCount: 2
Fore
SplineSet
556 1292 m 1,0,1
 596 1282 596 1282 596 1240 c 2,2,-1
 596 1004 l 1,3,4
 722 1004 722 1004 868 892 c 1,5,6
 972 787 972 787 972 744 c 2,7,-1
 972 736 l 2,8,9
 972 684 972 684 924 684 c 0,10,11
 894 684 894 684 880 740 c 1,12,13
 840 805 840 805 752 868 c 1,14,15
 652 912 652 912 628 912 c 1,16,17
 606 916 606 916 596 916 c 1,18,-1
 596 60 l 1,19,-1
 632 60 l 2,20,21
 734 60 734 60 772 100 c 1,22,23
 836 121 836 121 916 248 c 1,24,25
 933 260 933 260 948 260 c 1,26,27
 988 248 988 248 988 212 c 1,28,29
 937 73 937 73 776 0 c 1,30,31
 750 -28 750 -28 640 -28 c 2,32,-1
 596 -28 l 1,33,-1
 596 -348 l 2,34,35
 596 -400 596 -400 548 -400 c 1,36,37
 508 -390 508 -390 508 -348 c 2,38,-1
 508 -28 l 1,39,40
 399 -28 399 -28 308 20 c 1,41,42
 290 20 290 20 188 104 c 1,43,44
 100 227 100 227 100 284 c 1,45,46
 72 327 72 327 72 420 c 2,47,-1
 72 516 l 2,48,49
 72 665 72 665 156 800 c 0,50,51
 185 853 185 853 264 904 c 0,52,53
 409 992 409 992 504 1000 c 1,54,-1
 508 1000 l 1,55,-1
 508 1240 l 2,56,57
 508 1292 508 1292 556 1292 c 1,0,1
160 516 m 2,58,-1
 160 416 l 2,59,60
 160 363 160 363 188 292 c 0,61,62
 231 168 231 168 256 168 c 1,63,64
 365 60 365 60 508 60 c 1,65,-1
 508 912 l 1,66,67
 383 889 383 889 260 792 c 1,68,69
 210 737 210 737 168 608 c 1,70,71
 160 565 160 565 160 516 c 2,58,-1
EndSplineSet
EndChar

StartChar: sterling
Encoding: 163 163 170
Width: 1014
GlyphClass: 1
Flags: W
LayerCount: 2
Fore
SplineSet
436 1472 m 1,0,-1
 544 1472 l 2,1,2
 733 1472 733 1472 908 1324 c 1,3,-1
 940 1284 l 1,4,-1
 944 1264 l 1,5,6
 932 1224 932 1224 896 1224 c 0,7,8
 870 1224 870 1224 824 1280 c 1,9,10
 678 1384 678 1384 536 1384 c 2,11,-1
 452 1384 l 1,12,13
 354 1363 354 1363 264 1280 c 1,14,15
 216 1218 216 1218 216 1104 c 2,16,-1
 216 1008 l 1,17,18
 220 953 220 953 336 796 c 1,19,-1
 736 796 l 2,20,21
 788 796 788 796 788 748 c 1,22,23
 778 708 778 708 736 708 c 2,24,-1
 388 708 l 1,25,-1
 388 700 l 1,26,27
 417 670 417 670 432 568 c 1,28,29
 444 556 444 556 444 516 c 2,30,-1
 444 380 l 2,31,32
 444 315 444 315 316 156 c 1,33,34
 310 156 310 156 256 92 c 1,35,-1
 904 92 l 2,36,37
 956 92 956 92 956 44 c 1,38,39
 946 4 946 4 904 4 c 2,40,-1
 104 4 l 2,41,42
 52 4 52 4 52 52 c 0,43,44
 52 88 52 88 152 120 c 1,45,46
 152 126 152 126 192 156 c 1,47,48
 244 212 244 212 264 228 c 1,49,50
 346 337 346 337 356 388 c 1,51,-1
 356 520 l 1,52,53
 340 613 340 613 300 684 c 0,54,55
 288 702 288 702 288 708 c 1,56,-1
 112 708 l 2,57,58
 60 708 60 708 60 756 c 1,59,60
 70 796 70 796 112 796 c 2,61,-1
 228 796 l 1,62,63
 182 854 182 854 156 920 c 1,64,65
 128 970 128 970 128 996 c 2,66,-1
 128 1072 l 2,67,68
 128 1246 128 1246 184 1316 c 1,69,70
 195 1346 195 1346 296 1416 c 0,71,72
 327 1437 327 1437 376 1452 c 1,73,74
 376 1463 376 1463 436 1472 c 1,0,-1
EndSplineSet
EndChar

StartChar: currency
Encoding: 164 164 171
Width: 1040
GlyphClass: 1
Flags: W
LayerCount: 2
Fore
SplineSet
152 908 m 0,0,1
 173 905 173 905 200 868 c 1,2,3
 214 865 214 865 300 788 c 1,4,-1
 328 752 l 1,5,6
 404 788 404 788 420 788 c 2,7,-1
 552 788 l 1,8,9
 655 768 655 768 708 744 c 1,10,11
 708 754 708 754 844 888 c 1,12,13
 876 900 876 900 884 900 c 0,14,15
 928 891 928 891 928 852 c 0,16,17
 926 829 926 829 872 796 c 1,18,19
 872 784 872 784 800 720 c 0,20,21
 776 694 776 694 776 692 c 2,22,-1
 776 688 l 1,23,24
 825 610 825 610 832 556 c 1,25,-1
 832 436 l 2,26,27
 832 374 832 374 756 284 c 1,28,29
 774 284 774 284 868 208 c 1,30,31
 936 164 936 164 936 124 c 1,32,33
 924 84 924 84 888 84 c 0,34,35
 869 84 869 84 820 136 c 1,36,37
 811 136 811 136 740 196 c 1,38,39
 685 218 685 218 684 232 c 1,40,41
 643 206 643 206 572 188 c 1,42,-1
 496 188 l 2,43,44
 386 188 386 188 324 220 c 1,45,-1
 324 216 l 1,46,47
 316 213 316 213 216 112 c 1,48,49
 207 112 207 112 188 88 c 1,50,51
 172 80 172 80 160 80 c 0,52,53
 120 92 120 92 120 128 c 1,54,55
 124 158 124 158 176 200 c 1,56,57
 184 200 184 200 252 276 c 1,58,59
 164 344 164 344 164 444 c 2,60,-1
 164 520 l 1,61,62
 184 676 184 676 220 676 c 1,63,64
 238 704 238 704 252 704 c 1,65,66
 238 731 238 731 168 784 c 0,67,68
 104 830 104 830 104 868 c 1,69,70
 116 908 116 908 152 908 c 0,0,1
252 528 m 2,71,-1
 252 436 l 2,72,73
 252 411 252 411 280 368 c 1,74,-1
 344 312 l 2,75,76
 390 276 390 276 504 276 c 2,77,-1
 552 276 l 1,78,79
 679 311 679 311 720 380 c 0,80,81
 744 424 744 424 744 448 c 2,82,-1
 744 540 l 2,83,84
 744 569 744 569 704 636 c 1,85,86
 663 680 663 680 536 700 c 1,87,-1
 472 700 l 1,88,89
 463 688 463 688 388 684 c 1,90,91
 256 630 256 630 256 544 c 1,92,93
 252 544 252 544 252 528 c 2,71,-1
EndSplineSet
EndChar

StartChar: yen
Encoding: 165 165 172
Width: 1037
GlyphClass: 1
Flags: W
LayerCount: 2
Fore
SplineSet
964 1484 m 0,0,1
 1016 1484 1016 1484 1016 1436 c 0,2,3
 1016 1414 1016 1414 972 1392 c 1,4,-1
 864 1240 l 1,5,6
 864 1226 864 1226 832 1196 c 1,7,8
 776 1106 776 1106 776 1100 c 0,9,10
 683 975 683 975 656 928 c 1,11,12
 635 911 635 911 584 824 c 0,13,14
 556 772 556 772 544 772 c 1,15,-1
 544 532 l 1,16,-1
 688 532 l 2,17,18
 746 532 746 532 844 536 c 1,19,20
 884 524 884 524 884 488 c 0,21,22
 884 444 884 444 768 444 c 2,23,-1
 544 444 l 1,24,-1
 544 12 l 2,25,26
 544 -40 544 -40 496 -40 c 1,27,28
 456 -30 456 -30 456 12 c 2,29,-1
 456 444 l 1,30,-1
 200 444 l 2,31,32
 148 444 148 444 148 492 c 1,33,34
 158 532 158 532 200 532 c 2,35,-1
 456 532 l 1,36,-1
 456 760 l 1,37,38
 447 760 447 760 400 832 c 1,39,40
 324 928 324 928 300 968 c 1,41,42
 235 1051 235 1051 144 1196 c 0,43,44
 114 1239 114 1239 92 1284 c 0,45,46
 54 1350 54 1350 20 1400 c 1,47,-1
 12 1424 l 1,48,49
 12 1456 12 1456 56 1468 c 1,50,51
 95 1468 95 1468 156 1344 c 1,52,53
 175 1328 175 1328 192 1280 c 1,54,55
 203 1271 203 1271 268 1164 c 1,56,57
 294 1135 294 1135 352 1036 c 1,58,59
 372 1030 372 1030 400 976 c 1,60,61
 491 856 491 856 496 856 c 2,62,-1
 500 856 l 1,63,64
 500 876 500 876 540 920 c 1,65,-1
 628 1044 l 2,66,67
 700 1144 700 1144 732 1200 c 0,68,69
 766 1261 766 1261 788 1276 c 1,70,71
 791 1293 791 1293 884 1420 c 1,72,73
 922 1484 922 1484 964 1484 c 0,0,1
EndSplineSet
EndChar

StartChar: brokenbar
Encoding: 166 166 173
Width: 328
GlyphClass: 1
Flags: W
LayerCount: 2
Fore
SplineSet
168 1486 m 1,0,1
 208 1476 208 1476 208 1434 c 2,2,-1
 208 750 l 2,3,4
 208 698 208 698 160 698 c 1,5,6
 120 708 120 708 120 750 c 2,7,-1
 120 1434 l 2,8,9
 120 1486 120 1486 168 1486 c 1,0,1
168 304 m 1,10,11
 208 294 208 294 208 252 c 2,12,-1
 208 -460 l 2,13,14
 208 -512 208 -512 160 -512 c 1,15,16
 120 -502 120 -502 120 -460 c 2,17,-1
 120 252 l 2,18,19
 120 304 120 304 168 304 c 1,10,11
EndSplineSet
EndChar

StartChar: section
Encoding: 167 167 174
Width: 928
GlyphClass: 1
Flags: W
LayerCount: 2
Fore
SplineSet
424 1488 m 2,0,-1
 560 1488 l 1,1,2
 720 1460 720 1460 720 1436 c 1,3,4
 746 1436 746 1436 792 1348 c 1,5,-1
 792 1340 l 1,6,7
 780 1300 780 1300 744 1300 c 0,8,9
 725 1300 725 1300 704 1324 c 0,10,11
 658 1388 658 1388 604 1388 c 1,12,13
 604 1391 604 1391 540 1400 c 1,14,-1
 444 1400 l 1,15,16
 318 1356 318 1356 284 1300 c 1,17,18
 253 1265 253 1265 228 1180 c 1,19,-1
 228 1108 l 1,20,21
 320 984 320 984 328 984 c 1,22,23
 445 897 445 897 512 868 c 1,24,-1
 608 812 l 1,25,26
 614 801 614 801 668 772 c 1,27,28
 668 765 668 765 736 680 c 1,29,30
 776 596 776 596 776 552 c 2,31,-1
 776 440 l 2,32,33
 776 352 776 352 708 248 c 1,34,35
 670 200 670 200 664 200 c 1,36,-1
 664 196 l 1,37,38
 671 177 671 177 708 152 c 1,39,40
 781 66 781 66 800 -24 c 1,41,42
 808 -82 808 -82 808 -88 c 2,43,-1
 808 -204 l 2,44,45
 808 -310 808 -310 760 -360 c 1,46,47
 719 -423 719 -423 624 -468 c 0,48,49
 555 -500 555 -500 532 -500 c 2,50,-1
 376 -500 l 2,51,52
 352 -500 352 -500 296 -468 c 1,53,54
 265 -465 265 -465 164 -380 c 1,55,56
 120 -332 120 -332 120 -304 c 1,57,58
 129 -260 129 -260 168 -260 c 0,59,60
 189 -260 189 -260 244 -332 c 1,61,62
 325 -390 325 -390 368 -400 c 1,63,64
 370 -412 370 -412 400 -412 c 2,65,-1
 512 -412 l 2,66,67
 571 -412 571 -412 684 -320 c 1,68,69
 720 -280 720 -280 720 -180 c 2,70,-1
 720 -104 l 2,71,72
 720 25 720 25 612 116 c 1,73,74
 567 173 567 173 472 244 c 1,75,76
 413 303 413 303 304 384 c 1,77,78
 304 391 304 391 244 440 c 0,79,80
 244 445 244 445 196 500 c 0,81,82
 196 506 196 506 168 536 c 1,83,84
 140 579 140 579 140 604 c 2,85,-1
 140 684 l 2,86,87
 140 758 140 758 220 840 c 0,88,89
 223 840 223 840 292 892 c 0,90,91
 296 892 296 892 296 896 c 0,92,93
 247 925 247 925 228 964 c 1,94,95
 140 1071 140 1071 140 1108 c 2,96,-1
 140 1164 l 2,97,98
 140 1234 140 1234 188 1316 c 0,99,100
 228 1385 228 1385 312 1444 c 1,101,102
 414 1488 414 1488 424 1488 c 2,0,-1
228 684 m 1,103,-1
 228 616 l 2,104,105
 228 600 228 600 284 532 c 1,106,107
 293 532 293 532 312 496 c 1,108,109
 470 370 470 370 508 328 c 1,110,-1
 604 256 l 1,111,112
 604 267 604 267 648 320 c 1,113,114
 648 330 648 330 672 368 c 1,115,116
 688 424 688 424 688 432 c 2,117,-1
 688 528 l 2,118,119
 688 583 688 583 656 636 c 0,120,121
 624 694 624 694 520 764 c 1,122,123
 511 764 511 764 392 832 c 1,124,125
 349 829 349 829 284 776 c 1,126,127
 246 755 246 755 228 684 c 1,103,-1
EndSplineSet
EndChar

StartChar: dieresis
Encoding: 168 168 175
Width: 1014
GlyphClass: 1
Flags: W
LayerCount: 2
Fore
SplineSet
712 1735 m 2,0,-1
 736 1735 l 2,1,2
 788 1735 788 1735 788 1683 c 2,3,-1
 788 1647 l 2,4,5
 788 1587 788 1587 732 1587 c 2,6,-1
 708 1587 l 1,7,8
 648 1596 648 1596 648 1651 c 2,9,-1
 648 1671 l 1,10,11
 660 1735 660 1735 712 1735 c 2,0,-1
236 1715 m 1,12,13
 340 1715 340 1715 340 1667 c 2,14,-1
 340 1647 l 2,15,16
 340 1592 340 1592 280 1583 c 1,17,-1
 248 1583 l 2,18,19
 196 1583 196 1583 196 1635 c 2,20,-1
 196 1663 l 2,21,22
 196 1704 196 1704 236 1715 c 1,12,13
EndSplineSet
EndChar

StartChar: copyright
Encoding: 169 169 176
Width: 1700
GlyphClass: 1
Flags: W
LayerCount: 2
Fore
SplineSet
884 1254 m 1,0,1
 994 1254 994 1254 1060 1226 c 1,2,3
 1075 1215 1075 1215 1156 1202 c 1,4,5
 1168 1193 1168 1193 1220 1178 c 1,6,7
 1385 1096 1385 1096 1440 1042 c 0,8,9
 1480 1007 1480 1007 1524 938 c 1,10,11
 1608 779 1608 779 1608 738 c 1,12,13
 1627 687 1627 687 1636 638 c 1,14,-1
 1636 554 l 2,15,16
 1636 383 1636 383 1616 358 c 1,17,18
 1616 323 1616 323 1568 190 c 0,19,20
 1568 185 1568 185 1476 26 c 1,21,22
 1464 26 1464 26 1364 -70 c 1,23,24
 1354 -70 1354 -70 1308 -114 c 1,25,26
 1277 -123 1277 -123 1200 -166 c 1,27,28
 1068 -210 1068 -210 980 -210 c 2,29,-1
 848 -210 l 2,30,31
 745 -210 745 -210 604 -166 c 1,32,33
 451 -111 451 -111 340 -34 c 1,34,35
 332 -34 332 -34 276 26 c 0,36,37
 156 148 156 148 140 222 c 1,38,39
 72 372 72 372 72 454 c 2,40,-1
 72 510 l 2,41,42
 72 646 72 646 92 686 c 1,43,44
 100 731 100 731 164 878 c 1,45,46
 175 928 175 928 236 998 c 0,47,48
 297 1072 297 1072 392 1122 c 1,49,50
 436 1151 436 1151 532 1194 c 1,51,52
 532 1223 532 1223 884 1254 c 1,0,1
648 1146 m 1,53,54
 638 1137 638 1137 576 1126 c 1,55,56
 572 1114 572 1114 484 1078 c 1,57,-1
 368 1006 l 1,58,59
 253 924 253 924 216 770 c 1,60,61
 203 770 203 770 164 630 c 0,62,63
 156 587 156 587 156 538 c 2,64,-1
 156 462 l 2,65,66
 156 424 156 424 188 318 c 1,67,68
 255 161 255 161 296 134 c 1,69,70
 296 123 296 123 364 58 c 0,71,72
 425 -5 425 -5 632 -86 c 1,73,74
 772 -126 772 -126 840 -126 c 2,75,-1
 968 -126 l 2,76,77
 1005 -126 1005 -126 1136 -102 c 1,78,79
 1307 -22 1307 -22 1332 18 c 1,80,81
 1436 103 1436 103 1436 134 c 1,82,83
 1448 134 1448 134 1460 170 c 1,84,85
 1532 297 1532 297 1532 366 c 1,86,87
 1552 435 1552 435 1552 522 c 2,88,-1
 1552 590 l 2,89,90
 1552 674 1552 674 1500 798 c 0,91,92
 1440 933 1440 933 1360 1002 c 1,93,94
 1170 1125 1170 1125 1048 1138 c 1,95,96
 986 1170 986 1170 896 1170 c 2,97,-1
 888 1170 l 1,98,99
 691 1146 691 1146 648 1146 c 1,53,54
872 992 m 2,100,-1
 976 992 l 1,101,102
 1312 913 1312 913 1312 836 c 1,103,104
 1300 796 1300 796 1272 796 c 0,105,106
 1250 796 1250 796 1208 828 c 1,107,108
 1106 878 1106 878 996 900 c 1,109,110
 981 908 981 908 964 908 c 2,111,-1
 908 908 l 2,112,113
 797 908 797 908 628 800 c 1,114,115
 575 784 575 784 508 688 c 0,116,117
 472 642 472 642 472 444 c 1,118,119
 511 365 511 365 536 340 c 1,120,121
 536 321 536 321 560 308 c 1,122,123
 598 258 598 258 636 248 c 1,124,125
 636 233 636 233 748 192 c 0,126,127
 783 176 783 176 800 176 c 1,128,129
 847 164 847 164 856 156 c 1,130,-1
 944 156 l 2,131,132
 1088 156 1088 156 1168 248 c 1,133,134
 1168 260 1168 260 1204 268 c 1,135,136
 1236 268 1236 268 1244 224 c 1,137,138
 1244 154 1244 154 1064 88 c 1,139,140
 993 72 993 72 936 72 c 2,141,-1
 852 72 l 1,142,143
 707 107 707 107 620 156 c 2,144,-1
 528 212 l 1,145,146
 528 221 528 221 468 276 c 1,147,148
 388 398 388 398 388 468 c 0,149,150
 396 693 396 693 428 712 c 1,151,152
 463 808 463 808 588 876 c 1,153,154
 785 992 785 992 872 992 c 2,100,-1
EndSplineSet
EndChar

StartChar: ordfeminine
Encoding: 170 170 177
Width: 648
GlyphClass: 1
Flags: W
LayerCount: 2
Fore
SplineSet
271 1653 m 1,0,-1
 403 1653 l 1,1,2
 531 1614 531 1614 531 1573 c 1,3,4
 563 1558 563 1558 563 1293 c 2,5,-1
 563 1289 l 2,6,7
 563 1173 563 1173 523 1173 c 2,8,-1
 515 1173 l 1,9,10
 483 1183 483 1183 483 1193 c 1,11,12
 454 1193 454 1193 367 1169 c 1,13,-1
 187 1169 l 1,14,15
 87 1200 87 1200 87 1265 c 2,16,-1
 87 1297 l 2,17,18
 87 1378 87 1378 135 1401 c 1,19,20
 154 1425 154 1425 231 1437 c 1,21,22
 411 1437 411 1437 475 1425 c 1,23,-1
 475 1453 l 2,24,25
 475 1547 475 1547 423 1557 c 0,26,27
 413 1557 413 1557 395 1569 c 1,28,-1
 295 1569 l 1,29,30
 175 1545 175 1545 175 1493 c 1,31,32
 157 1469 157 1469 135 1469 c 0,33,34
 103 1469 103 1469 95 1513 c 1,35,-1
 95 1529 l 2,36,37
 95 1573 95 1573 191 1629 c 1,38,-1
 271 1653 l 1,0,-1
171 1277 m 2,39,-1
 171 1273 l 2,40,41
 171 1261 171 1261 207 1253 c 1,42,-1
 339 1253 l 2,43,44
 352 1253 352 1253 431 1273 c 0,45,46
 438 1273 438 1273 479 1277 c 1,47,-1
 479 1329 l 1,48,49
 472 1329 472 1329 427 1349 c 1,50,51
 290 1353 290 1353 251 1353 c 1,52,53
 175 1344 175 1344 175 1317 c 1,54,55
 171 1296 171 1296 171 1277 c 2,39,-1
155 1093 m 1,56,57
 298 1093 298 1093 539 1085 c 1,58,59
 575 1072 575 1072 575 1041 c 0,60,61
 575 1016 575 1016 539 1001 c 1,62,63
 268 1009 268 1009 147 1009 c 1,64,65
 111 1022 111 1022 111 1053 c 0,66,67
 111 1085 111 1085 155 1093 c 1,56,57
EndSplineSet
EndChar

StartChar: guillemetleft
Encoding: 171 171 178
Width: 1614
GlyphClass: 1
Flags: W
LayerCount: 2
Fore
SplineSet
876 931 m 1,0,1
 916 920 916 920 916 879 c 0,2,3
 916 847 916 847 836 811 c 1,4,5
 809 786 809 786 712 735 c 1,6,7
 695 712 695 712 652 695 c 1,8,9
 574 649 574 649 536 615 c 1,10,11
 527 615 527 615 424 547 c 2,12,-1
 220 411 l 1,13,-1
 220 407 l 1,14,-1
 392 335 l 1,15,16
 473 311 473 311 692 203 c 1,17,-1
 820 151 l 2,18,19
 826 151 826 151 852 135 c 1,20,21
 948 112 948 112 948 63 c 1,22,23
 939 19 939 19 900 19 c 1,24,25
 857 39 857 39 780 67 c 1,26,-1
 432 227 l 1,27,28
 342 255 342 255 108 363 c 1,29,30
 96 389 96 389 96 403 c 0,31,32
 96 444 96 444 136 455 c 1,33,34
 205 508 205 508 316 579 c 1,35,36
 348 607 348 607 416 643 c 1,37,38
 421 653 421 653 512 707 c 1,39,40
 597 771 597 771 648 791 c 1,41,42
 648 805 648 805 716 835 c 1,43,44
 721 848 721 848 752 859 c 1,45,-1
 840 915 l 1,46,47
 855 931 855 931 876 931 c 1,0,1
1476 931 m 1,48,49
 1516 920 1516 920 1516 879 c 0,50,51
 1516 847 1516 847 1436 811 c 1,52,53
 1409 786 1409 786 1312 735 c 1,54,55
 1295 712 1295 712 1252 695 c 1,56,57
 1174 649 1174 649 1136 615 c 1,58,59
 1127 615 1127 615 1024 547 c 2,60,-1
 820 411 l 1,61,-1
 820 407 l 1,62,-1
 992 335 l 1,63,64
 1073 311 1073 311 1292 203 c 1,65,-1
 1420 151 l 2,66,67
 1426 151 1426 151 1452 135 c 1,68,69
 1548 112 1548 112 1548 63 c 1,70,71
 1539 19 1539 19 1500 19 c 1,72,73
 1457 39 1457 39 1380 67 c 1,74,-1
 1032 227 l 1,75,76
 942 255 942 255 708 363 c 1,77,78
 696 389 696 389 696 403 c 0,79,80
 696 444 696 444 736 455 c 1,81,82
 805 508 805 508 916 579 c 1,83,84
 948 607 948 607 1016 643 c 1,85,86
 1021 653 1021 653 1112 707 c 1,87,88
 1197 771 1197 771 1248 791 c 1,89,90
 1248 805 1248 805 1316 835 c 1,91,92
 1321 848 1321 848 1352 859 c 1,93,-1
 1440 915 l 1,94,95
 1455 931 1455 931 1476 931 c 1,48,49
EndSplineSet
EndChar

StartChar: logicalnot
Encoding: 172 172 179
Width: 1000
GlyphClass: 1
Flags: W
LayerCount: 2
Fore
SplineSet
672 784 m 1,0,-1
 800 784 l 1,1,2
 876 775 876 775 876 732 c 2,3,-1
 876 620 l 2,4,5
 876 615 876 615 868 576 c 1,6,-1
 868 420 l 2,7,8
 868 404 868 404 856 292 c 1,9,-1
 856 208 l 1,10,11
 849 164 849 164 812 164 c 0,12,13
 785 164 785 164 768 196 c 1,14,15
 768 218 768 218 784 444 c 1,16,-1
 784 588 l 2,17,18
 784 593 784 593 792 632 c 1,19,-1
 792 700 l 1,20,-1
 684 700 l 1,21,22
 645 692 645 692 640 692 c 2,23,-1
 588 692 l 1,24,-1
 132 676 l 1,25,26
 96 689 96 689 96 720 c 0,27,28
 96 764 96 764 200 764 c 2,29,-1
 596 776 l 1,30,-1
 628 776 l 2,31,32
 633 776 633 776 672 784 c 1,0,-1
EndSplineSet
EndChar

StartChar: registered
Encoding: 174 174 180
Width: 1700
GlyphClass: 1
Flags: W
LayerCount: 2
Fore
SplineSet
884 1254 m 1,0,1
 994 1254 994 1254 1060 1226 c 1,2,3
 1075 1215 1075 1215 1156 1202 c 1,4,5
 1168 1193 1168 1193 1220 1178 c 1,6,7
 1385 1096 1385 1096 1440 1042 c 0,8,9
 1480 1007 1480 1007 1524 938 c 1,10,11
 1608 779 1608 779 1608 738 c 1,12,13
 1627 687 1627 687 1636 638 c 1,14,-1
 1636 554 l 2,15,16
 1636 383 1636 383 1616 358 c 1,17,18
 1616 323 1616 323 1568 190 c 0,19,20
 1568 185 1568 185 1476 26 c 1,21,22
 1464 26 1464 26 1364 -70 c 1,23,24
 1354 -70 1354 -70 1308 -114 c 1,25,26
 1277 -123 1277 -123 1200 -166 c 1,27,28
 1068 -210 1068 -210 980 -210 c 2,29,-1
 848 -210 l 2,30,31
 745 -210 745 -210 604 -166 c 1,32,33
 451 -111 451 -111 340 -34 c 1,34,35
 332 -34 332 -34 276 26 c 0,36,37
 156 148 156 148 140 222 c 1,38,39
 72 372 72 372 72 454 c 2,40,-1
 72 510 l 2,41,42
 72 646 72 646 92 686 c 1,43,44
 100 731 100 731 164 878 c 1,45,46
 175 928 175 928 236 998 c 0,47,48
 297 1072 297 1072 392 1122 c 1,49,50
 436 1151 436 1151 532 1194 c 1,51,52
 532 1223 532 1223 884 1254 c 1,0,1
648 1146 m 1,53,54
 638 1137 638 1137 576 1126 c 1,55,56
 572 1114 572 1114 484 1078 c 1,57,-1
 368 1006 l 1,58,59
 253 924 253 924 216 770 c 1,60,61
 203 770 203 770 164 630 c 0,62,63
 156 587 156 587 156 538 c 2,64,-1
 156 462 l 2,65,66
 156 424 156 424 188 318 c 1,67,68
 255 161 255 161 296 134 c 1,69,70
 296 123 296 123 364 58 c 0,71,72
 425 -5 425 -5 632 -86 c 1,73,74
 772 -126 772 -126 840 -126 c 2,75,-1
 968 -126 l 2,76,77
 1005 -126 1005 -126 1136 -102 c 1,78,79
 1307 -22 1307 -22 1332 18 c 1,80,81
 1436 103 1436 103 1436 134 c 1,82,83
 1448 134 1448 134 1460 170 c 1,84,85
 1532 297 1532 297 1532 366 c 1,86,87
 1552 435 1552 435 1552 522 c 2,88,-1
 1552 590 l 2,89,90
 1552 674 1552 674 1500 798 c 0,91,92
 1440 933 1440 933 1360 1002 c 1,93,94
 1170 1125 1170 1125 1048 1138 c 1,95,96
 986 1170 986 1170 896 1170 c 2,97,-1
 888 1170 l 1,98,99
 691 1146 691 1146 648 1146 c 1,53,54
1008 988 m 2,100,-1
 1016 988 l 1,101,102
 1094 972 1094 972 1128 948 c 1,103,104
 1232 909 1232 909 1232 780 c 2,105,-1
 1232 708 l 2,106,107
 1232 611 1232 611 1100 528 c 1,108,109
 943 460 943 460 876 460 c 1,110,111
 826 452 826 452 736 448 c 1,112,-1
 736 444 l 1,113,114
 753 444 753 444 804 396 c 1,115,116
 852 376 852 376 900 336 c 1,117,118
 900 324 900 324 952 304 c 1,119,120
 1030 245 1030 245 1076 228 c 1,121,122
 1096 205 1096 205 1180 164 c 1,123,124
 1180 159 1180 159 1232 132 c 1,125,126
 1244 103 1244 103 1244 96 c 0,127,128
 1244 64 1244 64 1200 56 c 0,129,130
 1182 56 1182 56 988 180 c 1,131,132
 974 180 974 180 912 228 c 1,133,134
 902 228 902 228 792 308 c 0,135,136
 786 308 786 308 704 368 c 1,137,138
 636 407 636 407 596 420 c 0,139,140
 587 420 587 420 580 424 c 1,141,-1
 580 336 l 1,142,143
 588 88 588 88 588 76 c 1,144,145
 575 40 575 40 544 40 c 1,146,147
 504 52 504 52 504 80 c 0,148,149
 496 277 496 277 496 360 c 2,150,-1
 496 448 l 2,151,152
 496 598 496 598 500 884 c 0,153,154
 504 891 504 891 504 900 c 1,155,156
 494 900 494 900 488 932 c 1,157,158
 488 976 488 976 592 976 c 2,159,-1
 652 976 l 2,160,161
 662 976 662 976 688 984 c 1,162,163
 889 988 889 988 1008 988 c 2,100,-1
708 900 m 1,164,165
 693 892 693 892 676 892 c 2,166,-1
 580 892 l 1,167,168
 584 884 584 884 584 880 c 0,169,170
 584 844 584 844 580 532 c 1,171,-1
 648 532 l 2,172,173
 861 532 861 532 956 560 c 0,174,175
 1063 588 1063 588 1128 660 c 1,176,177
 1148 699 1148 699 1148 716 c 2,178,-1
 1148 740 l 2,179,180
 1148 856 1148 856 1116 856 c 1,181,182
 1100 883 1100 883 1004 904 c 1,183,-1
 972 904 l 2,184,185
 880 904 880 904 708 900 c 1,164,165
EndSplineSet
EndChar

StartChar: macron
Encoding: 175 175 181
Width: 1024
GlyphClass: 1
Flags: W
LayerCount: 2
Fore
SplineSet
260 1716 m 2,0,-1
 776 1716 l 2,1,2
 828 1716 828 1716 828 1668 c 1,3,4
 818 1628 818 1628 776 1628 c 2,5,-1
 260 1628 l 2,6,7
 208 1628 208 1628 208 1676 c 1,8,9
 218 1716 218 1716 260 1716 c 2,0,-1
EndSplineSet
EndChar

StartChar: degree
Encoding: 176 176 182
Width: 592
GlyphClass: 1
Flags: W
LayerCount: 2
Fore
SplineSet
268 1520 m 1,0,-1
 300 1520 l 2,1,2
 381 1520 381 1520 408 1480 c 1,3,4
 480 1436 480 1436 480 1388 c 1,5,6
 500 1370 500 1370 500 1324 c 2,7,-1
 500 1288 l 2,8,9
 500 1216 500 1216 448 1172 c 1,10,11
 393 1118 393 1118 304 1096 c 1,12,-1
 260 1096 l 2,13,14
 173 1096 173 1096 96 1192 c 1,15,16
 76 1228 76 1228 76 1248 c 2,17,-1
 76 1292 l 2,18,19
 76 1370 76 1370 128 1444 c 1,20,21
 128 1457 128 1457 208 1500 c 1,22,23
 208 1511 208 1511 268 1520 c 1,0,-1
160 1312 m 1,24,-1
 160 1256 l 1,25,26
 194 1197 194 1197 240 1184 c 0,27,28
 240 1180 240 1180 244 1180 c 2,29,-1
 296 1180 l 1,30,31
 357 1202 357 1202 396 1240 c 0,32,33
 416 1256 416 1256 416 1300 c 2,34,-1
 416 1308 l 2,35,36
 416 1356 416 1356 376 1400 c 0,37,38
 346 1436 346 1436 272 1436 c 1,39,40
 176 1390 176 1390 176 1356 c 1,41,-1
 160 1312 l 1,24,-1
EndSplineSet
EndChar

StartChar: plusminus
Encoding: 177 177 183
Width: 900
GlyphClass: 1
Flags: W
LayerCount: 2
Fore
SplineSet
460 1040 m 0,0,1
 492 1040 492 1040 500 996 c 1,2,-1
 500 924 l 1,3,4
 512 888 512 888 512 884 c 2,5,-1
 512 772 l 2,6,7
 512 752 512 752 516 712 c 1,8,9
 634 712 634 712 760 724 c 1,10,11
 796 711 796 711 796 680 c 0,12,13
 796 632 796 632 656 632 c 1,14,15
 607 628 607 628 516 628 c 1,16,-1
 516 624 l 1,17,18
 520 447 520 447 528 372 c 1,19,20
 515 336 515 336 484 336 c 0,21,22
 436 336 436 336 436 476 c 0,23,24
 436 545 436 545 432 628 c 1,25,-1
 160 628 l 1,26,27
 116 635 116 635 116 672 c 0,28,29
 116 704 116 704 160 712 c 1,30,-1
 432 712 l 1,31,-1
 428 752 l 1,32,-1
 428 868 l 1,33,34
 416 906 416 906 416 916 c 2,35,-1
 416 996 l 1,36,37
 423 1040 423 1040 460 1040 c 0,0,1
164 184 m 1,38,39
 544 180 544 180 748 180 c 1,40,41
 792 173 792 173 792 136 c 0,42,43
 792 104 792 104 748 96 c 1,44,-1
 708 96 l 2,45,46
 518 96 518 96 164 100 c 1,47,48
 128 113 128 113 128 144 c 0,49,50
 128 169 128 169 164 184 c 1,38,39
EndSplineSet
EndChar

StartChar: twosuperior
Encoding: 178 178 184
Width: 617
GlyphClass: 1
Flags: W
LayerCount: 2
Fore
SplineSet
365 1485 m 2,0,1
 418 1485 418 1485 513 1389 c 1,2,3
 537 1337 537 1337 537 1285 c 2,4,-1
 537 1197 l 2,5,6
 537 1126 537 1126 461 1045 c 1,7,8
 461 1033 461 1033 345 925 c 1,9,10
 327 925 327 925 261 865 c 1,11,-1
 505 865 l 2,12,13
 557 865 557 865 557 817 c 1,14,15
 546 777 546 777 505 777 c 2,16,-1
 137 777 l 2,17,18
 85 777 85 777 85 825 c 1,19,20
 94 860 94 860 193 929 c 0,21,22
 198 929 198 929 341 1045 c 1,23,24
 449 1151 449 1151 449 1197 c 2,25,-1
 449 1277 l 2,26,27
 449 1341 449 1341 397 1373 c 0,28,29
 386 1384 386 1384 353 1397 c 1,30,31
 201 1397 201 1397 201 1369 c 1,32,33
 171 1337 171 1337 133 1241 c 1,34,35
 106 1229 106 1229 97 1229 c 0,36,37
 57 1239 57 1239 57 1285 c 1,38,39
 96 1419 96 1419 177 1461 c 1,40,41
 177 1482 177 1482 341 1485 c 2,42,-1
 365 1485 l 2,0,1
EndSplineSet
EndChar

StartChar: threesuperior
Encoding: 179 179 185
Width: 617
GlyphClass: 1
Flags: W
LayerCount: 2
Fore
SplineSet
259 1494 m 2,0,-1
 375 1494 l 1,1,2
 471 1466 471 1466 471 1438 c 1,3,4
 511 1398 511 1398 511 1310 c 2,5,-1
 511 1302 l 2,6,7
 511 1254 511 1254 451 1194 c 1,8,9
 457 1194 457 1194 499 1146 c 1,10,11
 526 1146 526 1146 563 1018 c 1,12,-1
 563 950 l 1,13,14
 555 883 555 883 427 774 c 1,15,16
 387 746 387 746 359 746 c 2,17,-1
 247 746 l 2,18,19
 215 746 215 746 135 810 c 1,20,21
 31 870 31 870 31 918 c 1,22,23
 40 962 40 962 79 962 c 0,24,25
 91 962 91 962 171 890 c 1,26,27
 258 834 258 834 271 834 c 2,28,-1
 335 834 l 2,29,30
 376 834 376 834 439 910 c 0,31,32
 475 948 475 948 475 974 c 2,33,-1
 475 990 l 2,34,35
 475 1049 475 1049 411 1110 c 1,36,37
 411 1121 411 1121 355 1130 c 1,38,-1
 303 1130 l 2,39,40
 251 1130 251 1130 251 1178 c 1,41,42
 258 1226 258 1226 323 1226 c 1,43,44
 386 1244 386 1244 423 1302 c 1,45,-1
 423 1314 l 2,46,47
 423 1364 423 1364 391 1394 c 1,48,49
 376 1394 376 1394 359 1406 c 1,50,-1
 267 1406 l 1,51,52
 206 1365 206 1365 163 1294 c 1,53,54
 146 1282 146 1282 131 1282 c 0,55,56
 98 1282 98 1282 87 1326 c 1,57,58
 87 1359 87 1359 135 1410 c 0,59,60
 214 1494 214 1494 259 1494 c 2,0,-1
EndSplineSet
EndChar

StartChar: acute
Encoding: 180 180 186
Width: 1014
GlyphClass: 1
Flags: W
LayerCount: 2
Fore
SplineSet
760 1864 m 1,0,1
 800 1852 800 1852 800 1816 c 0,2,3
 800 1784 800 1784 720 1744 c 1,4,5
 669 1703 669 1703 604 1668 c 1,6,7
 596 1651 596 1651 516 1612 c 1,8,9
 494 1587 494 1587 420 1556 c 1,10,11
 420 1549 420 1549 348 1508 c 0,12,13
 331 1496 331 1496 284 1488 c 1,14,15
 244 1500 244 1500 244 1536 c 1,16,17
 255 1584 255 1584 304 1584 c 1,18,19
 383 1639 383 1639 540 1724 c 1,20,21
 545 1741 545 1741 692 1824 c 1,22,23
 733 1864 733 1864 760 1864 c 1,0,1
EndSplineSet
EndChar

StartChar: mu
Encoding: 181 181 187
Width: 1184
GlyphClass: 1
Flags: W
LayerCount: 2
Fore
SplineSet
956 1012 m 1,0,1
 996 1002 996 1002 996 960 c 2,2,-1
 996 344 l 1,3,-1
 1012 204 l 1,4,5
 1050 64 1050 64 1112 64 c 1,6,7
 1164 51 1164 51 1164 12 c 1,8,9
 1154 -28 1154 -28 1112 -28 c 2,10,-1
 1108 -28 l 1,11,12
 1000 -14 1000 -14 980 52 c 1,13,14
 952 85 952 85 928 168 c 1,15,-1
 924 168 l 1,16,17
 866 88 866 88 816 52 c 1,18,19
 736 -32 736 -32 640 -32 c 0,20,21
 446 -32 446 -32 392 0 c 1,22,23
 330 14 330 14 228 92 c 1,24,25
 228 102 228 102 208 116 c 1,26,-1
 208 -584 l 2,27,28
 208 -636 208 -636 160 -636 c 1,29,30
 120 -626 120 -626 120 -584 c 2,31,-1
 120 948 l 2,32,33
 120 1000 120 1000 168 1000 c 1,34,35
 208 990 208 990 208 948 c 2,36,-1
 208 312 l 1,37,38
 224 255 224 255 272 180 c 1,39,40
 338 100 338 100 480 68 c 0,41,42
 531 56 531 56 616 56 c 2,43,-1
 652 56 l 1,44,45
 726 77 726 77 768 132 c 1,46,47
 797 152 797 152 820 184 c 1,48,49
 892 253 892 253 892 384 c 2,50,-1
 892 412 l 2,51,52
 892 429 892 429 904 456 c 1,53,54
 908 652 908 652 908 760 c 2,55,-1
 908 960 l 2,56,57
 908 1012 908 1012 956 1012 c 1,0,1
EndSplineSet
EndChar

StartChar: paragraph
Encoding: 182 182 188
Width: 1200
GlyphClass: 1
Flags: W
LayerCount: 2
Fore
SplineSet
668 1388 m 2,0,-1
 1068 1388 l 1,1,2
 1112 1381 1112 1381 1112 1344 c 0,3,4
 1112 1312 1112 1312 1068 1304 c 1,5,-1
 1040 1304 l 1,6,-1
 1040 1168 l 2,7,8
 1040 1022 1040 1022 1048 624 c 1,9,10
 1068 624 1068 624 1068 -168 c 1,11,12
 1055 -204 1055 -204 1024 -204 c 0,13,14
 992 -204 992 -204 984 -160 c 1,15,16
 984 172 984 172 976 580 c 1,17,18
 964 607 964 607 964 624 c 0,19,20
 956 1022 956 1022 956 1168 c 2,21,-1
 956 1304 l 1,22,-1
 792 1304 l 1,23,-1
 796 1296 l 1,24,-1
 796 1184 l 2,25,26
 796 1112 796 1112 788 1032 c 1,27,28
 784 581 784 581 784 276 c 2,29,-1
 784 244 l 2,30,31
 784 4 784 4 796 -136 c 1,32,33
 783 -172 783 -172 752 -172 c 256,34,35
 721 -172 721 -172 708 -136 c 1,36,37
 700 78 700 78 700 256 c 2,38,-1
 700 712 l 1,39,40
 568 708 568 708 468 700 c 1,41,-1
 388 700 l 2,42,43
 293 700 293 700 212 748 c 1,44,45
 96 802 96 802 96 940 c 2,46,-1
 96 984 l 1,47,48
 135 1168 135 1168 168 1168 c 1,49,50
 168 1188 168 1188 256 1248 c 1,51,52
 256 1265 256 1265 392 1332 c 1,53,54
 524 1384 524 1384 604 1384 c 1,55,56
 604 1388 604 1388 668 1388 c 2,0,-1
EndSplineSet
EndChar

StartChar: periodcentered
Encoding: 183 183 189
AltUni2: 002219.ffffffff.0 002219.ffffffff.0
Width: 604
GlyphClass: 1
Flags: W
LayerCount: 2
Fore
SplineSet
392.5 597.5 m 128,-1,1
 430 560 430 560 430 507 c 256,2,3
 430 454 430 454 392.5 416.5 c 128,-1,4
 355 379 355 379 302 379 c 256,5,6
 249 379 249 379 211.5 416.5 c 128,-1,7
 174 454 174 454 174 507 c 256,8,9
 174 560 174 560 211.5 597.5 c 128,-1,10
 249 635 249 635 302 635 c 256,11,0
 355 635 355 635 392.5 597.5 c 128,-1,1
EndSplineSet
EndChar

StartChar: cedilla
Encoding: 184 184 190
Width: 1014
GlyphClass: 1
Flags: W
LayerCount: 2
Fore
SplineSet
512 44 m 1,0,1
 552 34 552 34 552 -8 c 2,2,-1
 552 -36 l 1,3,-1
 540 -104 l 1,4,5
 630 -104 630 -104 680 -204 c 1,6,-1
 680 -292 l 2,7,8
 680 -342 680 -342 584 -412 c 1,9,10
 584 -422 584 -422 504 -424 c 2,11,-1
 456 -424 l 1,12,13
 402 -418 402 -418 352 -352 c 1,14,15
 336 -339 336 -339 336 -312 c 1,16,17
 345 -268 345 -268 384 -268 c 0,18,19
 405 -270 405 -270 448 -328 c 1,20,21
 458 -328 458 -328 468 -336 c 1,22,-1
 516 -336 l 2,23,24
 554 -336 554 -336 592 -284 c 1,25,-1
 592 -228 l 1,26,27
 580 -192 580 -192 492 -192 c 0,28,29
 446 -192 446 -192 440 -148 c 1,30,31
 452 -114 452 -114 468 20 c 1,32,33
 489 44 489 44 512 44 c 1,0,1
EndSplineSet
EndChar

StartChar: onesuperior
Encoding: 185 185 191
Width: 617
GlyphClass: 1
Flags: W
LayerCount: 2
Fore
SplineSet
348 1504 m 1,0,1
 392 1497 392 1497 392 1452 c 2,2,-1
 392 864 l 1,3,-1
 532 864 l 2,4,5
 584 864 584 864 584 816 c 1,6,7
 574 776 574 776 532 776 c 2,8,-1
 136 776 l 2,9,10
 84 776 84 776 84 824 c 1,11,12
 94 864 94 864 136 864 c 2,13,-1
 304 864 l 1,14,-1
 304 1364 l 1,15,-1
 300 1364 l 1,16,17
 133 1260 133 1260 128 1260 c 0,18,19
 119 1260 119 1260 112 1256 c 1,20,21
 68 1268 68 1268 68 1300 c 0,22,23
 68 1334 68 1334 172 1388 c 1,24,25
 252 1436 252 1436 328 1500 c 1,26,-1
 348 1504 l 1,0,1
EndSplineSet
EndChar

StartChar: ordmasculine
Encoding: 186 186 192
Width: 648
GlyphClass: 1
Flags: W
LayerCount: 2
Fore
SplineSet
155 1093 m 1,0,1
 298 1093 298 1093 539 1085 c 1,2,3
 575 1072 575 1072 575 1041 c 0,4,5
 575 1016 575 1016 539 1001 c 1,6,7
 268 1009 268 1009 147 1009 c 1,8,9
 111 1022 111 1022 111 1053 c 0,10,11
 111 1085 111 1085 155 1093 c 1,0,1
309 1682 m 1,12,-1
 389 1682 l 2,13,14
 434 1682 434 1682 493 1614 c 1,15,16
 527 1592 527 1592 569 1510 c 1,17,-1
 585 1418 l 1,18,-1
 585 1414 l 1,19,20
 577 1386 577 1386 577 1382 c 2,21,-1
 577 1326 l 2,22,23
 577 1245 577 1245 473 1182 c 1,24,25
 442 1170 442 1170 429 1170 c 2,26,-1
 333 1170 l 2,27,28
 244 1170 244 1170 149 1238 c 1,29,30
 93 1300 93 1300 93 1390 c 2,31,-1
 93 1418 l 2,32,33
 93 1476 93 1476 145 1558 c 1,34,35
 160 1558 160 1558 225 1630 c 1,36,37
 238 1630 238 1630 281 1678 c 1,38,-1
 309 1682 l 1,12,-1
177 1406 m 2,39,-1
 177 1370 l 2,40,41
 177 1340 177 1340 217 1294 c 1,42,43
 268 1264 268 1264 313 1254 c 1,44,-1
 413 1254 l 2,45,46
 452 1254 452 1254 493 1318 c 1,47,-1
 493 1390 l 2,48,49
 493 1407 493 1407 497 1434 c 1,50,51
 497 1476 497 1476 445 1546 c 1,52,53
 437 1546 437 1546 393 1594 c 1,54,-1
 373 1598 l 1,55,-1
 341 1598 l 1,56,57
 325 1582 325 1582 289 1570 c 1,58,59
 177 1481 177 1481 177 1406 c 2,39,-1
EndSplineSet
EndChar

StartChar: guillemetright
Encoding: 187 187 193
Width: 1614
GlyphClass: 1
Flags: W
LayerCount: 2
Fore
SplineSet
738 925 m 1,0,1
 759 925 759 925 774 909 c 1,2,-1
 862 853 l 1,3,4
 893 842 893 842 898 829 c 1,5,6
 966 799 966 799 966 785 c 1,7,8
 1017 765 1017 765 1102 701 c 1,9,10
 1193 647 1193 647 1198 637 c 1,11,12
 1266 601 1266 601 1298 573 c 1,13,14
 1409 502 1409 502 1478 449 c 1,15,16
 1518 438 1518 438 1518 397 c 0,17,18
 1518 383 1518 383 1506 357 c 1,19,20
 1272 249 1272 249 1182 221 c 1,21,-1
 834 61 l 1,22,23
 757 33 757 33 714 13 c 1,24,25
 675 13 675 13 666 57 c 1,26,27
 666 106 666 106 762 129 c 1,28,29
 788 145 788 145 794 145 c 2,30,-1
 922 197 l 1,31,32
 1141 305 1141 305 1222 329 c 1,33,-1
 1394 401 l 1,34,-1
 1394 405 l 1,35,-1
 1190 541 l 2,36,37
 1087 609 1087 609 1078 609 c 1,38,39
 1040 643 1040 643 962 689 c 1,40,41
 919 706 919 706 902 729 c 1,42,43
 805 780 805 780 778 805 c 1,44,45
 698 841 698 841 698 873 c 0,46,47
 698 914 698 914 738 925 c 1,0,1
138 925 m 1,48,49
 159 925 159 925 174 909 c 1,50,-1
 262 853 l 1,51,52
 293 842 293 842 298 829 c 1,53,54
 366 799 366 799 366 785 c 1,55,56
 417 765 417 765 502 701 c 1,57,58
 593 647 593 647 598 637 c 1,59,60
 666 601 666 601 698 573 c 1,61,62
 809 502 809 502 878 449 c 1,63,64
 918 438 918 438 918 397 c 0,65,66
 918 383 918 383 906 357 c 1,67,68
 672 249 672 249 582 221 c 1,69,-1
 234 61 l 1,70,71
 157 33 157 33 114 13 c 1,72,73
 75 13 75 13 66 57 c 1,74,75
 66 106 66 106 162 129 c 1,76,77
 188 145 188 145 194 145 c 2,78,-1
 322 197 l 1,79,80
 541 305 541 305 622 329 c 1,81,-1
 794 401 l 1,82,-1
 794 405 l 1,83,-1
 590 541 l 2,84,85
 487 609 487 609 478 609 c 1,86,87
 440 643 440 643 362 689 c 1,88,89
 319 706 319 706 302 729 c 1,90,91
 205 780 205 780 178 805 c 1,92,93
 98 841 98 841 98 873 c 0,94,95
 98 914 98 914 138 925 c 1,48,49
EndSplineSet
EndChar

StartChar: onequarter
Encoding: 188 188 194
Width: 1396
GlyphClass: 1
Flags: W
LayerCount: 2
Fore
SplineSet
348 1504 m 1,0,1
 392 1497 392 1497 392 1452 c 2,2,-1
 392 864 l 1,3,-1
 532 864 l 2,4,5
 584 864 584 864 584 816 c 1,6,7
 574 776 574 776 532 776 c 2,8,-1
 136 776 l 2,9,10
 84 776 84 776 84 824 c 1,11,12
 94 864 94 864 136 864 c 2,13,-1
 304 864 l 1,14,-1
 304 1364 l 1,15,-1
 300 1364 l 1,16,17
 133 1260 133 1260 128 1260 c 0,18,19
 119 1260 119 1260 112 1256 c 1,20,21
 68 1268 68 1268 68 1300 c 0,22,23
 68 1334 68 1334 172 1388 c 1,24,25
 252 1436 252 1436 328 1500 c 1,26,-1
 348 1504 l 1,0,1
947 1410 m 1,27,28
 987 1423 987 1423 1007 1393 c 0,29,30
 1025 1365 1025 1365 996 1308 c 1,31,32
 1002 1298 1002 1298 972 1235 c 1,33,34
 977 1228 977 1228 943 1149 c 1,35,36
 935 1094 935 1094 901 1030 c 1,37,38
 904 1009 904 1009 876 946 c 1,39,40
 881 938 881 938 846 859 c 1,41,-1
 772 609 l 2,42,43
 763 591 763 591 691 334 c 0,44,45
 648 170 648 170 531 -193 c 1,46,47
 540 -206 540 -206 505 -278 c 1,48,-1
 454 -475 l 2,49,50
 446 -494 446 -494 434 -503 c 1,51,52
 394 -515 394 -515 374 -485 c 0,53,54
 359 -462 359 -462 384 -392 c 1,55,56
 380 -385 380 -385 423 -255 c 1,57,58
 420 -250 420 -250 446 -188 c 1,59,60
 440 -176 440 -176 483 -62 c 1,61,62
 510 44 510 44 543 122 c 0,63,64
 541 126 541 126 584 263 c 1,65,66
 611 384 611 384 659 534 c 1,67,68
 684 627 684 627 716 716 c 1,69,70
 772 926 772 926 796 965 c 1,71,72
 790 973 790 973 819 1038 c 1,73,74
 812 1050 812 1050 853 1132 c 1,75,76
 859 1181 859 1181 889 1252 c 1,77,78
 926 1396 926 1396 947 1410 c 1,27,28
1171 262 m 2,79,-1
 1175 262 l 2,80,81
 1227 262 1227 262 1227 210 c 2,82,-1
 1227 -194 l 1,83,84
 1293 -190 1293 -190 1327 -190 c 0,85,86
 1379 -190 1379 -190 1379 -238 c 0,87,88
 1379 -282 1379 -282 1263 -282 c 2,89,-1
 1227 -282 l 1,90,-1
 1227 -462 l 2,91,92
 1227 -514 1227 -514 1179 -514 c 1,93,94
 1139 -504 1139 -504 1139 -462 c 2,95,-1
 1139 -282 l 1,96,-1
 1015 -282 l 2,97,98
 955 -282 955 -282 851 -286 c 1,99,100
 811 -274 811 -274 811 -238 c 0,101,102
 811 -221 811 -221 983 18 c 1,103,-1
 1099 198 l 1,104,105
 1131 262 1131 262 1171 262 c 2,79,-1
943 -190 m 1,106,-1
 943 -194 l 1,107,-1
 1139 -194 l 1,108,-1
 1139 94 l 1,109,110
 1136 94 1136 94 1015 -90 c 0,111,112
 1012 -90 1012 -90 943 -190 c 1,106,-1
EndSplineSet
EndChar

StartChar: onehalf
Encoding: 189 189 195
Width: 1396
GlyphClass: 1
Flags: W
LayerCount: 2
Fore
SplineSet
348 1504 m 1,0,1
 392 1497 392 1497 392 1452 c 2,2,-1
 392 864 l 1,3,-1
 532 864 l 2,4,5
 584 864 584 864 584 816 c 1,6,7
 574 776 574 776 532 776 c 2,8,-1
 136 776 l 2,9,10
 84 776 84 776 84 824 c 1,11,12
 94 864 94 864 136 864 c 2,13,-1
 304 864 l 1,14,-1
 304 1364 l 1,15,-1
 300 1364 l 1,16,17
 133 1260 133 1260 128 1260 c 0,18,19
 119 1260 119 1260 112 1256 c 1,20,21
 68 1268 68 1268 68 1300 c 0,22,23
 68 1334 68 1334 172 1388 c 1,24,25
 252 1436 252 1436 328 1500 c 1,26,-1
 348 1504 l 1,0,1
947 1410 m 1,27,28
 987 1423 987 1423 1007 1393 c 0,29,30
 1025 1365 1025 1365 996 1308 c 1,31,32
 1002 1298 1002 1298 972 1235 c 1,33,34
 977 1228 977 1228 943 1149 c 1,35,36
 935 1094 935 1094 901 1030 c 1,37,38
 904 1009 904 1009 876 946 c 1,39,40
 881 938 881 938 846 859 c 1,41,-1
 772 609 l 2,42,43
 763 591 763 591 691 334 c 0,44,45
 648 170 648 170 531 -193 c 1,46,47
 540 -206 540 -206 505 -278 c 1,48,-1
 454 -475 l 2,49,50
 446 -494 446 -494 434 -503 c 1,51,52
 394 -515 394 -515 374 -485 c 0,53,54
 359 -462 359 -462 384 -392 c 1,55,56
 380 -385 380 -385 423 -255 c 1,57,58
 420 -250 420 -250 446 -188 c 1,59,60
 440 -176 440 -176 483 -62 c 1,61,62
 510 44 510 44 543 122 c 0,63,64
 541 126 541 126 584 263 c 1,65,66
 611 384 611 384 659 534 c 1,67,68
 684 627 684 627 716 716 c 1,69,70
 772 926 772 926 796 965 c 1,71,72
 790 973 790 973 819 1038 c 1,73,74
 812 1050 812 1050 853 1132 c 1,75,76
 859 1181 859 1181 889 1252 c 1,77,78
 926 1396 926 1396 947 1410 c 1,27,28
1144 235 m 2,79,80
 1196 235 1196 235 1292 139 c 1,81,82
 1316 87 1316 87 1316 35 c 2,83,-1
 1316 -53 l 2,84,85
 1316 -124 1316 -124 1240 -205 c 1,86,87
 1240 -217 1240 -217 1124 -325 c 1,88,89
 1106 -325 1106 -325 1040 -385 c 1,90,-1
 1284 -385 l 2,91,92
 1336 -385 1336 -385 1336 -433 c 1,93,94
 1326 -473 1326 -473 1284 -473 c 2,95,-1
 916 -473 l 2,96,97
 864 -473 864 -473 864 -425 c 1,98,99
 873 -390 873 -390 972 -321 c 0,100,101
 977 -321 977 -321 1120 -205 c 1,102,103
 1228 -99 1228 -99 1228 -53 c 2,104,-1
 1228 27 l 2,105,106
 1228 91 1228 91 1176 123 c 0,107,108
 1165 134 1165 134 1132 147 c 1,109,110
 980 147 980 147 980 119 c 1,111,112
 950 87 950 87 912 -9 c 1,113,114
 885 -21 885 -21 876 -21 c 0,115,116
 836 -11 836 -11 836 35 c 1,117,118
 875 169 875 169 956 211 c 1,119,120
 956 232 956 232 1120 235 c 2,121,-1
 1144 235 l 2,79,80
EndSplineSet
EndChar

